<?xml version="1.0" encoding="UTF-8"?>
<svg id="Layer_2" data-name="Layer 2" xmlns="http://www.w3.org/2000/svg" viewBox="0 0 17.5 41.94" overflow="visible">
  <defs>
    <style>
      .cls-1 {
        fill: #2c451e;
        opacity: .9;
      }

      .cls-1, .cls-2, .cls-3, .cls-4 {
        isolation: isolate;
      }

      .cls-5 {
        fill: #5f4011;
      }

      .cls-6 {
        fill: #b1612e;
      }

      .cls-7, .cls-3 {
        fill: #231f20;
      }

      .cls-8 {
        fill: #3aaecc;
      }

      .cls-2 {
        fill: #f6891f;
      }

      .cls-9 {
        fill: #533312;
      }

      .cls-10 {
        fill: #0ea44a;
      }

      .cls-11 {
        fill: #ed1c24;
      }

      .cls-12 {
        fill: #ae3e27;
      }

      .cls-13 {
        fill: #b0d237;
      }

      .cls-14 {
        fill: #6d8fb1;
      }

      .cls-15 {
        fill: #7a5220;
      }

      .cls-16 {
        fill: #221f1f;
      }

      .cls-17 {
        fill: #0c0c0c;
      }

      .cls-18 {
        fill: #69c180;
      }

      .cls-19 {
        fill: #081c29;
      }

      .cls-20 {
        fill: #faec0e;
      }

      .cls-21 {
        fill: #febd30;
      }

      .cls-22 {
        fill: #b27c23;
      }

      .cls-23 {
        fill: #c8db75;
      }

      .cls-24 {
        fill: #81b9e5;
      }

      .cls-4 {
        fill: #ce9d2b;
      }

      .cls-25 {
        fill: #7b7b7b;
      }
    </style>
  </defs>
  <g id="Layer_1-2" data-name="Layer 1">
    <g>
      <g>
        <path class="cls-17" d="M4.75,41.94c-1.98,0-3.6-1.62-3.6-3.6v-3.69c-.75-1.32-1.15-2.81-1.15-4.31,0-2.3.92-4.51,2.54-6.15l-.35-3.56c-.05-.1-.1-.21-.13-.32-.07-.2-.11-.44-.11-.67v-.24c0-.06,0-.12,0-.19v-.27c.2-1.12,1.16-1.93,2.3-1.93h.07l-.39-4.85s-.06-.04-.1-.06l-.09-.05-.06-.06c-.64-.53-1.3-1.44-1.33-2.47l-.61-4.89.03-.19-.03-.25.06-.38.05-.44v-.55c0-.55.19-1.02.31-1.25l.07-.14.11-.11s.11-.1.17-.15l.05-.07c.39-.49,1.18-1.08,2.68-1.08,1.49.11,2.44.15,3.35.15s1.86-.04,3.28-.15h.01C13,0,13.92.36,14.56.99c.53.53.8,1.24.75,1.97.01.11.02.23.02.34,0,.19-.03.38-.08.57v.78l-.03.12c-.01.12-.07.34-.14.55-.04.13-.1.26-.16.4l-.47,3.78c0,.23-.05.46-.12.71-.02.07-.05.14-.08.21-.07.17-.13.32-.21.46-.04.08-.09.15-.14.23-.07.11-.16.22-.25.33,0,0-.01.02-.02.02l-.83,10.74c1,.06,1.82.7,2.12,1.6h.83v1.29c1.13,1.51,1.75,3.36,1.75,5.24,0,1.51-.4,3-1.15,4.32v3.68c0,1.98-1.61,3.6-3.6,3.6H4.75Z"/>
        <g>
          <path class="cls-17" d="M16.5,30.34c0-1.86-.66-3.56-1.75-4.9v-.2h0s-.18,0-.18,0c-.19-.21-.39-.42-.6-.61-.17-.58-.67-.99-1.32-.99,0,0-.01,0-.02,0-.29-.17-.6-.33-.91-.46l.93-12.04.02-.1s.05-.06.08-.09c.04-.05.08-.09.12-.14.07-.08.13-.17.19-.25.04-.05.07-.11.1-.16.06-.1.1-.2.14-.31.02-.05.05-.1.06-.16.05-.16.08-.32.08-.49l.5-4h0c.07-.14.14-.28.19-.43.05-.15.09-.31.11-.46,0,0,0,0,0,0h0v-.8c.05-.15.08-.3.08-.45,0-.44-.18-.85-.48-1.15-.5-.5-1.2-.7-1.9-.7-2.7.2-4,.2-6.7,0-.6,0-1.14.11-1.55.38-.13.09-.25.2-.35.32,0,.03-.01.05-.03.08-.03.03-.06.06-.1.09-.06.04-.12.09-.16.13-.1.2-.2.5-.2.8v.6h0s-.06.56-.06.56l-.04.24.6,4.8c0,.7.5,1.4,1,1.8,0,0,0,0,0,0,.11.07.2.13.3.18.07.04.15.08.23.11l.57,7.11-.1.1s-.07,0-.1,0v-.1h-.1s0,0,.1.1c-.05,0-.08,0-.1-.02,0,0,0,0-.01,0-.02-.01-.05-.04-.08-.07-.15-.15-.36-.19-.58-.2-.07,0-.15,0-.22,0-.17,0-.34.03-.48.09-.4.15-.67.5-.78.9,0,.04-.03.07-.04.11h0v.1c0,.13.02.26.06.37.04.11.09.21.15.3,0,0,0,0,0,0l.3,3.02.12,1.25c-1.58,1.42-2.59,3.47-2.59,5.76,0,1.48.43,2.86,1.15,4.04v3.96c0,1.43,1.17,2.6,2.6,2.6h8c1.43,0,2.6-1.17,2.6-2.6v-3.96c.72-1.18,1.15-2.56,1.15-4.04Z"/>
          <rect class="cls-3" x="2.75" y="30.34" width="12" height="10" rx="2" ry="2"/>
          <circle class="cls-11" cx="8.75" cy="30.34" r="7"/>
          <circle class="cls-8" cx="8.75" cy="30.34" r="4"/>
          <rect class="cls-7" x="3.65" y="26.34" width="10.2" height="14" rx="1.5" ry="1.5"/>
          <path class="cls-16" d="M14.05,24.6c0-.8-.6-1.4-1.4-1.4s-.8.2-1,.5M11.65,23.6l1-12.9.02-.1c.42-.41.78-1.01.78-1.6l.5-4c.15-.28.26-.59.3-.9v-.8c.2-.6,0-1.2-.4-1.6-.5-.5-1.2-.7-1.9-.7-2.7.2-4,.2-6.7,0-.8,0-1.5.2-1.9.7,0,.1-.2.2-.3.3-.1.2-.2.5-.2.8v.6l-.06.56-.04.24.6,4.8c0,.7.5,1.4,1,1.8.2.13.36.22.53.29l.57,7.11-.1.1s-.07,0-.1,0h0c-.1,0-.12-.02-.2-.1-.2-.2-.5-.2-.8-.2-.7,0-1.2.5-1.3,1.1v.1c0,.26.09.48.22.67l.48,4.93h-.2v5.1h11.3v-5.1h-.5l-.2-.2"/>
          <ellipse class="cls-10" cx="8.85" cy="4.2" rx="2.8" ry=".8"/>
          <path class="cls-7" d="M11.55,26.44s0-.1-.1-.2c-.2,1.6-1.1,2.9-2.3,3.1h4.6v-.6c-.2.3-.6.5-1.1.5-.8,0-1.4-.6-1.4-1.4s0-.2,0-.4v-.4c0-.3,0-.5.2-.8l.1.2Z"/>
          <path class="cls-7" d="M6.05,27.24c-.2.3-.5.4-.9.4h-.3c-.3,0-.6-.1-.8-.4v2.1h4.1c-.9-.1-1.7-1-2.1-2.1Z"/>
          <path class="cls-4" d="M14.05,25.04c0,.4-.2.8-.6,1.1.4.2.6.7.6,1.1,0,.8-.6,1.4-1.4,1.4s-1.1-.4-1.3-1v.4c0,.8.6,1.4,1.4,1.4s.8-.2,1.1-.5v.6H4.15v-2.1c.2.2.5.4.8.4h.3c.3,0,.6-.2.9-.4-.1-.4-.2-.7-.2-1.1v-.6.5c0,.5-.3.8-.6.8h-.3c-.2,0-.5-.3-.6-.8l-.4-4.9c-.5-.2-.9-.7-.9-1.2h0l.5,5.1h-.2v5.1h11.3v-5.1h-.5l-.2-.2Z"/>
          <path class="cls-6" d="M4.99,20.78c-.12.31-.39.52-.73.53s-.21,0-.27.01l.47,4.88c.02.5.24.79.44.78h.21c.14-.01.33-.32.38-.82l-.02-.5-.4-4.89h-.07Z"/>
          <path class="cls-4" d="M5.25,18.64h-.1l.1.1h0v-.1Z"/>
          <path class="cls-4" d="M11.95,26.14c-.2-.1-.3-.3-.4-.4v.6s0,.1.1.2c0-.1.2-.3.4-.4h-.1Z"/>
          <path class="cls-18" d="M12.15,24.94c0,.3.3.6.6.6s.6-.3.6-.6-.3-.6-.6-.6-.6.3-.6.6Z"/>
          <path class="cls-18" d="M12.65,26.64c-.3,0-.6.3-.6.6s.3.6.6.6.6-.3.6-.6-.3-.6-.6-.6Z"/>
          <path class="cls-20" d="M11.55,25.64c.1.2.2.3.4.4-.1,0-.3.2-.4.4s-.2.5-.2.8v.4c.2.6.7,1,1.3,1s1.4-.6,1.4-1.4-.2-.9-.6-1.1c.3-.2.6-.6.6-1.1h0c0-.8-.6-1.4-1.4-1.4s-.8.2-1,.5v1.6l-.1-.1ZM13.25,24.94c0,.3-.3.6-.6.6s-.6-.3-.6-.6.3-.6.6-.6.6.3.6.6ZM12.65,27.74c-.3,0-.6-.3-.6-.6s.3-.6.6-.6.6.3.6.6-.3.6-.6.6Z"/>
          <circle class="cls-18" cx="4.35" cy="19.96" r=".6"/>
          <path class="cls-20" d="M3.85,21.04h.4c.4,0,.8-.2,1.1-.5v-1.8q-.2,0-.3-.1c-.2-.2-.5-.2-.8-.2-.7,0-1.2.5-1.3,1.1v.1h0c0,.6.4,1,.9,1.2v.2ZM4.85,19.84c0,.3-.3.6-.6.6s-.6-.3-.6-.6.3-.6.6-.6.6.3.6.6Z"/>
          <path class="cls-4" d="M8.65,12.02h-3.17l1.12,14.16c.1,1.38.92,2.56,1.74,2.56h.61c.82,0,1.63-1.18,1.74-2.56l1.12-14.16h-.51c-1.12,0-1.84,0-2.66,0Z"/>
          <path class="cls-6" d="M5.35,20.64l.4,4.9v.6c0,.4.2.8.3,1.1.4,1.2,1.2,2,2.1,2.1h1c1.1-.2,2.1-1.4,2.3-3.1v-.6l.2-1.6,1-12.9c-.3.2-.31.3-.61.4l-1.1,14.4c-.1,1.4-1.09,2.6-1.89,2.6h-.6c-.8,0-1.9-1.2-2-2.6l-1.1-14.4c-.3,0-.3-.2-.5-.4l.6,7.5h0c0,.1.1,2,.1,2h-.2Z"/>
          <path class="cls-20" d="M9.65,12.29c-.64.3-.97.3-1.61,0-.39-.2-.64,0-.64.59v1.28c0,.59.32,1.28.64,1.48-.32-.2-.58,0-.58.69v1.28c0,.39.13.89.39,1.18-.19.2-.26.59-.26,1.08.06,2.26.13,4.33.26,6.69,0,.98.32.79.71.79h.39c.32,0,.64.1.71-.79.06-2.26.13-4.33.26-6.69,0-.49-.06-.89-.26-1.08.19-.3.32-.69.39-1.18v-1.28c0-.59-.19-.79-.58-.69.32-.2.64-.89.64-1.48v-1.28c0-.59-.26-.79-.64-.59h.19Z"/>
          <path class="cls-4" d="M8.65,6.6h-3.26c-.65,0-1.19-.3-1.74-.6l.43,2.9c.11.9.87,1.6,1.74,1.6h5.76c.87,0,1.63-.8,1.74-1.6l.43-2.9c-.54.4-1.09.6-1.74.6h-3.37Z"/>
          <path class="cls-6" d="M5.45,11.2h6.2c.3,0,.6-.2.8-.4.5-.4,1-1.1,1-1.8l.7-5.6v.8c-.2.7-.6,1.3-1.1,1.8l-.4,2.9c-.1.9-.9,1.6-1.6,1.6h-5.3c-.8,0-1.5-.8-1.6-1.6l-.4-2.9c-.5-.4-.9-1.1-1-1.8l.6,4.8c0,.7.5,1.4,1,1.8.3.2.5.3.8.4h.3Z"/>
          <path class="cls-9" d="M3.75,4c.1.9,1,1.7,1.9,1.7h6c.9,0,1.8-.8,1.9-1.7v-.8c.1-.4,0-.7-.2-.9-.3-.3-.8-.5-1.3-.4h-6.9c-.5,0-.9.2-1.2.4-.2.2-.3.6-.3.9v.8h.1ZM6.15,2.5c2,.1,3,.1,5,0,.9,0,1.6.5,1.5,1.2v.6c-.1.7-.9,1.4-1.7,1.4h-4.5c-.8,0-1.6-.7-1.7-1.4v-.6c-.1-.7.6-1.3,1.5-1.2h-.1Z"/>
          <path class="cls-20" d="M4.75,4.3c.1.7.9,1.4,1.7,1.4h4.5c.8,0,1.6-.7,1.7-1.4v-.6c.1-.7-.6-1.3-1.5-1.2-2,.1-3,.1-5,0-.9,0-1.6.5-1.5,1.2v.6h.1ZM5.55,3.4c.3-.3.8-.5,1.4-.5h3.5c.6,0,1.1.1,1.4.5.2.2.3.5.2.7v.3c-.2.6-.9,1.1-1.7,1.1h-3.2c-.8,0-1.5-.5-1.7-1.1v-.3c-.1-.3,0-.5.1-.7Z"/>
          <path class="cls-12" d="M6.85,3.7h-.5v.2s.3.3.7.3h3.1c.4,0,.7-.2.7-.3v-.2h-4.1.1Z"/>
          <path class="cls-4" d="M7.05,5.5h3.2c.8,0,1.5-.5,1.7-1.1v-.3c.1-.3,0-.5-.1-.7-.3-.3-.8-.5-1.4-.5h-3.5c-.6,0-1.1.1-1.4.5-.2.2-.3.5-.2.7v.3c.2.6.9,1.1,1.7,1.1ZM10.95,4v.2s-.3.3-.7.3h-3.1c-.4,0-.7-.2-.7-.3v-.2h4.6-.1Z"/>
          <path class="cls-17" d="M4.45,19.39c.3,0,.5.2.5.4v-.1c0-.3-.3-.6-.6-.6s-.6.3-.6.6,0,0,0,.1c0-.2.3-.4.5-.4h.2Z"/>
          <path class="cls-17" d="M12.75,24.59c.3,0,.5.2.5.4v-.1c0-.3-.3-.6-.6-.6s-.6.3-.6.6,0,0,0,.1c0-.2.3-.4.5-.4h.2Z"/>
          <path class="cls-17" d="M12.75,26.89c.3,0,.5.2.5.4v-.1c0-.3-.3-.6-.6-.6s-.6.3-.6.6,0,0,0,.1c0-.2.3-.4.5-.4h.2Z"/>
        </g>
      </g>
      <g>
        <g>
          <rect class="cls-3" x="2.75" y="30.34" width="12" height="10" rx="2" ry="2"/>
          <rect class="cls-25" x="4.4" y="30.88" width="3" height="9.46" rx=".66" ry=".66"/>
          <rect class="cls-25" x="9.95" y="30.88" width="3" height="9.46" rx=".66" ry=".66"/>
          <rect class="cls-14" x="7.68" y="38.38" width="1.94" height="1.54" rx=".66" ry=".66"/>
          <rect class="cls-14" x="7.68" y="30.88" width="1.94" height="1.54" rx=".66" ry=".66"/>
        </g>
        <rect class="cls-25" x="5.35" y="31.3" width="6.47" height="6.47"/>
        <g>
          <g>
            <path class="cls-15" d="M8.6,36.14c-.99,0-1.8-.81-1.8-1.8s.81-1.8,1.8-1.8,1.8.81,1.8,1.8-.81,1.8-1.8,1.8Z"/>
            <path class="cls-2" d="M8.6,35.33c-.87,0-1.57-.7-1.57-1.57s.7-1.57,1.57-1.57,1.57.7,1.57,1.57-.7,1.57-1.57,1.57Z"/>
            <circle class="cls-19" cx="8.6" cy="34.34" r="1.8"/>
            <circle class="cls-24" cx="8.6" cy="34.34" r="1.8"/>
          </g>
          <g>
            <path class="cls-21" d="M6.6,32.39h4c.6,0,1,.4,1,1v-.8c0-.6-.4-1-1-1h-4c-.6,0-1,.4-1,1v.8c0-.6.4-1,1-1Z"/>
            <path class="cls-5" d="M6.6,32.39h4c.6,0,1,.4,1,1v-.8c0-.6-.4-1-1-1h-4c-.6,0-1,.4-1,1v.8c0-.6.4-1,1-1Z"/>
            <rect class="cls-21" x="5.6" y="32.39" width="6" height="4.7" rx="1" ry="1"/>
            <rect class="cls-1" x="5.6" y="32.39" width="6" height="4.7" rx="1" ry="1"/>
            <rect class="cls-22" x="5.6" y="32.39" width="6" height="4.7" rx="1" ry="1"/>
            <g>
              <path class="cls-13" d="M6.05,35.75c0,.55.45,1,1,1h3.27c.29,0,.54-.12.72-.31-1.86-.45-3.56-1.29-4.99-2.46v1.77Z"/>
              <path class="cls-23" d="M11.32,34.14c-1.23-.52-2.36-1.23-3.36-2.09h-.91c-.55,0-1,.45-1,1v.93c1.44,1.17,3.14,2.01,4.99,2.46.17-.18.28-.42.28-.69v-1.61Z"/>
              <path class="cls-13" d="M11.32,33.05c0-.55-.45-1-1-1h-2.36c1,.86,2.13,1.57,3.36,2.09v-1.09Z"/>
            </g>
          </g>
        </g>
      </g>
    </g>
  </g>
</svg>