<?xml version="1.0" encoding="UTF-8"?>
<svg id="Layer_2" data-name="Layer 2" xmlns="http://www.w3.org/2000/svg" viewBox="0 0 1308 864.45" overflow="visible">
  <defs>
    <style>
      .cls-1 {
        fill: #668987;
      }

      .cls-2 {
        fill: #231f20;
      }

      .cls-3 {
        fill: #61a466;
      }

      .cls-4 {
        fill: #e2e41c;
      }

      .cls-5 {
        fill: #b0d237;
      }

      .cls-6 {
        fill: #7a5220;
      }

      .cls-7 {
        opacity: .3;
      }

      .cls-8 {
        fill: #93ad29;
      }

      .cls-9 {
        fill: #47bda1;
      }

      .cls-10 {
        fill: #ab7721;
      }

      .cls-11 {
        fill: #fff200;
      }

      .cls-12 {
        fill: #afd137;
      }
    </style>
  </defs>
  <g id="Layer_1-2" data-name="Layer 1">
    <g>
      <path d="M1289.81,0H18.2C8.16,0,0,8.16,0,18.2v828.05c0,10.03,8.16,18.2,18.2,18.2l198.13-.07c4.68,0,8.49-3.81,8.49-8.5v-25.1c0-1.28,1.04-2.33,2.33-2.33h2.18v.07h2.41v14.34c0,2.72,2.21,4.93,4.93,4.93h7.93c1.79,0,3.25,1.46,3.28,3.29l.28,4.97c.05,4.63,3.86,8.4,8.5,8.4h135.33c4.69,0,8.5-3.81,8.5-8.5v-39.62c0-4.68-3.81-8.5-8.5-8.5h-135.7c-4.69,0-8.5,3.81-8.5,8.5v2.66c0,1.81-1.47,3.28-3.28,3.28h-4.1v-.07h-2.41v-24.87c0-12.49-9.07-12.5-12.49-12.5l-175.25-.15c-.69,0-1.38-.06-2.04-.19-4.66-.89-8.04-4.72-8.04-9.1V98.06c0-4.39,3.38-8.22,8.04-9.1.67-.13,1.36-.19,2.05-.19h291.38c8.43,0,16.22,1.09,23.16,3.24,2.82.87,6.16,1.33,9.65,1.33,9.6,0,16.83-3.29,16.83-7.67s-7.24-7.67-16.83-7.67c-3.5,0-6.84.46-9.66,1.34-6.96,2.16-14.77,3.25-23.21,3.25H50.25c-9.14,0-16.58,6.94-16.58,15.47v677.32c0,8.53,7.44,15.47,16.58,15.47l173.97.23c.2,0,.42,0,.66-.01.26,0,.54-.01.84-.01,3.13,0,6.02.92,6.02,7.57v23.58h-6.32c-3.77,0-6.84,3.07-6.84,6.84v25.54c0,1.95-1.59,3.54-3.55,3.54l-196.83-.17c-6.45,0-11.7-5.25-11.7-11.7V18.2c0-6.45,5.25-11.7,11.7-11.7h1271.61c6.45,0,11.7,5.25,11.7,11.7v828.05c0,6.45-5.25,11.7-11.71,11.7l-139.28.17c-.9,0-1.74-.34-2.4-.95-.03-.03-.07-.05-.1-.08-.47-.47-.79-1.06-.94-1.7,0-.04-.03-.07-.03-.11-.05-.23-.07-.46-.07-.7v-25.54c0-3.77-3.07-6.84-6.84-6.84h-6.32v-22.65c0-8.53,5.98-8.54,8.54-8.54l115.41-.16c9.14,0,16.58-6.94,16.58-15.47V98.06c0-8.53-7.44-15.47-16.58-15.47h-298.54c-5.2,0-9.99-.88-14.25-2.63-3.09-1.26-7.14-1.96-11.41-1.96-9.6,0-16.83,3.29-16.83,7.67s7.24,7.67,16.83,7.67c4.26,0,8.3-.69,11.39-1.95,4.25-1.74,9.04-2.62,14.23-2.62h298.57c1.03,0,2.04.14,3.02.42.63.18,1.24.42,1.82.71,3.24,1.64,5.26,4.76,5.26,8.16v677.32c0,3.07-1.65,5.95-4.43,7.69-.82.51-1.71.91-2.65,1.18-.97.28-1.99.42-3.02.42l-116.7.08c-4.06,0-13.49,1.33-13.49,13.5v23.94h-6.52c-1.81,0-3.28-1.47-3.28-3.28v-2.66c0-4.68-3.81-8.5-8.5-8.5h-135.7c-4.68,0-8.5,3.81-8.5,8.5v39.62c0,4.68,3.81,8.5,8.5,8.5h135.33c4.63,0,8.44-3.77,8.49-8.35l.28-5.06c.02-1.79,1.49-3.24,3.28-3.24h7.93c2.72,0,4.93-2.22,4.93-4.94v-14.27h2.41v-.07h2.17c1.28,0,2.33,1.04,2.33,2.33v25.1c0,4.68,3.81,8.5,8.49,8.5l140.58.07c10.03,0,18.19-8.16,18.19-18.2V18.2c0-10.03-8.16-18.2-18.19-18.2ZM254.02,820.02v-2.81c0-1.72,1.4-3.13,3.13-3.13h133.94c1.72,0,3.13,1.4,3.13,3.13v37.85c0,1.73-1.4,3.13-3.13,3.13h-133.61c-1.71,0-3.11-1.39-3.13-3.14l-.28-5.12c-.05-4.63-3.87-8.4-8.46-8.4l-6.62-.25c-.56-.02-1.01-.48-1.01-1.05v-11.73h7.54c4.69,0,8.5-3.81,8.5-8.5ZM1127.56,828.52v11.66c0,.56-.44,1.02-1.01,1.05l-6.58.25c-4.63,0-8.44,3.77-8.5,8.36l-.28,5.2c-.02,1.71-1.42,3.09-3.13,3.09h-133.61c-1.72,0-3.13-1.4-3.13-3.13v-37.86c0-1.72,1.4-3.13,3.13-3.13h133.93c1.73,0,3.13,1.4,3.13,3.13v2.81c0,4.69,3.81,8.5,8.5,8.5h5.13v.07h2.41Z"/>
      <path class="cls-7" d="M1283.49,5.49H24.44C14.51,5.49,6.43,13.57,6.43,23.49v819.27c0,9.93,8.08,18,18.02,18l196.17-.07c4.64,0,8.41-3.77,8.41-8.41v-24.84c0-1.27,1.03-2.3,2.31-2.3h2.15v.07h2.39v14.19c0,2.69,2.19,4.88,4.88,4.88h7.85c1.77,0,3.22,1.44,3.24,3.25l.28,4.92c.05,4.58,3.83,8.31,8.41,8.31h133.99c4.64,0,8.41-3.77,8.41-8.41v-39.2c0-4.64-3.77-8.41-8.41-8.41h-134.36c-4.64,0-8.41,3.77-8.41,8.41v2.63c0,1.79-1.46,3.24-3.24,3.24h-4.06v-.07h-2.39v-24.61c0-12.36-8.98-12.36-12.37-12.36l-173.52-.15c-.68,0-1.36-.06-2.02-.19-4.62-.88-7.96-4.67-7.96-9.01V102.52c0-4.34,3.35-8.13,7.96-9.01.66-.13,1.35-.19,2.03-.19h288.5c8.35,0,16.06,1.08,22.93,3.2,2.79.86,6.1,1.32,9.56,1.32,9.5,0,16.67-3.26,16.67-7.58,0-2.71-2.81-5-7.24-6.33.02-.77-.06-1.58-.27-2.39-.34-1.32-.67-2.54-1.01-3.65,3.73-.67,6.34-2.1,7.41-4.1.81-1.52.69-3.3-.33-4.9-1.42-2.24-2.83-4.17-4.18-5.73-.49-.56-.88-1.27-1.16-2.09-1.08-3.11-3.84-5.19-6.87-5.19s-5.8,2.09-6.87,5.19c-.28.82-.68,1.53-1.16,2.09-1.35,1.56-2.76,3.49-4.18,5.73-1.01,1.6-1.13,3.38-.33,4.9,1.06,2,3.67,3.44,7.41,4.1-.34,1.11-.68,2.33-1.01,3.65-.11.44-.18.87-.23,1.3-2.22.2-4.34.58-6.21,1.16-6.89,2.13-14.63,3.22-22.98,3.22H56.18c-9.05,0-16.42,6.86-16.42,15.3v670.13c0,8.44,7.36,15.3,16.42,15.3l172.25.23c.2,0,.42,0,.66-.01.26,0,.53-.01.83-.01,3.1,0,5.96.91,5.96,7.49v23.33h-6.26c-3.74,0-6.78,3.04-6.78,6.77v25.26c0,1.93-1.57,3.5-3.51,3.5l-194.88-.16c-6.39,0-11.59-5.19-11.59-11.58V23.49c0-6.38,5.2-11.58,11.59-11.58h1259.05c6.39,0,11.59,5.19,11.59,11.58v819.27c0,6.38-5.2,11.58-11.59,11.58l-137.91.16c-.89,0-1.73-.34-2.38-.94-.03-.03-.07-.05-.1-.08-.47-.47-.78-1.05-.93-1.68,0-.04-.02-.07-.03-.11-.04-.22-.07-.45-.07-.69v-25.26c0-3.73-3.04-6.77-6.78-6.77h-6.26v-22.41c0-8.44,5.92-8.45,8.45-8.45l114.27-.16c9.05,0,16.42-6.86,16.42-15.3V102.52c0-8.44-7.36-15.3-16.42-15.3h-295.59c-5.15,0-9.89-.87-14.1-2.6-2.47-1.01-5.57-1.65-8.89-1.86-.05-.4-.11-.81-.22-1.21-.34-1.32-.67-2.54-1.01-3.65,3.73-.67,6.34-2.1,7.41-4.1.81-1.52.69-3.3-.33-4.9-1.42-2.24-2.83-4.17-4.18-5.73-.49-.56-.88-1.27-1.16-2.09-1.08-3.11-3.84-5.19-6.87-5.19s-5.8,2.09-6.87,5.19c-.28.82-.68,1.53-1.16,2.09-1.35,1.56-2.76,3.49-4.18,5.73-1.01,1.6-1.13,3.38-.33,4.9,1.06,2,3.67,3.44,7.41,4.1-.34,1.11-.67,2.33-1.01,3.65-.23.92-.31,1.83-.25,2.69-3.89,1.36-6.31,3.51-6.31,6.02,0,4.32,7.16,7.58,16.67,7.58,4.22,0,8.22-.69,11.27-1.93,4.21-1.72,8.95-2.59,14.09-2.59h295.62c1.02,0,2.02.14,2.99.42.62.18,1.23.42,1.8.71,3.21,1.62,5.21,4.71,5.21,8.07v670.13c0,3.04-1.64,5.89-4.38,7.61-.81.51-1.69.9-2.62,1.17-.96.28-1.97.42-2.99.42l-115.55.08c-4.02,0-13.36,1.31-13.36,13.35v23.69h-6.45c-1.79,0-3.24-1.45-3.24-3.24v-2.63c0-4.64-3.77-8.41-8.41-8.41h-134.36c-4.64,0-8.41,3.77-8.41,8.41v39.2c0,4.64,3.77,8.41,8.41,8.41h133.99c4.58,0,8.36-3.73,8.41-8.27l.28-5.01c.02-1.77,1.47-3.2,3.24-3.2h7.85c2.69,0,4.88-2.19,4.88-4.88v-14.12h2.39v-.07h2.15c1.27,0,2.31,1.03,2.31,2.3v24.84c0,4.63,3.77,8.41,8.41,8.41l139.2.07c9.93,0,18.01-8.08,18.01-18V23.49c0-9.93-8.08-18-18.01-18ZM242.06,825.22h7.47c4.64,0,8.41-3.77,8.41-8.41v-2.78c0-1.71,1.39-3.09,3.1-3.09h132.61c1.71,0,3.1,1.39,3.1,3.09v37.45c0,1.71-1.39,3.1-3.1,3.1h-132.29c-1.69,0-3.08-1.37-3.1-3.1l-.28-5.06c-.05-4.58-3.83-8.31-8.37-8.31l-6.55-.25c-.56-.02-1-.48-1-1.03v-11.6ZM1122.85,836.76c0,.56-.44,1.01-1,1.03l-6.52.25c-4.59,0-8.36,3.73-8.41,8.27l-.28,5.15c-.02,1.69-1.41,3.06-3.1,3.06h-132.29c-1.71,0-3.1-1.39-3.1-3.09v-37.45c0-1.71,1.39-3.09,3.1-3.09h132.61c1.71,0,3.1,1.39,3.1,3.09v2.78c0,4.64,3.77,8.41,8.41,8.41h5.08v.07h2.39v11.53Z"/>
      <g>
        <rect class="cls-8" x="230.32" y="823.2" width="9.07" height="4.32"/>
        <rect class="cls-8" x="1126.15" y="823.2" width="9.07" height="4.32"/>
        <g>
          <path class="cls-12" d="M1289.81,1H18.2C8.7,1,1,8.7,1,18.2v828.05c0,9.5,7.7,17.2,17.2,17.2l198.13-.07c4.14,0,7.49-3.36,7.49-7.5v-25.11c0-1.84,1.49-3.33,3.33-3.33h3.18v-4.25h-4.91c-3.23,0-5.85,2.62-5.85,5.85v25.54c0,2.51-2.04,4.54-4.55,4.54l-196.82-.17c-7.02,0-12.7-5.69-12.7-12.7V18.2h0c0-7.02,5.69-12.7,12.7-12.7h1271.61c7.02,0,12.7,5.69,12.7,12.7h0v828.05c0,7.02-5.69,12.7-12.7,12.7l-139.28.17c-2.51,0-4.55-2.03-4.55-4.54v-25.54c0-3.23-2.62-5.85-5.85-5.85h-4.91v4.25h3.18c1.84,0,3.33,1.49,3.33,3.33v25.11c0,4.14,3.35,7.49,7.49,7.5l140.58.07c9.5,0,17.2-7.7,17.2-17.2V18.2c0-9.5-7.7-17.2-17.2-17.2Z"/>
          <path class="cls-12" d="M1257.75,789.85c8.61,0,15.58-6.48,15.58-14.47V98.06c0-7.99-6.98-14.47-15.58-14.47h-298.54c-5,0-10-.81-14.62-2.7-2.85-1.17-6.74-1.89-11.03-1.89-8.74,0-15.83,2.98-15.83,6.66s7.09,6.66,15.83,6.66c4.28,0,8.16-.72,11.01-1.88,4.62-1.89,9.62-2.69,14.61-2.69h298.57c1.15,0,2.25.16,3.29.46.69.2,1.36.46,1.99.78,3.46,1.75,5.81,5.15,5.81,9.05v677.32c0,3.55-1.94,6.68-4.89,8.53-.89.56-1.86,1-2.9,1.3s-2.15.46-3.29.46l-116.7.08c-4.14,0-12.49,1.36-12.49,12.5v41.92c0,1.1-.87,2-1.97,2.04l-6.62.25c-4.11,0-7.45,3.3-7.5,7.41l-.28,5.16c-.03,2.26-1.87,4.08-4.13,4.08h-133.61c-2.28,0-4.13-1.85-4.13-4.13v-37.85c0-2.28,1.85-4.13,4.13-4.13h133.93c2.28,0,4.13,1.85,4.13,4.13v2.81c0,4.14,3.36,7.5,7.5,7.5h6.13v-4.25h-5.1c-2.36,0-4.28-1.91-4.28-4.28v-2.66c0-4.14-3.36-7.5-7.5-7.5h-135.7c-4.14,0-7.5,3.36-7.5,7.5v39.62c0,4.14,3.36,7.5,7.5,7.5h135.33c4.11,0,7.45-3.3,7.5-7.41l.28-5.01c.03-2.34,1.93-4.23,4.28-4.23h7.93c2.17,0,3.93-1.77,3.93-3.94v-43.24c0-9.51,7.03-9.54,9.53-9.54l115.41-.16Z"/>
          <path class="cls-12" d="M391.97,808.83h-135.7c-4.14,0-7.5,3.36-7.5,7.5v2.66c0,2.36-1.91,4.28-4.28,4.28h-5.1v4.25h6.13c4.14,0,7.5-3.36,7.5-7.5v-2.81c0-2.28,1.85-4.13,4.13-4.13h133.93c2.28,0,4.13,1.85,4.13,4.13v37.85c0,2.28-1.85,4.13-4.13,4.13h-133.61c-2.26,0-4.1-1.82-4.13-4.08l-.28-5.16c-.05-4.11-3.39-7.41-7.5-7.41l-6.62-.25c-1.1-.04-1.97-.95-1.97-2.04v-42.92c0-11.14-7.35-11.49-11.49-11.5l-175.25-.15c-.76,0-1.51-.07-2.23-.21-5.05-.96-8.86-5.12-8.86-10.09V98.06c0-4.97,3.81-9.12,8.86-10.09.72-.14,1.47-.21,2.23-.21h291.38c7.93,0,15.88.94,23.46,3.28,2.62.81,5.85,1.29,9.35,1.29,8.74,0,15.83-2.98,15.83-6.66s-7.09-6.66-15.83-6.66c-3.5,0-6.74.48-9.36,1.29-7.6,2.35-15.56,3.3-23.51,3.3H50.25c-8.61,0-15.58,6.48-15.58,14.47v677.32c0,7.99,6.98,14.47,15.58,14.47l173.95.23c2.51,0,8.53-.96,8.53,8.54v44.24c0,2.17,1.76,3.93,3.93,3.93h7.93c2.34,0,4.25,1.89,4.28,4.23l.28,5.01c.05,4.11,3.39,7.41,7.5,7.41h135.33c4.14,0,7.5-3.36,7.5-7.5v-39.62c0-4.14-3.36-7.5-7.5-7.5Z"/>
        </g>
        <path class="cls-12" d="M1289.8,858.95l-139.28.17c-2.51,0-4.55-2.03-4.55-4.54v-25.54c0-3.23-2.62-5.85-5.85-5.85h-4.91v4.25h3.18c1.84,0,3.33,1.49,3.33,3.33v25.11c0,4.14,3.35,7.49,7.49,7.5l140.58.07"/>
      </g>
      <g>
        <ellipse class="cls-8" cx="373.93" cy="84.82" rx="7.8" ry="3.28"/>
        <path class="cls-2" d="M373.71,85.81l-.78-.04v-.03c-1.72-.23-3.19-1.05-4.2-2.37-1.31-1.69-1.7-4.02-1.08-6.4.34-1.32.69-2.54,1.03-3.65-3.82-.67-6.49-2.1-7.58-4.1-.82-1.52-.7-3.3.33-4.9,1.45-2.24,2.89-4.17,4.27-5.73.5-.56.9-1.27,1.19-2.09,1.1-3.11,3.93-5.19,7.03-5.19s5.93,2.09,7.03,5.19c.29.82.69,1.53,1.19,2.09,1.38,1.56,2.82,3.49,4.27,5.73,1.04,1.6,1.16,3.38.33,4.9-1.09,2-3.76,3.44-7.58,4.1.34,1.11.69,2.33,1.03,3.65.62,2.37.23,4.71-1.08,6.4-1.17,1.51-2.94,2.38-5,2.43-.07,0-.13,0-.2,0s-.13,0-.22,0Z"/>
        <path class="cls-2" d="M373.93,84.82c-1.82,0-3.39-.73-4.41-2.05-1.12-1.44-1.45-3.46-.91-5.53.57-2.19,1.14-4.07,1.67-5.58.25-.69.44-1.55.59-2.55.42-2.95,1.56-4.72,3.06-4.72s2.64,1.76,3.06,4.72c.14,1,.34,1.86.59,2.55.54,1.51,1.1,3.39,1.67,5.58.54,2.07.21,4.09-.91,5.53-1.02,1.32-2.59,2.05-4.41,2.05Z"/>
        <path class="cls-6" d="M377.38,74.28c-.11-.35-.44-.58-.81-.55-.87.06-1.75.09-2.64.09s-1.77-.03-2.64-.09c-.37-.02-.7.2-.81.55-.35,1.16-.66,2.28-.9,3.21-.91,3.5,1.03,6.33,4.35,6.33s5.26-2.84,4.35-6.33c-.24-.93-.55-2.05-.9-3.21Z"/>
        <path class="cls-9" d="M373.93,72.75c-6.12,0-10.58-1.5-11.94-4-.65-1.2-.55-2.58.29-3.88,1.43-2.2,2.83-4.09,4.18-5.61.58-.66,1.05-1.47,1.38-2.42.96-2.71,3.4-4.53,6.09-4.53s5.13,1.82,6.09,4.53c.33.95.8,1.76,1.38,2.42,1.35,1.52,2.75,3.41,4.18,5.61.84,1.3.95,2.67.29,3.88-1.36,2.5-5.83,4-11.94,4Z"/>
        <path class="cls-5" d="M384.75,65.42c-1-1.54-2.45-3.63-4.09-5.5-.71-.8-1.22-1.74-1.58-2.75-.8-2.26-2.8-3.86-5.14-3.86s-4.35,1.6-5.14,3.86c-.36,1.01-.87,1.95-1.58,2.75-1.65,1.86-3.09,3.95-4.09,5.5-2.27,3.5,2.57,6.33,10.81,6.33s13.08-2.84,10.81-6.33Z"/>
        <path class="cls-8" d="M373.93,69.78c-5.84,0-8.84-1.5-9.35-2.44-.06-.1-.16-.3.17-.82,1.35-2.09,2.68-3.86,3.93-5.28.84-.95,1.51-2.1,1.97-3.42.55-1.54,1.83-2.54,3.27-2.54s2.73,1,3.27,2.54c.47,1.32,1.13,2.47,1.97,3.42,1.25,1.42,2.57,3.19,3.93,5.28.34.52.23.71.17.82-.51.94-3.51,2.44-9.35,2.44Z"/>
        <path class="cls-11" d="M367.38,64.96c.7-1.21,1.71-2.86,2.86-4.32.49-.63.85-1.37,1.1-2.16.56-1.78,1.95-3.04,3.59-3.04.33,0,.65.06.95.16-.57-.42-1.23-.67-1.95-.67-1.64,0-3.03,1.26-3.59,3.04-.25.79-.61,1.53-1.1,2.16-1.15,1.46-2.16,3.11-2.86,4.32-.93,1.62-.14,3.05,1.84,3.96.03.02.07,0,.1,0-1.29-.89-1.72-2.1-.95-3.45Z"/>
        <path class="cls-4" d="M378.19,60.98c.16-.43.2-.54.35-.96-.45-.61-.78-1.31-1.02-2.05-.31-1-.9-1.83-1.64-2.37-.31-.1-.62-.16-.95-.16-1.64,0-3.03,1.26-3.59,3.04-.25.79-.61,1.53-1.1,2.16-1.15,1.46-2.16,3.11-2.86,4.32-.77,1.34-.34,2.55.95,3.45.02-.01.04-.02.05-.05,1.74-3.8,5.39-6.62,9.81-7.37Z"/>
        <path class="cls-9" d="M372.99,60.8c-.34-.61-.99-1.02-1.73-1.02-1.1,0-2,.9-2,2,0,.21.04.4.1.59.89-.92,2.17-1.52,3.63-1.57Z"/>
        <path class="cls-2" d="M378.26,63.18c-.19,0-.38.04-.55.1.34.6.55,1.28.55,2,0,.38-.07.73-.16,1.08.05,0,.11.02.16.02.88,0,1.6-.72,1.6-1.6s-.72-1.6-1.6-1.6Z"/>
        <path class="cls-2" d="M371.26,63.78c1.1,0,2-.9,2-2,0-.36-.1-.69-.27-.98-1.46.05-2.75.65-3.63,1.57.25.81,1,1.41,1.9,1.41Z"/>
        <path class="cls-9" d="M377.71,63.29c-.61.22-1.05.81-1.05,1.5,0,.83.63,1.5,1.44,1.58.1-.35.16-.71.16-1.08,0-.72-.21-1.39-.55-2Z"/>
        <path d="M372.5,84.61c.14.05.21.08.35.12-.99-1.33-1.39-2.17-1.46-3.31-.27-.03-.53-.07-.79-.11.03,1.15.52,1.95,1.91,3.3Z"/>
        <path d="M373.18,84.82c.14.03.21.04.35.06-.39-1.31-.56-2.2-.61-3.33-.26-.01-.52-.03-.78-.05.07,1.13.37,2,1.05,3.32Z"/>
        <path d="M373.64,81.57c.02,1.14.08,2.03.21,3.34.14,0,.21,0,.35,0,.13-1.31.19-2.2.21-3.34-.13,0-.26.01-.39.01s-.26-.01-.39-.01Z"/>
        <path d="M374.44,84.78c.14-.02.21-.03.35-.06.68-1.32.97-2.19,1.05-3.32-.26.02-.52.04-.78.05-.05,1.13-.22,2.02-.61,3.33Z"/>
        <path d="M375.11,84.64c.14-.04.21-.07.35-.12,1.38-1.35,1.87-2.14,1.91-3.3-.26.04-.52.08-.79.11-.07,1.14-.48,1.98-1.46,3.31Z"/>
        <path class="cls-9" d="M383.99,69.93c0,.06-.02.12-.03.18.02-.06.03-.12.03-.18Z"/>
        <path class="cls-9" d="M363.9,70.11c-.01-.06-.02-.12-.03-.18,0,.06.01.12.03.18Z"/>
        <path class="cls-9" d="M364.43,68.99s-.05.04-.07.06c-.35.31-.49.6-.48.88,0,.06.02.12.03.18.19.66,1.33,1.22,3.21,1.61-.61-.64-.9-1.26-.95-1.99-.76-.21-1.35-.46-1.74-.74Z"/>
        <path class="cls-9" d="M368.4,70.18c.12.66.39,1.25.86,1.87.62.07,1.28.12,1.98.16-.28-.6-.45-1.17-.54-1.79-.83-.06-1.6-.14-2.3-.24Z"/>
        <path class="cls-9" d="M373.93,70.53c-.38,0-.75,0-1.11-.01.03.61.09,1.17.19,1.76.31,0,.61.01.93.01s.62,0,.93-.01c.09-.59.15-1.15.19-1.76-.36,0-.73.01-1.11.01Z"/>
        <path class="cls-9" d="M377.17,70.42c-.09.62-.26,1.2-.54,1.79.7-.04,1.37-.09,1.98-.16.47-.62.74-1.21.86-1.87-.7.1-1.47.18-2.3.24Z"/>
        <path class="cls-9" d="M383.51,69.05s-.05-.04-.07-.06c-.39.28-.98.53-1.74.74-.05.73-.34,1.35-.95,1.99,1.88-.39,3.02-.95,3.21-1.61.01-.06.02-.12.03-.18,0-.28-.14-.58-.48-.88Z"/>
        <path class="cls-4" d="M381.65,64.38s1.61,2.05,1.69,2.7-2.59,1.91-2.59,1.91c0,0,1.62-1.41,1.62-2.11s-.72-2.5-.72-2.5Z"/>
        <path class="cls-10" d="M372.13,76.84c-.1.35-.2.74-.31,1.14-.27,1.02-.15,1.96.33,2.57.12.16.28.29.44.4-.17-.43-.25-.83-.26-1.31.13.03.25.06.38.08.02.51.11.95.26,1.43.1.04.2.07.3.09-.11-.49-.18-.95-.2-1.47.13.02.25.03.38.04.01.52.05.98.12,1.48.09.01.18.02.28.03-.02-.5-.04-.96-.04-1.49.06,0,.12,0,.19,0s.12,0,.19,0c0,.52-.02.98-.04,1.47.07,0,.15,0,.22-.02.07-.52.11-1,.13-1.54.13,0,.25-.02.38-.04-.02.54-.09,1.01-.21,1.52.1-.03.21-.05.3-.09.16-.5.25-.95.28-1.48.13-.02.26-.05.38-.08,0,.49-.09.9-.27,1.34.13-.1.26-.22.36-.35.48-.61.6-1.55.33-2.57-.1-.4-.21-.79-.31-1.14-.53.19-1.15.32-1.8.32s-1.27-.13-1.8-.32Z"/>
        <path class="cls-10" d="M375.18,75.14c-.22-.35-.56-.6-.87-.58h-.75c-.31-.02-.66.23-.87.58.24.03.64.07,1.25.07s1.01-.04,1.25-.07Z"/>
        <path class="cls-1" d="M372.68,75.14c-.18-.02-.29-.04-.29-.04-.62-.28-1.32-.23-1.55-.04l-.13.18c-.37.54.33,1.21,1.42,1.59.22-.78.4-1.37.4-1.37.04-.12.09-.23.15-.33Z"/>
        <path class="cls-1" d="M377.15,75.25l-.13-.18c-.23-.2-.93-.25-1.55.04,0,0-.11.02-.29.04.06.1.12.21.15.33,0,0,.18.58.39,1.37,1.09-.39,1.78-1.06,1.42-1.59Z"/>
        <path class="cls-3" d="M375.18,75.14c-.24.03-.64.07-1.25.07s-1.01-.04-1.25-.07c-.06.1-.12.21-.15.33,0,0-.18.58-.4,1.37.53.19,1.15.32,1.8.32s1.27-.13,1.8-.32c-.22-.78-.39-1.37-.39-1.37-.04-.12-.09-.23-.15-.33Z"/>
        <ellipse class="cls-8" cx="933.06" cy="84.82" rx="7.8" ry="3.28"/>
        <path class="cls-2" d="M932.84,85.81l-.78-.04v-.03c-1.72-.23-3.19-1.05-4.2-2.37-1.31-1.69-1.7-4.02-1.08-6.4.34-1.32.69-2.54,1.03-3.65-3.82-.67-6.49-2.1-7.58-4.1-.82-1.52-.7-3.3.33-4.9,1.45-2.24,2.89-4.17,4.27-5.73.5-.56.9-1.27,1.19-2.09,1.1-3.11,3.93-5.19,7.03-5.19s5.93,2.09,7.03,5.19c.29.82.69,1.53,1.19,2.09,1.38,1.56,2.82,3.49,4.27,5.73,1.04,1.6,1.16,3.38.33,4.9-1.09,2-3.76,3.44-7.58,4.1.34,1.11.69,2.33,1.03,3.65.62,2.37.23,4.71-1.08,6.4-1.17,1.51-2.94,2.38-5,2.43-.07,0-.13,0-.2,0s-.13,0-.22,0Z"/>
        <path class="cls-2" d="M933.06,84.82c-1.82,0-3.39-.73-4.41-2.05-1.12-1.44-1.45-3.46-.91-5.53.57-2.19,1.14-4.07,1.67-5.58.25-.69.44-1.55.59-2.55.42-2.95,1.56-4.72,3.06-4.72s2.64,1.76,3.06,4.72c.14,1,.34,1.86.59,2.55.54,1.51,1.1,3.39,1.67,5.58.54,2.07.21,4.09-.91,5.53-1.02,1.32-2.59,2.05-4.41,2.05Z"/>
        <path class="cls-6" d="M936.51,74.28c-.11-.35-.44-.58-.81-.55-.87.06-1.75.09-2.64.09s-1.77-.03-2.64-.09c-.37-.02-.7.2-.81.55-.35,1.16-.66,2.28-.9,3.21-.91,3.5,1.03,6.33,4.35,6.33s5.26-2.84,4.35-6.33c-.24-.93-.55-2.05-.9-3.21Z"/>
        <path class="cls-9" d="M933.06,72.75c-6.12,0-10.58-1.5-11.94-4-.65-1.2-.55-2.58.29-3.88,1.43-2.2,2.83-4.09,4.18-5.61.58-.66,1.05-1.47,1.38-2.42.96-2.71,3.4-4.53,6.09-4.53s5.13,1.82,6.09,4.53c.33.95.8,1.76,1.38,2.42,1.35,1.52,2.75,3.41,4.18,5.61.84,1.3.95,2.67.29,3.88-1.36,2.5-5.83,4-11.94,4Z"/>
        <path class="cls-5" d="M943.87,65.42c-1-1.54-2.45-3.63-4.09-5.5-.71-.8-1.22-1.74-1.58-2.75-.8-2.26-2.8-3.86-5.14-3.86s-4.35,1.6-5.14,3.86c-.36,1.01-.87,1.95-1.58,2.75-1.65,1.86-3.09,3.95-4.09,5.5-2.27,3.5,2.57,6.33,10.81,6.33s13.08-2.84,10.81-6.33Z"/>
        <path class="cls-8" d="M933.06,69.78c-5.84,0-8.84-1.5-9.35-2.44-.06-.1-.16-.3.17-.82,1.35-2.09,2.68-3.86,3.93-5.28.84-.95,1.51-2.1,1.97-3.42.55-1.54,1.83-2.54,3.27-2.54s2.73,1,3.27,2.54c.47,1.32,1.13,2.47,1.97,3.42,1.25,1.42,2.57,3.19,3.93,5.28.34.52.23.71.17.82-.51.94-3.51,2.44-9.35,2.44Z"/>
        <path class="cls-11" d="M926.51,64.96c.7-1.21,1.71-2.86,2.86-4.32.49-.63.85-1.37,1.1-2.16.56-1.78,1.95-3.04,3.59-3.04.33,0,.65.06.95.16-.57-.42-1.23-.67-1.95-.67-1.64,0-3.03,1.26-3.59,3.04-.25.79-.61,1.53-1.1,2.16-1.15,1.46-2.16,3.11-2.86,4.32-.93,1.62-.14,3.05,1.84,3.96.03.02.07,0,.1,0-1.29-.89-1.72-2.1-.95-3.45Z"/>
        <path class="cls-4" d="M937.32,60.98c.16-.43.2-.54.35-.96-.45-.61-.78-1.31-1.02-2.05-.31-1-.9-1.83-1.64-2.37-.31-.1-.62-.16-.95-.16-1.64,0-3.03,1.26-3.59,3.04-.25.79-.61,1.53-1.1,2.16-1.15,1.46-2.16,3.11-2.86,4.32-.77,1.34-.34,2.55.95,3.45.02-.01.04-.02.05-.05,1.74-3.8,5.39-6.62,9.81-7.37Z"/>
        <path class="cls-9" d="M932.12,60.8c-.34-.61-.99-1.02-1.73-1.02-1.1,0-2,.9-2,2,0,.21.04.4.1.59.89-.92,2.17-1.52,3.63-1.57Z"/>
        <path class="cls-2" d="M937.39,63.18c-.19,0-.38.04-.55.1.34.6.55,1.28.55,2,0,.38-.07.73-.16,1.08.05,0,.11.02.16.02.88,0,1.6-.72,1.6-1.6s-.72-1.6-1.6-1.6Z"/>
        <path class="cls-2" d="M930.39,63.78c1.1,0,2-.9,2-2,0-.36-.1-.69-.27-.98-1.46.05-2.75.65-3.63,1.57.25.81,1,1.41,1.9,1.41Z"/>
        <path class="cls-9" d="M936.84,63.29c-.61.22-1.05.81-1.05,1.5,0,.83.63,1.5,1.44,1.58.1-.35.16-.71.16-1.08,0-.72-.21-1.39-.55-2Z"/>
        <path d="M931.63,84.61c.14.05.21.08.35.12-.99-1.33-1.39-2.17-1.46-3.31-.27-.03-.53-.07-.79-.11.03,1.15.52,1.95,1.91,3.3Z"/>
        <path d="M932.3,84.82c.14.03.21.04.35.06-.39-1.31-.56-2.2-.61-3.33-.26-.01-.52-.03-.78-.05.07,1.13.37,2,1.05,3.32Z"/>
        <path d="M932.77,81.57c.02,1.14.08,2.03.21,3.34.14,0,.21,0,.35,0,.13-1.31.19-2.2.21-3.34-.13,0-.26.01-.39.01s-.26-.01-.39-.01Z"/>
        <path d="M933.56,84.78c.14-.02.21-.03.35-.06.68-1.32.97-2.19,1.05-3.32-.26.02-.52.04-.78.05-.05,1.13-.22,2.02-.61,3.33Z"/>
        <path d="M934.24,84.64c.14-.04.21-.07.35-.12,1.38-1.35,1.87-2.14,1.91-3.3-.26.04-.52.08-.79.11-.07,1.14-.48,1.98-1.46,3.31Z"/>
        <path class="cls-9" d="M943.12,69.93c0,.06-.02.12-.03.18.02-.06.03-.12.03-.18Z"/>
        <path class="cls-9" d="M923.03,70.11c-.01-.06-.02-.12-.03-.18,0,.06.01.12.03.18Z"/>
        <path class="cls-9" d="M923.55,68.99s-.05.04-.07.06c-.35.31-.49.6-.48.88,0,.06.02.12.03.18.19.66,1.33,1.22,3.21,1.61-.61-.64-.9-1.26-.95-1.99-.76-.21-1.35-.46-1.74-.74Z"/>
        <path class="cls-9" d="M927.52,70.18c.12.66.39,1.25.86,1.87.62.07,1.28.12,1.98.16-.28-.6-.45-1.17-.54-1.79-.83-.06-1.6-.14-2.3-.24Z"/>
        <path class="cls-9" d="M933.06,70.53c-.38,0-.75,0-1.11-.01.03.61.09,1.17.19,1.76.31,0,.61.01.93.01s.62,0,.93-.01c.09-.59.15-1.15.19-1.76-.36,0-.73.01-1.11.01Z"/>
        <path class="cls-9" d="M936.29,70.42c-.09.62-.26,1.2-.54,1.79.7-.04,1.37-.09,1.98-.16.47-.62.74-1.21.86-1.87-.7.1-1.47.18-2.3.24Z"/>
        <path class="cls-9" d="M942.64,69.05s-.05-.04-.07-.06c-.39.28-.98.53-1.74.74-.05.73-.34,1.35-.95,1.99,1.88-.39,3.02-.95,3.21-1.61.01-.06.02-.12.03-.18,0-.28-.14-.58-.48-.88Z"/>
        <path class="cls-4" d="M940.78,64.38s1.61,2.05,1.69,2.7-2.59,1.91-2.59,1.91c0,0,1.62-1.41,1.62-2.11s-.72-2.5-.72-2.5Z"/>
        <path class="cls-10" d="M931.26,76.84c-.1.35-.2.74-.31,1.14-.27,1.02-.15,1.96.33,2.57.12.16.28.29.44.4-.17-.43-.25-.83-.26-1.31.13.03.25.06.38.08.02.51.11.95.26,1.43.1.04.2.07.3.09-.11-.49-.18-.95-.2-1.47.13.02.25.03.38.04.01.52.05.98.12,1.48.09.01.18.02.28.03-.02-.5-.04-.96-.04-1.49.06,0,.12,0,.19,0s.12,0,.19,0c0,.52-.02.98-.04,1.47.07,0,.15,0,.22-.02.07-.52.11-1,.13-1.54.13,0,.25-.02.38-.04-.02.54-.09,1.01-.21,1.52.1-.03.21-.05.3-.09.16-.5.25-.95.28-1.48.13-.02.26-.05.38-.08,0,.49-.09.9-.27,1.34.13-.1.26-.22.36-.35.48-.61.6-1.55.33-2.57-.1-.4-.21-.79-.31-1.14-.53.19-1.15.32-1.8.32s-1.27-.13-1.8-.32Z"/>
        <path class="cls-10" d="M934.31,75.14c-.22-.35-.56-.6-.87-.58h-.75c-.31-.02-.66.23-.87.58.24.03.64.07,1.25.07s1.01-.04,1.25-.07Z"/>
        <path class="cls-1" d="M931.81,75.14c-.18-.02-.29-.04-.29-.04-.62-.28-1.32-.23-1.55-.04l-.13.18c-.37.54.33,1.21,1.42,1.59.22-.78.4-1.37.4-1.37.04-.12.09-.23.15-.33Z"/>
        <path class="cls-1" d="M936.28,75.25l-.13-.18c-.23-.2-.93-.25-1.55.04,0,0-.11.02-.29.04.06.1.12.21.15.33,0,0,.18.58.39,1.37,1.09-.39,1.78-1.06,1.42-1.59Z"/>
        <path class="cls-3" d="M934.31,75.14c-.24.03-.64.07-1.25.07s-1.01-.04-1.25-.07c-.06.1-.12.21-.15.33,0,0-.18.58-.4,1.37.53.19,1.15.32,1.8.32s1.27-.13,1.8-.32c-.22-.78-.39-1.37-.39-1.37-.04-.12-.09-.23-.15-.33Z"/>
      </g>
    </g>
  </g>
</svg>