<?xml version="1.0" encoding="UTF-8"?>
<svg id="Layer_2" data-name="Layer 2" xmlns="http://www.w3.org/2000/svg" viewBox="0 0 31.66 41.03" overflow="visible">
  <defs>
    <style>
      .cls-1 {
        fill: #668987;
      }

      .cls-2 {
        fill: #231f20;
      }

      .cls-3 {
        fill: #6c4a05;
        opacity: .7;
      }

      .cls-4 {
        fill: #e2e41c;
      }

      .cls-5 {
        fill: #b0d237;
      }

      .cls-6 {
        fill: #7a5220;
      }

      .cls-7 {
        opacity: .56;
      }

      .cls-7, .cls-8, .cls-9 {
        fill: #47bda1;
      }

      .cls-8 {
        opacity: .3;
      }

      .cls-10 {
        fill: #4ca38f;
      }

      .cls-11 {
        fill: #93ad29;
      }

      .cls-12 {
        fill: #ab7721;
      }

      .cls-13 {
        fill: #fff200;
      }
    </style>
  </defs>
  <g id="Layer_1-2" data-name="Layer 1">
    <g>
      <ellipse class="cls-8" cx="15.83" cy="34.36" rx="15.83" ry="6.66"/>
      <ellipse class="cls-3" cx="15.33" cy="33.5" rx="6.27" ry="2.64"/>
      <path class="cls-2" d="M15.11,34.5l-.78-.04v-.03c-1.72-.23-3.19-1.05-4.2-2.37-1.31-1.69-1.7-4.02-1.08-6.4.34-1.32.69-2.54,1.03-3.65-3.82-.67-6.49-2.1-7.58-4.1-.82-1.52-.7-3.3.33-4.9,1.45-2.24,2.89-4.17,4.27-5.73.5-.56.9-1.27,1.19-2.09,1.1-3.11,3.93-5.19,7.03-5.19s5.93,2.09,7.03,5.19c.29.82.69,1.53,1.19,2.09,1.38,1.56,2.82,3.49,4.27,5.73,1.04,1.6,1.16,3.38.33,4.9-1.09,2-3.76,3.44-7.58,4.1.34,1.11.69,2.33,1.03,3.65.62,2.37.23,4.71-1.08,6.4-1.17,1.51-2.94,2.38-5,2.43-.07,0-.13,0-.2,0s-.13,0-.22,0Z"/>
      <g>
        <path class="cls-9" d="M15.62,2c2.35,0,4.35,1.6,5.14,3.86.13.37.29.72.46,1.06.05-.04.09-.07.09-.07l-.83-2.26c-1.59-4.36-7.74-4.4-9.39-.06l-.09.23c.98-1.66,2.68-2.76,4.61-2.76Z"/>
        <path class="cls-9" d="M18.54,20.31c-.61.06-1.26.09-1.92.11.05-.4.09-.8.11-1.22-.36,0-.73.01-1.11.01s-.75,0-1.11-.01c.02.42.06.82.11,1.22-.66-.02-1.31-.05-1.92-.11-.14-.39-.25-.79-.31-1.21-.24-.02-.46-.04-.69-.06-.33,1-.6,1.68-.6,1.68,0,0,2.57.18,4.68.52,2.11.33,4.68-.52,4.68-.52,0,0-.22-.7-.54-1.71-.34.03-.69.07-1.06.09-.06.42-.17.81-.31,1.21Z"/>
        <path class="cls-5" d="M15.62,18.47c-1.38,0-2.6-.09-3.67-.23-.09.28-.18.55-.26.8.23.02.45.04.69.06.06.42.17.81.31,1.21.61.06,1.26.09,1.92.11-.05-.4-.09-.8-.11-1.22.36,0,.73.01,1.11.01s.75,0,1.11-.01c-.02.42-.06.82-.11,1.22.66-.02,1.31-.05,1.92-.11.14-.39.25-.79.31-1.21.37-.03.72-.06,1.06-.09-.08-.26-.17-.53-.26-.82-1.15.17-2.49.28-4.03.28Z"/>
        <path class="cls-5" d="M11.34,8.44c.37-.55.67-1.15.87-1.8.56-1.78,1.95-3.04,3.59-3.04.71,0,1.37.25,1.95.67-.31-.1-.62-.16-.95-.16-.07,0-.14.02-.22.02.01,0,.03,0,.05.01.05,0,.1-.01.16-.01.33,0,.65.06.95.16.74.54,1.33,1.37,1.64,2.37.18.57.17,1.1.35,1.59.67-.66,1.28-1.15,1.49-1.32-.17-.34-.33-.7-.46-1.06-.8-2.26-2.8-3.86-5.14-3.86-1.94,0-3.63,1.1-4.61,2.76l-.8,2.1s.53.64,1.14,1.58Z"/>
        <path class="cls-11" d="M16.63,4.14s-.03,0-.05-.01c-.94.07-1.79.53-2.43,1.28.65-.75,1.52-1.22,2.47-1.27Z"/>
        <path class="cls-11" d="M17.7,11.23c-.17.07-.34.14-.52.19-1.66.42-3.02,1-4.14,1.87-.1,1.5-.62,3.43-1.1,4.95,1.07.14,2.28.23,3.67.23,1.54,0,2.88-.11,4.03-.28-.62-1.91-1.44-4.43-1.93-5.74-.14-.39-.13-.8-.02-1.22Z"/>
        <path class="cls-13" d="M12.09,9.32c.49-.63.85-1.37,1.1-2.16.21-.67.54-1.27.96-1.75.64-.75,1.49-1.21,2.43-1.28.07,0,.14-.02.22-.02.33,0,.65.06.95.16-.57-.42-1.23-.67-1.95-.67-1.64,0-3.03,1.26-3.59,3.04-.2.65-.51,1.25-.87,1.8.21.32.42.67.63,1.05.04-.05.08-.11.12-.16Z"/>
        <path class="cls-4" d="M17.73,4.28c-.31-.1-.62-.16-.95-.16-.05,0-.1.01-.16.01-.95.05-1.82.51-2.47,1.27-.42.48-.75,1.08-.96,1.75-.25.79-.61,1.53-1.1,2.16-.04.05-.08.11-.12.16.41.74.79,1.56,1,2.37.1.39.12.89.08,1.44,1.12-.88,2.47-1.46,4.14-1.87.18-.04.35-.12.52-.19.28-1.05,1.19-2.15,2.03-2.99-.18-.49-.17-1.02-.35-1.59-.31-1-.9-1.83-1.64-2.37Z"/>
        <path class="cls-9" d="M23.09,7.94c-.58-.66-1.05-1.47-1.38-2.42-.96-2.71-3.4-4.53-6.09-4.53s-5.13,1.82-6.09,4.53c-.33.95-.8,1.76-1.38,2.42-1.35,1.52-2.75,3.41-4.18,5.61-.84,1.3-.95,2.67-.29,3.88,1.36,2.5,5.83,4,11.94,4s10.58-1.5,11.94-4c.65-1.2.55-2.58-.29-3.88-1.43-2.2-2.84-4.09-4.18-5.61ZM25.57,18.18c-.08-.15-.2-.29-.37-.44-.02-.02-.05-.04-.07-.06-.39.28-.98.53-1.74.74-.02.35-.11.67-.25.98-.71.24-1.51.44-2.38.61.19-.37.32-.74.39-1.13-.39.06-.81.1-1.24.15.32,1.01.54,1.71.54,1.71,0,0-2.57.85-4.68.52-2.11-.33-4.68-.52-4.68-.52,0,0,.26-.68.6-1.68-.57-.05-1.11-.11-1.61-.18.07.4.2.77.39,1.13-.87-.16-1.67-.36-2.38-.61-.14-.31-.22-.63-.25-.98-.76-.21-1.35-.46-1.74-.74-.02.02-.05.04-.07.06-.17.15-.29.3-.37.44-1.47-1.1-1.87-2.52-.87-4.08,1-1.54,2.45-3.63,4.09-5.5.71-.8,1.22-1.74,1.58-2.75.14-.39.32-.75.53-1.1l.09-.23c1.65-4.34,7.8-4.3,9.39.06l.83,2.26s-.04.03-.09.07c.3.6.67,1.17,1.12,1.68,1.65,1.86,3.09,3.95,4.09,5.5,1.01,1.55.61,2.97-.87,4.08Z"/>
        <path class="cls-7" d="M23.09,7.94c-.58-.66-1.05-1.47-1.38-2.42-.96-2.71-3.4-4.53-6.09-4.53s-5.13,1.82-6.09,4.53c-.33.95-.8,1.76-1.38,2.42-1.35,1.52-2.75,3.41-4.18,5.61-.84,1.3-.95,2.67-.29,3.88,1.36,2.5,5.83,4,11.94,4s10.58-1.5,11.94-4c.65-1.2.55-2.58-.29-3.88-1.43-2.2-2.84-4.09-4.18-5.61ZM25.57,18.18c-.08-.15-.2-.29-.37-.44-.02-.02-.05-.04-.07-.06-.39.28-.98.53-1.74.74-.02.35-.11.67-.25.98-.71.24-1.51.44-2.38.61.19-.37.32-.74.39-1.13-.39.06-.81.1-1.24.15.32,1.01.54,1.71.54,1.71,0,0-2.57.85-4.68.52-2.11-.33-4.68-.52-4.68-.52,0,0,.26-.68.6-1.68-.57-.05-1.11-.11-1.61-.18.07.4.2.77.39,1.13-.87-.16-1.67-.36-2.38-.61-.14-.31-.22-.63-.25-.98-.76-.21-1.35-.46-1.74-.74-.02.02-.05.04-.07.06-.17.15-.29.3-.37.44-1.47-1.1-1.87-2.52-.87-4.08,1-1.54,2.45-3.63,4.09-5.5.71-.8,1.22-1.74,1.58-2.75.14-.39.32-.75.53-1.1l.09-.23c1.65-4.34,7.8-4.3,9.39.06l.83,2.26s-.04.03-.09.07c.3.6.67,1.17,1.12,1.68,1.65,1.86,3.09,3.95,4.09,5.5,1.01,1.55.61,2.97-.87,4.08Z"/>
        <path class="cls-5" d="M6.27,16.02c-.06-.1-.16-.3.17-.82,1.19-1.83,2.35-3.41,3.47-4.74.38-.56.78-1.13,1.2-1.67.09-.11.15-.24.23-.36-.61-.94-1.14-1.58-1.14-1.58l.8-2.1c-.21.35-.39.71-.53,1.1-.36,1.01-.87,1.95-1.58,2.75-1.65,1.86-3.09,3.95-4.09,5.5-1.01,1.55-.61,2.97.87,4.08.08-.15.2-.29.37-.44.02-.02.05-.04.07-.06.39.28.98.53,1.74.74.02.35.11.67.25.98.71.24,1.51.44,2.38.61-.19-.37-.32-.74-.39-1.13.5.07,1.04.13,1.61.18.08-.25.17-.52.26-.8-3.45-.45-5.29-1.5-5.68-2.22Z"/>
        <path class="cls-7" d="M6.27,16.02c-.06-.1-.16-.3.17-.82,1.19-1.83,2.35-3.41,3.47-4.74.38-.56.78-1.13,1.2-1.67.09-.11.15-.24.23-.36-.61-.94-1.14-1.58-1.14-1.58l.8-2.1c-.21.35-.39.71-.53,1.1-.36,1.01-.87,1.95-1.58,2.75-1.65,1.86-3.09,3.95-4.09,5.5-1.01,1.55-.61,2.97.87,4.08.08-.15.2-.29.37-.44.02-.02.05-.04.07-.06.39.28.98.53,1.74.74.02.35.11.67.25.98.71.24,1.51.44,2.38.61-.19-.37-.32-.74-.39-1.13.5.07,1.04.13,1.61.18.08-.25.17-.52.26-.8-3.45-.45-5.29-1.5-5.68-2.22Z"/>
        <path class="cls-5" d="M22.34,8.61c-.45-.51-.81-1.08-1.12-1.68-.21.17-.83.66-1.49,1.32.04.12.09.24.16.35.29.48.61.93.97,1.33.8.91,1.63,1.98,2.48,3.17,0,0,0-.02,0-.02,0,0,1.73,2.05,1.69,2.7,0,0,0,0,0,0,0,.13-.03.2-.06.25-.08.15-.25.32-.46.49-.04.03-.08.07-.13.1-.27.19-.61.39-1.04.58-.25.12-.49.21-.65.27-.15.06-.24.09-.24.09,0,0,0,0,0,0-.76.25-1.69.48-2.79.64.09.29.18.56.26.82.43-.04.85-.09,1.24-.15-.07.4-.2.77-.39,1.13.87-.16,1.67-.36,2.38-.61.14-.31.22-.63.25-.98.76-.21,1.35-.46,1.74-.74.02.02.05.04.07.06.17.15.29.3.37.44,1.47-1.1,1.87-2.52.87-4.08-1-1.54-2.45-3.63-4.09-5.5Z"/>
        <path class="cls-7" d="M22.34,8.61c-.45-.51-.81-1.08-1.12-1.68-.21.17-.83.66-1.49,1.32.04.12.09.24.16.35.29.48.61.93.97,1.33.8.91,1.63,1.98,2.48,3.17,0,0,0-.02,0-.02,0,0,1.73,2.05,1.69,2.7,0,0,0,0,0,0,0,.13-.03.2-.06.25-.08.15-.25.32-.46.49-.04.03-.08.07-.13.1-.27.19-.61.39-1.04.58-.25.12-.49.21-.65.27-.15.06-.24.09-.24.09,0,0,0,0,0,0-.76.25-1.69.48-2.79.64.09.29.18.56.26.82.43-.04.85-.09,1.24-.15-.07.4-.2.77-.39,1.13.87-.16,1.67-.36,2.38-.61.14-.31.22-.63.25-.98.76-.21,1.35-.46,1.74-.74.02.02.05.04.07.06.17.15.29.3.37.44,1.47-1.1,1.87-2.52.87-4.08-1-1.54-2.45-3.63-4.09-5.5Z"/>
        <path class="cls-11" d="M24.37,16.62c-.32.23-.7.43-1.04.58.43-.19.78-.39,1.04-.58Z"/>
        <path class="cls-7" d="M24.37,16.62c-.32.23-.7.43-1.04.58.43-.19.78-.39,1.04-.58Z"/>
        <path class="cls-11" d="M24.5,16.51c.21-.17.38-.34.46-.49.03-.05.07-.13.06-.25-.02.26-.23.51-.52.74Z"/>
        <path class="cls-7" d="M24.5,16.51c.21-.17.38-.34.46-.49.03-.05.07-.13.06-.25-.02.26-.23.51-.52.74Z"/>
        <path class="cls-11" d="M19.66,9.37c-.38.87-1.1,1.5-1.96,1.86-.11.42-.13.84.02,1.22.49,1.31,1.31,3.82,1.93,5.74,1.1-.16,2.03-.39,2.79-.64.03-.03,1.05-.84,1.39-2.03.19-.64-.44-2.29-.49-2.43-.85-1.19-1.68-2.26-2.48-3.17-.36-.41-.68-.86-.97-1.33.02.03.03.07.06.11-.05.14-.16.39-.28.68Z"/>
        <path class="cls-7" d="M19.66,9.37c-.38.87-1.1,1.5-1.96,1.86-.11.42-.13.84.02,1.22.49,1.31,1.31,3.82,1.93,5.74,1.1-.16,2.03-.39,2.79-.64.03-.03,1.05-.84,1.39-2.03.19-.64-.44-2.29-.49-2.43-.85-1.19-1.68-2.26-2.48-3.17-.36-.41-.68-.86-.97-1.33.02.03.03.07.06.11-.05.14-.16.39-.28.68Z"/>
        <path class="cls-11" d="M10.22,17.08s-.02,0-.03,0c0,0-.01,0-.02-.01-.02,0-.04.02-.07,0-1.97-.91-2.77-2.34-1.84-3.96.44-.76,1.01-1.7,1.65-2.65-1.12,1.32-2.28,2.9-3.47,4.74-.34.52-.23.71-.17.82.39.72,2.23,1.76,5.68,2.22.48-1.52,1-3.45,1.1-4.95-1.16.9-2.07,2.11-2.83,3.78Z"/>
        <path class="cls-7" d="M10.22,17.08s-.02,0-.03,0c0,0-.01,0-.02-.01-.02,0-.04.02-.07,0-1.97-.91-2.77-2.34-1.84-3.96.44-.76,1.01-1.7,1.65-2.65-1.12,1.32-2.28,2.9-3.47,4.74-.34.52-.23.71-.17.82.39.72,2.23,1.76,5.68,2.22.48-1.52,1-3.45,1.1-4.95-1.16.9-2.07,2.11-2.83,3.78Z"/>
        <path class="cls-13" d="M10.1,17.08s.04,0,.07,0c-1.27-.89-1.69-2.1-.93-3.43.67-1.17,1.64-2.74,2.73-4.16-.21-.37-.42-.73-.63-1.05-.08.12-.14.25-.23.36-.43.54-.83,1.11-1.2,1.67-.64.95-1.21,1.89-1.65,2.65-.93,1.62-.14,3.05,1.84,3.96Z"/>
        <path class="cls-7" d="M10.1,17.08s.04,0,.07,0c-1.27-.89-1.69-2.1-.93-3.43.67-1.17,1.64-2.74,2.73-4.16-.21-.37-.42-.73-.63-1.05-.08.12-.14.25-.23.36-.43.54-.83,1.11-1.2,1.67-.64.95-1.21,1.89-1.65,2.65-.93,1.62-.14,3.05,1.84,3.96Z"/>
        <path class="cls-4" d="M17.7,11.23c.86-.35,1.58-.99,1.96-1.86.13-.29.23-.54.28-.68-.03-.03-.03-.07-.06-.11-.07-.11-.12-.23-.16-.35-.84.84-1.75,1.94-2.03,2.99Z"/>
        <path class="cls-7" d="M17.7,11.23c.86-.35,1.58-.99,1.96-1.86.13-.29.23-.54.28-.68-.03-.03-.03-.07-.06-.11-.07-.11-.12-.23-.16-.35-.84.84-1.75,1.94-2.03,2.99Z"/>
        <path class="cls-4" d="M10.16,17.07s.01,0,.02.01c.01,0,.02,0,.03,0,.76-1.67,1.67-2.88,2.83-3.78.04-.55.02-1.05-.08-1.44-.21-.81-.59-1.63-1-2.37-1.1,1.42-2.06,2.99-2.73,4.16-.77,1.33-.35,2.54.93,3.43Z"/>
        <path class="cls-7" d="M10.16,17.07s.01,0,.02.01c.01,0,.02,0,.03,0,.76-1.67,1.67-2.88,2.83-3.78.04-.55.02-1.05-.08-1.44-.21-.81-.59-1.63-1-2.37-1.1,1.42-2.06,2.99-2.73,4.16-.77,1.33-.35,2.54.93,3.43Z"/>
        <path class="cls-4" d="M23.83,15.52c-.34,1.19-1.36,2-1.39,2.03,0,0,0,0,0,0,0,0,.09-.03.24-.09.24-.09.45-.18.65-.27.34-.16.73-.36,1.04-.58.05-.03.09-.07.13-.1.29-.23.5-.48.52-.74,0,0,0,0,0,0,.04-.65-1.69-2.7-1.69-2.7,0,0,0,.02,0,.02.05.13.67,1.78.49,2.43Z"/>
        <path class="cls-7" d="M23.83,15.52c-.34,1.19-1.36,2-1.39,2.03,0,0,0,0,0,0,0,0,.09-.03.24-.09.24-.09.45-.18.65-.27.34-.16.73-.36,1.04-.58.05-.03.09-.07.13-.1.29-.23.5-.48.52-.74,0,0,0,0,0,0,.04-.65-1.69-2.7-1.69-2.7,0,0,0,.02,0,.02.05.13.67,1.78.49,2.43Z"/>
        <path class="cls-4" d="M24.5,16.51s-.08.07-.13.1c.05-.03.09-.07.13-.1Z"/>
        <path class="cls-7" d="M24.5,16.51s-.08.07-.13.1c.05-.03.09-.07.13-.1Z"/>
        <path class="cls-4" d="M23.33,17.2c-.2.09-.41.18-.65.27.16-.06.4-.15.65-.27Z"/>
        <path class="cls-7" d="M23.33,17.2c-.2.09-.41.18-.65.27.16-.06.4-.15.65-.27Z"/>
      </g>
      <path class="cls-6" d="M18.77,22.96c-.11-.35-.44-.58-.81-.55-.87.06-1.75.09-2.64.09s-1.77-.03-2.64-.09c-.37-.02-.7.2-.81.55-.35,1.16-.66,2.28-.9,3.21-.91,3.5,1.03,6.33,4.35,6.33s5.26-2.84,4.35-6.33c-.24-.93-.55-2.05-.9-3.21Z"/>
      <path class="cls-9" d="M14.39,9.49c-.34-.61-.99-1.02-1.73-1.02-1.1,0-2,.9-2,2,0,.21.04.4.1.59.89-.92,2.17-1.52,3.63-1.57Z"/>
      <path class="cls-2" d="M19.66,11.87c-.19,0-.38.04-.55.1.34.6.55,1.28.55,2,0,.38-.07.73-.16,1.08.05,0,.11.02.16.02.88,0,1.6-.72,1.6-1.6s-.72-1.6-1.6-1.6Z"/>
      <path class="cls-2" d="M12.66,12.47c1.1,0,2-.9,2-2,0-.36-.1-.69-.27-.98-1.46.05-2.75.65-3.63,1.57.25.81,1,1.41,1.9,1.41Z"/>
      <path class="cls-9" d="M19.11,11.97c-.61.22-1.05.81-1.05,1.5,0,.83.63,1.5,1.44,1.58.1-.35.16-.71.16-1.08,0-.72-.21-1.39-.55-2Z"/>
      <path d="M13.89,33.3c.14.05.21.08.35.12-.99-1.33-1.39-2.17-1.46-3.31-.27-.03-.53-.07-.79-.11.03,1.15.52,1.95,1.91,3.3Z"/>
      <path d="M14.57,33.51c.14.03.21.04.35.06-.39-1.31-.56-2.2-.61-3.33-.26-.01-.52-.03-.78-.05.07,1.13.37,2,1.05,3.32Z"/>
      <path d="M15.04,30.26c.02,1.14.08,2.03.21,3.34.14,0,.21,0,.35,0,.13-1.31.19-2.2.21-3.34-.13,0-.26.01-.39.01s-.26-.01-.39-.01Z"/>
      <path d="M15.83,33.47c.14-.02.21-.03.35-.06.68-1.32.97-2.19,1.05-3.32-.26.02-.52.04-.78.05-.05,1.13-.22,2.02-.61,3.33Z"/>
      <path d="M16.51,33.32c.14-.04.21-.07.35-.12,1.38-1.35,1.87-2.14,1.91-3.3-.26.04-.52.08-.79.11-.07,1.14-.48,1.98-1.46,3.31Z"/>
      <g>
        <path class="cls-12" d="M13.53,25.53c-.1.35-.2.74-.31,1.14-.27,1.02-.15,1.96.33,2.57.12.16.28.29.44.4-.17-.43-.25-.83-.26-1.31.13.03.25.06.38.08.02.51.11.95.26,1.43.1.04.2.07.3.09-.11-.49-.18-.95-.2-1.47.13.02.25.03.38.04.01.52.05.98.12,1.48.09.01.18.02.28.03-.02-.5-.04-.96-.04-1.49.06,0,.12,0,.19,0s.12,0,.19,0c0,.52-.02.98-.04,1.47.07,0,.15,0,.22-.02.07-.52.11-1,.13-1.54.13,0,.25-.02.38-.04-.02.54-.09,1.01-.21,1.52.1-.03.21-.05.3-.09.16-.5.25-.95.28-1.48.13-.02.26-.05.38-.08,0,.49-.09.9-.27,1.34.13-.1.26-.22.36-.35.48-.61.6-1.55.33-2.57-.1-.4-.21-.79-.31-1.14-.53.19-1.15.32-1.8.32s-1.27-.13-1.8-.32Z"/>
        <path class="cls-12" d="M16.58,23.83c-.22-.35-.56-.6-.87-.58h-.75c-.31-.02-.66.23-.87.58.24.03.64.07,1.25.07s1.01-.04,1.25-.07Z"/>
        <path class="cls-1" d="M14.08,23.83c-.18-.02-.29-.04-.29-.04-.62-.28-1.32-.23-1.55-.04l-.13.18c-.37.54.33,1.21,1.42,1.59.22-.78.4-1.37.4-1.37.04-.12.09-.23.15-.33Z"/>
        <path class="cls-1" d="M18.55,23.93l-.13-.18c-.23-.2-.93-.25-1.55.04,0,0-.11.02-.29.04.06.1.12.21.15.33,0,0,.18.58.39,1.37,1.09-.39,1.78-1.06,1.42-1.59Z"/>
        <path class="cls-10" d="M16.58,23.83c-.24.03-.64.07-1.25.07s-1.01-.04-1.25-.07c-.06.1-.12.21-.15.33,0,0-.18.58-.4,1.37.53.19,1.15.32,1.8.32s1.27-.13,1.8-.32c-.22-.78-.39-1.37-.39-1.37-.04-.12-.09-.23-.15-.33Z"/>
      </g>
    </g>
  </g>
</svg>