<?xml version="1.0" encoding="UTF-8"?>
<svg id="Layer_2" data-name="Layer 2" xmlns="http://www.w3.org/2000/svg" viewBox="0 0 34.88 40.14" overflow="visible">
  <defs>
    <style>
      .cls-1 {
        fill: none;
      }

      .cls-2 {
        fill: #e9773a;
      }

      .cls-3 {
        fill: #010101;
      }

      .cls-4 {
        fill: #231f20;
      }

      .cls-5 {
        fill: #afd137;
        opacity: .22;
      }

      .cls-6 {
        fill: #79cdd2;
        isolation: isolate;
      }

      .cls-7 {
        fill: #e069a8;
      }

      .cls-8 {
        fill: #24425b;
      }

      .cls-9 {
        fill: #b0d237;
      }

      .cls-10 {
        fill: #e187b8;
      }

      .cls-11 {
        opacity: .3;
      }

      .cls-11, .cls-12 {
        fill: #47bda1;
      }

      .cls-13 {
        fill: #ed66a4;
      }

      .cls-14 {
        fill: #e9008a;
      }

      .cls-15 {
        fill: #0c0c0c;
      }

      .cls-16 {
        fill: #8bd7f8;
      }

      .cls-17 {
        fill: #eb3993;
      }

      .cls-18 {
        fill: #83004c;
      }
    
      @keyframes jitter {
        0%, 49% { transform: translateY(0); }
        50%, 100% { transform: translateY(-1.5px); }
      }
      #Layer_1-2 {
        animation: jitter 0.2s infinite;
      }
</style>
  </defs>
  <g id="Layer_1-2" data-name="Layer 1">
    <g>
      <circle class="cls-11" cx="7.39" cy="35.41" r="4.34"/>
      <circle class="cls-11" cx="17.46" cy="35.8" r="4.34"/>
      <circle class="cls-11" cx="27.53" cy="34.63" r="4.34"/>
      <path class="cls-4" d="M34.17,25.64c-1.92-1.75-3.02-2.9-4.49-4.76l-2.31-.65.58-1.61c-.88-1.21-1.48-2.05-2.36-3.49l-2.14.23,1.1-1.97c-.68-1.19-1.13-2.07-1.78-3.44l-2.14-.13,1.18-2c-.96-2.12-1.48-3.5-2.21-6-.18-1.03-1.02-1.79-2.07-1.82h-.14c-.93.03-1.76.66-2.08,1.61-.83,2.59-1.37,4.01-2.36,6.31l1.26,1.83h-2.14c-.65,1.36-1.09,2.25-1.71,3.35l.5,2.23-1.96.07c-.79,1.3-1.31,2.09-2.19,3.25l.81,1.66-2.28.24-1.61,2.07h.12c-.9,1.01-1.81,1.86-3.08,3.02l-.65.59v.88c0,1.09.58,1.82,1.29,2.13,2.38,1.09,3.77,1.54,6.11,2.09l-.17.27c-1.41.34-2.43,1.58-2.43,3.11,0,1.79,1.41,3.2,3.2,3.2,1.69,0,3.04-1.25,3.19-2.9l1.65-2.59c.71.1,1.4.18,2.07.24v.94c-.45.56-.7,1.26-.7,2,0,1.51,1.31,3.2,3.2,3.2s3.2-1.41,3.2-3.2c0-.96-.32-1.62-.7-2.06v-.87c.81-.07,1.64-.17,2.52-.31l1.49,2.35c.15,1.65,1.49,2.9,3.19,2.9,1.79,0,3.2-1.41,3.2-3.2,0-1.59-1.11-2.88-2.61-3.15,2.13-.53,3.47-1.04,5.62-1.93.63-.17,1.16-.62,1.41-1.24.34-.82.15-1.76-.55-2.45Z"/>
      <path class="cls-15" d="M11.32,14.61c.2.3.3.4.5.6-.3,0-.5,0-.9-.1-1.2,2-1.8,2.9-3.2,4.7.13,0,.23.01.33.03.26.26.45.45.7.7-.04,0-.08-.02-.13-.03-.4,0-.6-.1-1.1-.2-2,2.7-3.2,3.9-5.5,6,0,0,0,.3.1.3,2.4,1.1,3.7,1.5,6.3,2.1,7.1,1.7,11,1.7,18,0,2.6-.6,3.9-1.1,6.3-2.1.2,0,.2-.2.1-.3-2.29-2.09-3.49-3.39-5.48-5.98-.31.08-.53.16-.91.17l.69-.69h-.1s-.09,0-.13,0c.01,0,.02,0,.03,0-1.3-1.8-2-2.7-3.2-4.7-.35,0-.48,0-.78.07.19-.28.29-.38.48-.57-1.2-2-1.7-3-2.7-5.1h-.35c.08-.17.17-.33.25-.5h-.1c-1.4-3-2-4.5-2.9-7.6,0-.3-.3-.3-.4,0-1,3.1-1.6,4.6-2.9,7.6.08.17.17.33.25.5h-.55c-1,2.1-1.5,3.1-2.7,5.1M10.14,26.13s.02,0,.03,0c-.01,0-.02,0-.03,0Z"/>
      <path class="cls-15" d="M27.32,20.31s.01.01.02.02c.03,0,.05-.01.08-.02h-.1Z"/>
      <path class="cls-2" d="M17.9,33.71v-3.9h-1v3.9c-.4.2-.7.6-.7,1.1s.5,1.2,1.2,1.2,1.2-.5,1.2-1.2-.3-.9-.7-1.1Z"/>
      <path class="cls-2" d="M26.9,32.61h-.4l-2.6-4.2-.8.5,2.8,4.4v.3c0,.7.5,1.2,1.2,1.2s1.2-.5,1.2-1.2-.5-1.2-1.2-1.2l-.2.2Z"/>
      <path class="cls-2" d="M11,28.51l-2.6,4.2h-.4c-.7,0-1.2.5-1.2,1.2s.5,1.2,1.2,1.2,1.2-.5,1.2-1.2,0-.2,0-.3l2.8-4.4-.8-.5-.2-.2Z"/>
      <path class="cls-15" d="M17.1,9.61h3.2c.1-.2.2-.4.3-.6h-6.3c.1.2.2.4.3.6h2.6-.1Z"/>
      <path class="cls-15" d="M15,15.51c2,.1,2.9.1,4.9,0,1.2,0,1.8-.1,3-.3h0c.2-.3.3-.4.5-.6-.4,0-.6,0-.9.1-1.2.1-1.8.2-2.9.2h-4.4c-1.2,0-1.8,0-2.9-.2-.4,0-.6,0-1-.1.2.3.3.4.5.6h.1c1.2.1,1.8.2,3,.3h.1Z"/>
      <path class="cls-15" d="M27,19.81c-.4,0-.6.1-1,.2-1.5.3-2.2.4-3.7.6-3.8.4-5.8.4-9.6,0-1.5-.2-2.3-.3-3.7-.6-.4,0-.6-.1-1-.2.3.3.5.5.8.8,6.8,1.5,10.6,1.5,17.5,0l.8-.8h-.1Z"/>
      <path class="cls-17" d="M17.3,3.21c-.8,2.3-1.2,3.5-2.2,5.8h4.6c-1-2.3-1.4-3.4-2.2-5.8,0,0-.1,0-.2,0Z"/>
      <path class="cls-18" d="M17.3,3.21h.2c.8,2.3,1.2,3.5,2.2,5.8h.8c-1.4-3-2-4.5-2.9-7.6,0-.3-.3-.3-.4,0-1,3.1-1.6,4.6-2.9,7.6h.9c1-2.3,1.4-3.4,2.2-5.8h-.1Z"/>
      <path class="cls-18" d="M22.5,14.71c.4,0,.6,0,.9-.1h0c-1.2-2-1.7-3-2.7-5.1h-.9c.9,2.1,1.5,3.1,2.6,5.1l.1.1Z"/>
      <path class="cls-18" d="M25.9,20.01c.4,0,.6-.1,1-.2h0c-1.3-1.8-2-2.7-3.2-4.7-.4,0-.5,0-.9.1h0c1.1,2,1.8,3,3.1,4.8Z"/>
      <path class="cls-18" d="M27.4,20.31c-.4.1-.6.2-1.1.2,1.8,2.5,2.9,3.7,5,5.8-7.9,3.4-19.8,3.4-27.7,0,2.1-2.1,3.1-3.3,5-5.8-.4,0-.6-.1-1.1-.2-2,2.7-3.2,3.9-5.5,6,0,0,0,.3.1.3,2.4,1.1,3.7,1.5,6.3,2.1,7.1,1.7,11,1.7,18,0,2.6-.6,3.9-1.1,6.3-2.1.2,0,.2-.2.1-.3-2.3-2.1-3.5-3.4-5.5-6h.1Z"/>
      <path class="cls-18" d="M14.8,9.51h-.8c-1,2.1-1.5,3.1-2.7,5.1.4,0,.6,0,1,.1,1.1-2,1.6-3,2.6-5.1l-.1-.1Z"/>
      <path class="cls-18" d="M11.9,15.21h-.1c-.3,0-.5,0-.9-.1-1.2,2-1.8,2.9-3.2,4.7.4,0,.6.1,1,.2,1.3-1.8,1.9-2.8,3.1-4.8h.1Z"/>
      <path class="cls-13" d="M17.35,11.36h.9c-.2-.6-.3-1-.5-1.6h-.6c-.2.6-.3,1-.5,1.6h.7Z"/>
      <path class="cls-10" d="M17.61,13.81c-.09-.41-.17-.62-.26-1.1-.09.41-.17.62-.26,1.1h-1.12c-.17.41-.35.69-.52,1.1h3.8c-.26-.41-.35-.62-.52-1.1h-1.12Z"/>
      <path class="cls-15" d="M17.4,27.41c1.5,0,2.7-1.1,2.6-2.3s-1.2-2.1-2.6-2.1-2.6.9-2.6,2.1,1.1,2.3,2.6,2.3ZM16,25.21c0-.7.7-1.2,1.4-1.2s1.4.5,1.4,1.2v.4c0,.7-.6,1.2-1.4,1.2s-1.4-.6-1.4-1.2v-.4Z"/>
      <path class="cls-15" d="M10,26.71c1.5.3,2.7-.5,2.8-1.7,0-1.2-1-2.3-2.3-2.5-1.4-.2-2.6.4-2.8,1.6-.2,1.1.8,2.4,2.3,2.7v-.1ZM9,23.91c.3-.4.8-.6,1.4-.5.8.1,1.3.7,1.3,1.4,0,.4-.3.6-.6.8-.3.4-.8.6-1.4.5-.8-.2-1.3-.8-1.3-1.4,0-.4.3-.6.6-.7v-.1Z"/>
      <path class="cls-15" d="M24.8,26.71c1.5-.3,2.5-1.5,2.3-2.7-.2-1.1-1.4-1.8-2.8-1.6-1.4.2-2.4,1.3-2.3,2.5,0,1.2,1.4,2,2.8,1.7v.1ZM24.4,23.41c.6-.1,1.1,0,1.4.5.3.1.6.4.6.7,0,.6-.5,1.3-1.3,1.4-.6.1-1.1,0-1.4-.5-.3-.2-.6-.4-.6-.8,0-.6.5-1.2,1.3-1.4v.1Z"/>
      <path class="cls-4" d="M21.1,13.01c-.3-.6-.5-1-.8-1.6h-2.7c.1.7.2,1,.3,1.7,1.3,0,1.9,0,3.2-.1ZM20.1,11.61c.2.5.3.7.5,1.1h-2.6v-.1c0-.4-.1-.6-.2-1.1h2.3v.1Z"/>
      <path class="cls-4" d="M13.7,13.01c1.3,0,1.9.1,3.2.1.1-.7.2-1,.3-1.7h-2.7c-.3.6-.5,1-.8,1.6ZM16.9,11.71c0,.5-.1.7-.2,1.2h-2.6v-.2l.5-1h2.3Z"/>
      <path class="cls-18" d="M17.3,11.21h-2.9c-.4.8-.6,1.3-1,2.1,1,0,1.5.1,2.4.1h1.3c.1-.6.2-.9.3-1.6.1.6.2.9.3,1.6h1.3c1,0,1.5,0,2.4-.1-.4-.8-.6-1.2-1-2.1h-3.1ZM17.2,11.41c-.1.7-.2,1-.3,1.7-1.3,0-1.9,0-3.2-.1l.8-1.6c1.1,0,1.6,0,2.7,0ZM17.6,11.41h2.7c.3.6.5,1,.8,1.6-1.3,0-1.9.1-3.2.1-.1-.7-.2-1-.3-1.7Z"/>
      <path class="cls-9" d="M18.2,12.71h2.3c-.2-.4-.3-.5-.4-.9h-2.1c0,.4.1.6.2.9h0Z"/>
      <path class="cls-9" d="M16.6,12.71c0-.4.1-.6.2-.9h-2.1c-.2.4-.2.5-.4.9h2.3Z"/>
      <circle class="cls-12" cx="27.48" cy="34.3" r="2.13"/>
      <circle class="cls-12" cx="17.43" cy="35.52" r="2.13"/>
      <circle class="cls-12" cx="7.7" cy="34.69" r="2.13"/>
      <path class="cls-16" d="M8.43,33.74c.05,0,.1.01.15.02-.24-.34-.61-.57-1.05-.57-.72,0-1.31.58-1.31,1.31,0,.37.15.7.4.93.07-.94.85-1.68,1.81-1.68Z"/>
      <path class="cls-16" d="M18.22,34.55c.05,0,.1.01.15.02-.24-.34-.61-.57-1.05-.57-.72,0-1.31.58-1.31,1.31,0,.37.15.7.4.93.07-.94.85-1.68,1.81-1.68Z"/>
      <path class="cls-16" d="M28.15,33.43c.05,0,.1.01.15.02-.24-.34-.61-.57-1.05-.57-.72,0-1.31.58-1.31,1.31,0,.37.15.7.4.93.07-.94.85-1.68,1.81-1.68Z"/>
      <path class="cls-1" d="M15.26,26.45c.47.57,1.25.96,2.14.96.96,0,1.75-.45,2.2-1.09-.76.25-1.56.39-2.4.39-.67,0-1.32-.1-1.94-.26Z"/>
      <path class="cls-1" d="M10.29,22.3c-1.31-.1-2.4.57-2.59,1.61-.2,1.2.8,2.4,2.3,2.7,1.25.27,2.5-.35,2.75-1.34-1.05-.76-1.9-1.78-2.46-2.97Z"/>
      <path class="cls-1" d="M22,25.01s0,0,0,0c.1,1.2,1.3,2,2.8,1.7,1.5-.3,2.5-1.6,2.3-2.7-.2-1.2-1.4-1.8-2.8-1.6v.1c-.11.02-.22.05-.33.08-.49.93-1.16,1.76-1.97,2.41Z"/>
      <path class="cls-17" d="M20.02,9.69h-2.01c.16.44.26.75.43,1.2h2.04c.23.39.39.7.56,1.02.12.06.23.12.34.18-.43-.72-.82-1.41-1.36-2.4Z"/>
      <path class="cls-17" d="M14.29,10.98h1.96c.18-.55.22-.82.4-1.37h-2.05c-.47,1.14-.81,1.82-1.24,2.65.15-.09.31-.18.47-.26.14-.29.27-.6.46-1.02Z"/>
      <path class="cls-13" d="M9.58,18.92c-.24.34-.49.7-.78,1.09.32.06.6.12.86.17-.05-.36-.09-.72-.09-1.09,0-.06,0-.11,0-.17Z"/>
      <path class="cls-13" d="M24.73,20.22c.33-.06.67-.13,1.07-.21-.38-.53-.7-.99-1-1.43.01.17.03.33.03.51,0,.39-.04.77-.09,1.14Z"/>
      <path class="cls-3" d="M24.62,20.82c.05-.2.08-.4.11-.6-.84.15-1.55.24-2.63.39-3.8.4-5.8.4-9.6,0-1.18-.16-1.87-.25-2.84-.43.03.19.06.39.1.58,5.69,1.15,9.32,1.17,14.86.07Z"/>
      <path class="cls-10" d="M19.6,13.84c.17.44.33.73.5,1.17.99,0,1.49,0,2.4-.15-.37-.6-.66-1.08-.93-1.54-.1-.06-.2-.11-.31-.16.1.19.2.38.33.61-.83,0-1.24.07-1.99.07Z"/>
      <path class="cls-10" d="M14.11,14.81c.2-.44.26-.66.39-1.18-.62,0-.95,0-1.48-.06-.01.02-.02.04-.03.06l-.07-.07s.06,0,.09,0c.11-.25.2-.46.29-.66-.12.06-.23.13-.35.21-.22.46-.46.94-.76,1.55.79.07,1.18.15,1.91.15Z"/>
      <path class="cls-3" d="M13.4,13.21s.03-.06.04-.09c-.05,0-.09,0-.14-.01l.1.1Z"/>
      <path class="cls-10" d="M22.1,20.61c1.08-.14,1.8-.24,2.63-.39.06-.37.09-.75.09-1.14,0-.17-.01-.34-.03-.51-.7-1.05-1.25-1.96-2.1-3.37-1.2.1-1.8.2-3,.3h.1c-2,.1-2.9.1-4.9,0-1.2,0-1.8-.1-3-.3-.86,1.56-1.47,2.51-2.32,3.71,0,.06,0,.11,0,.17,0,.37.04.73.09,1.09.97.18,1.66.28,2.84.43,3.8.4,5.8.4,9.6,0Z"/>
      <path class="cls-8" d="M19,18.81c-.1-1.1-.2-1.7-.4-2.8h1c.3,1.1.4,1.7.6,2.8h-1.3.1Z"/>
      <path class="cls-9" d="M13.2,19.91c.3-1.1.4-1.6.8-2.7h-1.1c-.5,1.1-.7,1.6-1.1,2.7.5,0,.8.1,1.4.2v-.2Z"/>
      <path class="cls-9" d="M17.9,17.31h-1.1c0,1.1,0,1.7-.1,2.8h1.3c0-1.1,0-1.7-.1-2.8h0Z"/>
      <path class="cls-9" d="M20.8,17.21c.4,1.1.5,1.6.8,2.7.5,0,.8,0,1.4-.2-.4-1.1-.6-1.6-1.1-2.7h-1.1v.2Z"/>
      <path class="cls-9" d="M15.8,18.81c.1-1.1.2-1.7.4-2.8h-1c-.3,1.1-.4,1.7-.7,2.8h1.3Z"/>
      <path class="cls-9" d="M18.6,16.01c.2,1.1.2,1.7.4,2.8h1.3c-.2-1.1-.4-1.7-.6-2.8h-1.1Z"/>
      <path class="cls-14" d="M26.3,20.51h-.2c-.51.11-1,.21-1.48.31-.07.28-.15.55-.25.82,1.28,0,2.46.73,2.89,1.94.55,1.55-.35,3.29-2.01,3.88-1.66.59-3.45-.2-4-1.75-.02-.05-.02-.1-.04-.15-.32.2-.64.37-.99.52-.4,1.22-1.6,2.12-3.03,2.12s-2.64-.9-3.04-2.13c-.34-.15-.67-.32-.98-.51-.01.05-.02.1-.04.15-.55,1.55-2.34,2.34-4,1.75-1.66-.59-2.56-2.32-2.01-3.88.43-1.21,1.61-1.94,2.89-1.94-.1-.29-.2-.58-.26-.89-.38-.08-.76-.16-1.16-.24h-.2c-1.8,2.5-2.9,3.7-5,5.8,7.9,3.4,19.8,3.4,27.7,0h.2c-2.1-2.1-3.1-3.3-5-5.8Z"/>
      <path class="cls-7" d="M11.13,21.83c1.61.57,2.49,2.21,2.05,3.72.31.19.64.37.98.51-.09-.27-.15-.55-.15-.85,0-1.65,1.43-2.99,3.19-2.99s3.19,1.34,3.19,2.99c0,.3-.06.59-.15.87.34-.15.67-.33.99-.52-.44-1.52.44-3.16,2.05-3.73.37-.13.74-.18,1.11-.18.1-.27.18-.54.25-.82-5.53,1.11-9.17,1.08-14.86-.07.07.3.16.6.26.89.37,0,.74.05,1.11.18Z"/>
      <path class="cls-5" d="M7.7,24.13c-.19,1.1.75,2.21,2.14,2.48,1.17.25,2.33-.32,2.56-1.23.03-.11.05-.21.05-.33.09-1.1-.84-2.11-2.14-2.3v-.09c-.07,0-.13,0-.19-.01-1.22-.1-2.24.52-2.41,1.48Z"/>
      <path class="cls-7" d="M10,26.61c-1.5-.3-2.5-1.5-2.3-2.7.19-1.04,1.28-1.72,2.59-1.61-.1-.21-.18-.43-.26-.65-1.28,0-2.46.73-2.89,1.94-.55,1.55.35,3.29,2.01,3.88,1.66.59,3.45-.2,4-1.75.02-.05.02-.1.04-.15-.15-.09-.29-.18-.43-.28-.25.99-1.49,1.61-2.75,1.34Z"/>
      <path class="cls-10" d="M11.13,21.83c-.37-.13-.74-.18-1.11-.18.08.22.17.44.26.65.07,0,.14,0,.21.01v.1c1.4.2,2.4,1.3,2.3,2.5,0,.12-.02.24-.05.36.14.1.29.19.43.28.44-1.51-.44-3.16-2.05-3.72Z"/>
      <path class="cls-5" d="M19.39,26.42c.23-.33.36-.7.36-1.1,0-1.09-1.09-1.91-2.35-1.91s-2.35.82-2.35,1.91c-.04.44.13.87.42,1.22.42.51,1.13.87,1.93.87.87,0,1.58-.41,1.99-.99Z"/>
      <path class="cls-7" d="M17.4,27.41c-.89,0-1.67-.39-2.14-.96-.38-.1-.75-.23-1.1-.39.39,1.23,1.6,2.13,3.04,2.13s2.64-.9,3.03-2.12c-.21.09-.42.17-.63.24-.45.64-1.24,1.09-2.2,1.09Z"/>
      <path class="cls-10" d="M17.2,22.22c-1.76,0-3.19,1.34-3.19,2.99,0,.3.06.58.15.85.36.15.72.29,1.1.39-.32-.39-.5-.85-.46-1.34,0-1.2,1.2-2.1,2.6-2.1s2.6.9,2.6,2.1c0,.43-.15.85-.4,1.21.22-.07.43-.15.63-.24.09-.28.15-.56.15-.87,0-1.65-1.43-2.99-3.19-2.99Z"/>
      <path class="cls-5" d="M24.96,26.72c1.4-.27,2.33-1.45,2.15-2.45-.19-1.09-1.31-1.64-2.61-1.45v.09c-.11.02-.21.05-.31.07-1.06.29-1.83,1.2-1.83,2.19,0,0,0,0,0,0,.09,1.09,1.21,1.82,2.61,1.55Z"/>
      <path class="cls-7" d="M24.3,22.51v-.1c1.4-.2,2.6.4,2.8,1.6.2,1.1-.8,2.4-2.3,2.7-1.5.3-2.7-.5-2.8-1.7,0,0,0,0,0,0-.25.2-.51.38-.78.55.01.05.02.1.04.15.55,1.55,2.34,2.34,4,1.75,1.66-.59,2.56-2.32,2.01-3.88-.43-1.21-1.61-1.94-2.89-1.94-.12.33-.25.65-.41.95.11-.03.22-.06.33-.08Z"/>
      <path class="cls-10" d="M21.22,25.55c.27-.17.53-.35.78-.55,0-1.09.84-2.09,1.97-2.41.16-.3.29-.62.41-.95-.37,0-.74.05-1.11.18-1.61.57-2.49,2.21-2.05,3.73Z"/>
      <ellipse class="cls-12" cx="10.05" cy="24.79" rx="1.49" ry="1.59" transform="translate(-16.67 26.01) rotate(-70.54)"/>
      <ellipse class="cls-12" cx="17.37" cy="25.36" rx="1.59" ry="1.49"/>
      <ellipse class="cls-12" cx="24.65" cy="24.86" rx="1.59" ry="1.49" transform="translate(-6.88 9.63) rotate(-19.46)"/>
      <path class="cls-6" d="M11.11,25.36c0,.2,0,.3-.2.4.3-.2.6-.4.6-.8,0-.6-.5-1.2-1.3-1.4-.6-.1-1.1,0-1.4.5.3-.1.6-.2.9,0,.8.1,1.3.8,1.3,1.4l.1-.1Z"/>
      <path class="cls-6" d="M23.71,25.76c0-.1-.1-.3-.2-.4,0-.6.5-1.3,1.3-1.4h.9c-.3-.4-.8-.6-1.4-.5-.8.1-1.3.7-1.3,1.4,0,.4.3.6.6.8l.1.1Z"/>
      <path class="cls-6" d="M17.4,24.51c.7,0,1.2.4,1.4.9v-.2c0-.7-.7-1.2-1.4-1.2s-1.4.5-1.4,1.2v.2c.1-.5.7-.9,1.4-.9Z"/>
    </g>
  </g>
</svg>