<?xml version="1.0" encoding="UTF-8"?>
<svg id="Layer_2" data-name="Layer 2" xmlns="http://www.w3.org/2000/svg" viewBox="0 0 47.88 28.19" overflow="visible">
  <defs>
    <style>
      .cls-1 {
        fill: #2c451e;
        opacity: .9;
      }

      .cls-1, .cls-2, .cls-3 {
        isolation: isolate;
      }

      .cls-4 {
        fill: #5f4011;
      }

      .cls-5 {
        fill: #706f8b;
      }

      .cls-6, .cls-3 {
        fill: #231f20;
      }

      .cls-2 {
        fill: #6bc9ca;
        opacity: .5;
      }

      .cls-7 {
        fill: #606078;
      }

      .cls-8 {
        fill: #fbaa32;
      }

      .cls-9 {
        fill: #b0d237;
      }

      .cls-10 {
        fill: #6d8fb1;
      }

      .cls-11 {
        fill: #845b24;
      }

      .cls-12 {
        fill: #edef9f;
      }

      .cls-13 {
        fill: #242424;
      }

      .cls-14 {
        fill: #9593b8;
      }

      .cls-15 {
        fill: #47bda1;
        opacity: .3;
      }

      .cls-16 {
        fill: #787673;
      }

      .cls-17 {
        fill: #cc8d2a;
      }

      .cls-18 {
        fill: #417ec0;
      }

      .cls-19 {
        fill: #29abe2;
      }

      .cls-20 {
        fill: #0c0c0c;
      }

      .cls-21 {
        fill: #131313;
      }

      .cls-22 {
        fill: #febd30;
      }

      .cls-23 {
        fill: #b27c23;
      }

      .cls-24 {
        fill: #c8db75;
      }

      .cls-25 {
        fill: #81b9e5;
      }

      .cls-26 {
        fill: #333;
      }

      .cls-27 {
        fill: #e0e323;
      }

      .cls-28 {
        fill: #ffdc89;
      }

      .cls-29 {
        fill: #7b7b7b;
      }
    </style>
  </defs>
  <g id="Layer_1-2" data-name="Layer 1">
    <g>
      <g>
        <g>
          <path class="cls-6" d="M14.93,13.85c-.1-2.78-2.39-5.01-5.2-5.01s-5.21,2.34-5.21,5.21c0,.15.01.3.02.45-.01.16-.02.31-.02.47,0,2.88,2.35,5.23,5.23,5.23s5.23-2.35,5.23-5.23c0-.43-.02-.79-.05-1.11Z"/>
          <path class="cls-6" d="M43.15,13.85c-.1-2.78-2.39-5.01-5.2-5.01s-5.21,2.34-5.21,5.21c0,.15.01.3.02.45-.01.16-.02.31-.02.47,0,2.88,2.35,5.23,5.23,5.23s5.23-2.35,5.23-5.23c0-.43-.02-.79-.05-1.11Z"/>
          <circle class="cls-6" cx="9.69" cy="14.51" r="4.84"/>
          <circle class="cls-6" cx="37.99" cy="14.51" r="4.84"/>
          <g>
            <path class="cls-14" d="M9.62,9.68c-.69,0-1.34.15-1.94.41l-2.28,6.8c.83,1.47,2.41,2.47,4.22,2.47.46,0,.9-.07,1.32-.19l1.43-8.63c-.78-.54-1.73-.86-2.75-.86Z"/>
            <path class="cls-14" d="M41.75,17.42l-2.53-7.55c-.43-.12-.87-.19-1.34-.19-1.24,0-2.36.47-3.22,1.23l1.34,8.07c.58.24,1.21.38,1.88.38,1.58,0,2.99-.76,3.87-1.94Z"/>
          </g>
          <circle class="cls-6" cx="9.49" cy="15.6" r="4.84"/>
          <path class="cls-7" d="M9.49,11.06c-2.51,0-4.54,2.03-4.54,4.54s2.03,4.54,4.54,4.54,4.54-2.03,4.54-4.54-2.03-4.54-4.54-4.54ZM13.06,15.76c-.08,1.87-1.62,3.41-3.57,3.41s-3.49-1.54-3.57-3.41v-.16c0-1.95,1.62-3.57,3.57-3.57s3.57,1.62,3.57,3.57,0,.08,0,.16Z"/>
          <circle class="cls-6" cx="38.52" cy="15.6" r="4.84"/>
          <path class="cls-7" d="M38.52,11.06c-2.51,0-4.54,2.03-4.54,4.54s2.03,4.54,4.54,4.54,4.54-2.03,4.54-4.54-2.03-4.54-4.54-4.54ZM42.09,15.76c-.08,1.87-1.62,3.41-3.57,3.41s-3.49-1.54-3.57-3.41v-.16c0-1.95,1.62-3.57,3.57-3.57s3.57,1.62,3.57,3.57,0,.08,0,.16Z"/>
          <g>
            <path class="cls-5" d="M9.49,12.89c-1.5,0-2.71,1.21-2.71,2.71,0,.13.02.25.04.37.18-1.32,1.3-2.34,2.67-2.34s2.49,1.02,2.67,2.34c.02-.12.04-.25.04-.37,0-1.5-1.21-2.71-2.71-2.71Z"/>
            <path class="cls-5" d="M38.52,12.89c-1.5,0-2.71,1.21-2.71,2.71,0,.13.02.25.04.37.18-1.32,1.3-2.34,2.67-2.34s2.49,1.02,2.67,2.34c.02-.12.04-.25.04-.37,0-1.5-1.21-2.71-2.71-2.71Z"/>
            <path class="cls-14" d="M9.49,13.64c-1.37,0-2.49,1.02-2.67,2.34.18,1.32,1.3,2.34,2.67,2.34s2.49-1.02,2.67-2.34c-.18-1.32-1.3-2.34-2.67-2.34Z"/>
            <path class="cls-14" d="M38.52,13.64c-1.37,0-2.49,1.02-2.67,2.34.18,1.32,1.3,2.34,2.67,2.34s2.49-1.02,2.67-2.34c-.18-1.32-1.3-2.34-2.67-2.34Z"/>
          </g>
          <path class="cls-6" d="M38.76,16.68c-.81,0-1.46-.65-1.54-1.46v.16c0,.89.73,1.62,1.62,1.62s1.62-.73,1.62-1.62,0-.08,0-.16c-.08.81-.73,1.46-1.54,1.46h-.16Z"/>
          <path class="cls-21" d="M38.76,15.49s-.16,0-.16.16.24.16.24,0,0-.16-.16-.16h.08Z"/>
          <path class="cls-17" d="M38.76,13.71c-.65,0-1.14.49-1.14,1.14s.49,1.14,1.14,1.14,1.14-.49,1.14-1.14-.49-1.14-1.14-1.14ZM38.6,14.84s0-.16.16-.16.16,0,.16.16-.24.16-.24,0h-.08Z"/>
          <path class="cls-6" d="M9.41,16.68c-.81,0-1.46-.65-1.54-1.46v.16c0,.89.73,1.62,1.62,1.62s1.62-.73,1.62-1.62,0-.08,0-.16c-.08.81-.73,1.46-1.54,1.46h-.16Z"/>
          <path class="cls-21" d="M9.41,15.49s-.16,0-.16.16.24.16.24,0,0-.16-.16-.16h.08Z"/>
          <path class="cls-17" d="M9.41,13.71c-.65,0-1.14.49-1.14,1.14s.49,1.14,1.14,1.14,1.14-.49,1.14-1.14-.49-1.14-1.14-1.14ZM9.24,14.84s0-.16.16-.16.16,0,.16.16-.24.16-.24,0h-.08Z"/>
          <path class="cls-8" d="M38.76,14.08c-.65,0-1.14.49-1.14,1.14s.49,1.14,1.14,1.14,1.14-.49,1.14-1.14-.49-1.14-1.14-1.14ZM38.6,15.21s0-.16.16-.16.16,0,.16.16-.24.16-.24,0h-.08Z"/>
          <path class="cls-8" d="M9.41,14.08c-.65,0-1.14.49-1.14,1.14s.49,1.14,1.14,1.14,1.14-.49,1.14-1.14-.49-1.14-1.14-1.14ZM9.24,15.21s0-.16.16-.16.16,0,.16.16-.24.16-.24,0h-.08Z"/>
        </g>
        <path class="cls-3" d="M8.72,15.49c-.56-.52-.91-1.27-.91-2.14v-.96c0-1.64,1.23-2.88,2.86-2.88h.86v-.48c0-.75.38-1.42.95-1.82v-1.06c0-.54.17-1.07.48-1.52v-.68c0-1.64,1.23-2.88,2.86-2.88.91,0,1.69.38,2.2,1,.33-1.22,1.41-2.06,2.75-2.06h6.67c1.23,0,2.24.71,2.65,1.77.5-.45,1.17-.71,1.92-.71,1.63,0,2.86,1.24,2.86,2.88v.61c.3.45.48,1,.48,1.6v1.06c.58.4.95,1.07.95,1.82v.38h.86c1.63,0,2.86,1.24,2.86,2.88v.96c0,.86-.33,1.6-.88,2.12,1.18.88-10.84,3.74-10.84,3.74h-8.96s-12.01-2.48-10.62-3.62Z"/>
        <ellipse class="cls-15" cx="23.94" cy="23.44" rx="11.8" ry="4.49"/>
        <path class="cls-22" d="M29.24,9.29v1.8h5.7v-2.5c0-.1-.1-.3-.3-.3h-.7v1.3c0,.6-.4,1-1,1h-1c-.6,0-1-.4-1-1v-1.3h-2.5c.4.2.8.5.8,1Z"/>
        <path class="cls-22" d="M15.84,11.09h2.8v-1.8c0-.5.3-.8.8-1h-2.5v1.3c0,.6-.4,1-1,1h-1c-.6,0-1-.4-1-1v-1.3h-.7c-.1,0-.3.1-.3.3v2.5h2.9Z"/>
        <path class="cls-4" d="M32.44,17.49v-5c0-.1,0-.2.2-.2v-1c0-.1.1-.2.2-.2h-.9v2.5h0v2.2h-3.7c-.1.4-.5.7-.9.7h-7c-.4,0-.8-.3-.9-.7h-3.7v-2.1h0v-2.6h-.8s.2,0,.2.2v1.1c.1,0,.2.1.2.2v5c.4.5.7,1.1.9,1.7h.9v-2.2h13.4v2.2h1c.2-.6.5-1.2.9-1.7v-.1Z"/>
        <rect class="cls-17" x="18.64" y="13.29" width=".8" height=".3"/>
        <rect class="cls-17" x="28.44" y="13.29" width=".8" height=".3"/>
        <path class="cls-13" d="M10.54,20.29c0,.8.7,1.5,1.5,1.5s1.5-.7,1.5-1.5-.1-.7-.4-1h-2.1c-.3.3-.5.7-.5,1.1v-.1Z"/>
        <path class="cls-13" d="M35.84,21.79c.8,0,1.5-.7,1.5-1.5s-.1-.7-.4-1h-2.2c-.2.3-.4.6-.4,1,0,.8.7,1.5,1.5,1.5Z"/>
        <rect class="cls-8" x="15.84" y="11.09" width="2.8" height=".4"/>
        <rect class="cls-8" x="29.24" y="11.09" width="2.8" height=".4"/>
        <polygon class="cls-28" points="18.64 13.29 18.64 12.59 18.64 11.49 15.84 11.49 15.84 13.29 15.84 13.59 18.64 13.59 18.64 13.29"/>
        <polygon class="cls-28" points="29.24 12.59 29.24 13.29 29.24 13.59 32.04 13.59 32.04 13.29 32.04 11.49 29.24 11.49 29.24 12.59"/>
        <path class="cls-11" d="M28.44,14.39c0,.6-.4,1-1,1h-7c-.6,0-1-.4-1-1v1.4c.1.4.5.7.9.7h7c.4,0,.8-.3.9-.7v-1.4h.2Z"/>
        <path class="cls-23" d="M29.24,11.09v-1.8c0-.5-.3-.8-.8-1v4.2h.8v-1.5.1Z"/>
        <path class="cls-23" d="M18.64,12.59h.8v-4.2c-.4.1-.8.5-.8,1v3.3-.1Z"/>
        <path class="cls-8" d="M19.44,12.59h-.8v.7h.8v.3h-3.6v2.2h3.7v-1.4c0,.6.4,1,1,1h7c.6,0,1-.4,1-1v1.4h3.7v-2.1h0c0-.1-2.8-.1-2.8-.1h-.8v-.3h.8v-.7h-.8v-4.2h0V2.19c0-.6-.4-1-1-1h-.6c.6,0,1,.4,1,1v11.7c0,.6-.4,1-1,1h-5.8c-.6,0-1-.4-1-1V2.19c0-.6.4-1,1-1h-.6c-.6,0-1,.4-1,1v6.1h0v4.3h-.2Z"/>
        <path class="cls-28" d="M20.04,2.19v11.7c0,.6.4,1,1,1h5.8c.6,0,1-.4,1-1V2.19c0-.6-.4-1-1-1h-5.8c-.6,0-1,.4-1,1ZM26.94,12.29v1c0,.6-.4,1-1,1h-4c-.6,0-1-.4-1-1v-3.3c0-.6.4-1,1-1h4c.6,0,1,.4,1,1v2.3ZM20.94,4.09v-.8c0-.6.4-1,1-1h4c.6,0,1,.4,1,1v3.5c0,.6-.4,1-1,1h-4c-.6,0-1-.4-1-1v-2.7Z"/>
        <path class="cls-22" d="M21.94,3.09h4c.6,0,1,.4,1,1v-.8c0-.6-.4-1-1-1h-4c-.6,0-1,.4-1,1v.8c0-.6.4-1,1-1Z"/>
        <path class="cls-4" d="M21.94,3.09h4c.6,0,1,.4,1,1v-.8c0-.6-.4-1-1-1h-4c-.6,0-1,.4-1,1v.8c0-.6.4-1,1-1Z"/>
        <rect class="cls-22" x="20.94" y="3.09" width="6" height="4.7" rx="1" ry="1"/>
        <rect class="cls-1" x="20.94" y="3.09" width="6" height="4.7" rx="1" ry="1"/>
        <rect class="cls-23" x="20.94" y="3.09" width="6" height="4.7" rx="1" ry="1"/>
        <path class="cls-22" d="M25.94,13.29h-4c-.6,0-1-.4-1-1v1c0,.6.4,1,1,1h4c.6,0,1-.4,1-1v-1c0,.6-.4,1-1,1Z"/>
        <path class="cls-23" d="M25.94,13.29h-4c-.6,0-1-.4-1-1v1c0,.6.4,1,1,1h4c.6,0,1-.4,1-1v-1c0,.6-.4,1-1,1Z"/>
        <path class="cls-22" d="M21.94,9.39h4c.6,0,1,.4,1,1v-.4c0-.6-.4-1-1-1h-4c-.6,0-1,.4-1,1v.4c0-.6.4-1,1-1Z"/>
        <path class="cls-4" d="M21.94,9.39h4c.6,0,1,.4,1,1v-.4c0-.6-.4-1-1-1h-4c-.6,0-1,.4-1,1v.4c0-.6.4-1,1-1Z"/>
        <rect class="cls-22" x="20.94" y="9.39" width="6" height="3.9" rx="1" ry="1"/>
        <rect class="cls-1" x="20.94" y="9.39" width="6" height="3.9" rx="1" ry="1"/>
        <rect class="cls-8" x="20.94" y="9.39" width="6" height="3.9" rx="1" ry="1"/>
        <path class="cls-20" d="M14.44,12.29v-.5h-4.4c-.1,0-.2.1-.2.2v1c0,.1.1.2.2.2h.4c0-.6.4-1,1-1h3v.1Z"/>
        <path class="cls-26" d="M10.04,13.29c-.1,0-.2-.1-.2-.2v-1c0-.1.1-.2.2-.2h4.4v.5h.7v-1.1s0-.2-.2-.2h-4.9c-.6,0-1,.4-1,1v1c0,.6.4,1,1,1h.4v-.8h-.4Z"/>
        <path class="cls-20" d="M35.94,12.29h.5c.6,0,1,.4,1,1h.4c.1,0,.2-.1.2-.2v-1c0-.1-.1-.2-.2-.2h-4.4v.5h2.5v-.1Z"/>
        <path class="cls-26" d="M32.94,11.09c-.1,0-.2.1-.2.2v1h.7v-.5h4.4c.1,0,.2.1.2.2v1c0,.1-.1.2-.2.2h-.4v.8h.4c.6,0,1-.4,1-1v-1c0-.6-.4-1-1-1h-4.9v.1Z"/>
        <path class="cls-11" d="M10.44,17.49v.8c0,.4.2.7.6.9h4.1c.1,0,.3-.1.3-.3v-.2h-4.2c-.2,0-.3-.1-.3-.3s.1-.3.3-.3h4.2v-2.6c0,.1-.1.3-.3.3h-3.3c-.6,0-1-.4-1-1v-1.8c0-.6.4-1,1-1h-.4c-.6,0-1,.4-1,1h0v4.5Z"/>
        <path class="cls-11" d="M37.44,13.29c0-.6-.4-1-1-1h-.5c.6,0,1,.4,1,1v2.5c0,.1-.1.3-.3.3h-4.3v2.4s0-.1.1-.1h3.9c.2,0,.5.2.5.5s0,.1-.1.1h-4.4v.3h4.7c.1,0,.3-.1.3-.3v-5.7h.1Z"/>
        <path class="cls-22" d="M14.44,12.29h-2.6c-.6,0-1,.4-1,1v1.8c0,.6.4,1,1,1h3.3c.1,0,.3-.1.3-.3v-3.3c0-.1,0-.2-.2-.2h-.8Z"/>
        <path class="cls-22" d="M36.74,16.09c.1,0,.3-.1.3-.3v-2.5c0-.6-.4-1-1-1h-3.3c-.1,0-.2.1-.2.2v3.5h4.3l-.1.1Z"/>
        <path class="cls-17" d="M11.14,18.39c-.2,0-.3.1-.3.3s.1.3.3.3h4.2v-.4h-4.2v-.2Z"/>
        <path class="cls-17" d="M36.84,18.99s.1,0,.1-.1c0-.2-.2-.5-1.68-.5h-3.9s1.08,0,1.08.1v.5h4.4Z"/>
        <path class="cls-17" d="M15.69,18.61s.1,0,.1-.1c0-.2-.2-.5-.5-.5h-3.9s-.1,0-.1.1v.5h4.4Z"/>
        <path class="cls-16" d="M31.94,10.59h1c.6,0,1-.4,1-1v-4c0-.4-.2-.7-.5-.8v.5c0,.6-.4,1-1,1h0c-.6,0-1-.4-1-1v-.5c-.3.2-.5.5-.5.8v4c0,.6.4,1,1,1ZM31.34,6.19c.2.3.5.5.9.5h.4c.4,0,.7-.2.9-.5,0,.1.1.3.1.5v2.8c0,.6-.4,1-1,1h-.4c-.6,0-1-.4-1-1v-2.8c0-.2,0-.3.1-.5Z"/>
        <path class="cls-16" d="M14.94,10.59h1c.6,0,1-.4,1-1v-4c0-.4-.2-.7-.5-.8v.5c0,.6-.4,1-1,1h0c-.6,0-1-.4-1-1v-.5c-.3.2-.5.5-.5.8v4c0,.6.4,1,1,1ZM14.34,6.19c.2.3.5.5.9.5h.4c.4,0,.7-.2.9-.5,0,.1.1.3.1.5v2.8c0,.6-.4,1-1,1h-.4c-.6,0-1-.4-1-1v-2.8c0-.2,0-.3.1-.5Z"/>
        <path class="cls-10" d="M14.24,9.39c0,.6.4,1,1,1h.4c.6,0,1-.4,1-1v-2.8c0-.2,0-.3-.1-.5-.2.3-.5.5-.9.5h-.4c-.4,0-.7-.2-.9-.5,0,.1-.1.3-.1.5v2.8Z"/>
        <path class="cls-10" d="M31.24,9.39c0,.6.4,1,1,1h.4c.6,0,1-.4,1-1v-2.8c0-.2,0-.3-.1-.5-.2.3-.5.5-.9.5h-.4c-.4,0-.7-.2-.9-.5,0,.1-.1.3-.1.5v2.8Z"/>
        <path class="cls-19" d="M15.44,6.29h0c.6,0,1-.4,1-1v-2c0-.6-.4-1-1-1h0c-.6,0-1,.4-1,1v2c0,.6.4,1,1,1ZM15.44,3.89h0c.3,0,.6.3.6.6v.7c0,.3-.3.6-.6.6h0c-.3,0-.6-.3-.6-.6v-.7c0-.3.3-.6.6-.6Z"/>
        <path class="cls-19" d="M32.44,6.29h0c.6,0,1-.4,1-1v-2c0-.6-.4-1-1-1h0c-.6,0-1,.4-1,1v2c0,.6.4,1,1,1ZM32.44,3.89h0c.3,0,.6.3.6.6v.7c0,.3-.3.6-.6.6h0c-.3,0-.6-.3-.6-.6v-.7c0-.3.3-.6.6-.6Z"/>
        <rect class="cls-25" x="14.84" y="3.89" width="1.3" height="1.9" rx=".6" ry=".6"/>
        <rect class="cls-25" x="31.84" y="3.89" width="1.3" height="1.9" rx=".6" ry=".6"/>
        <path class="cls-2" d="M17.24,19.29v5c0,.2.2.4.4.4h.6c.2,0,.4-.2.4-.4v-7.3h-1.4v2.3h0ZM17.34,19.99c0-.2.2-.3.4-.3h.3c.2,0,.4.2.4.3v4.3c0,.2-.2.3-.4.3h-.3c-.2,0-.4-.2-.4-.3v-4.3Z"/>
        <path class="cls-9" d="M17.74,24.69h.3c.2,0,.4-.2.4-.3v-4.3c0-.2-.2-.3-.4-.3h-.3c-.2,0-.4.2-.4.3v4.3c0,.2.2.3.4.3ZM17.64,20.99c0-.1.1-.2.2-.2h.2c.1,0,.2.1.2.2v2.9c0,.1-.1.2-.2.2h-.2c-.1,0-.2-.1-.2-.2v-2.9Z"/>
        <path class="cls-27" d="M17.84,24.09h.2c.1,0,.2-.1.2-.2v-2.9c0-.1-.1-.2-.2-.2h-.2c-.1,0-.2.1-.2.2v2.9c0,.1.1.2.2.2ZM17.74,22.19s0-.1.1-.1h0s.1,0,.1.1v1.6s0,.1-.1.1h0s-.1,0-.1-.1v-1.6Z"/>
        <rect class="cls-12" x="17.74" y="21.99" width=".3" height="1.8" rx=".1" ry=".1"/>
        <path class="cls-2" d="M29.14,16.99v7.3c0,.2.2.4.4.4h.6c.2,0,.4-.2.4-.4v-7.3h-1.4ZM30.44,24.29c0,.2-.2.3-.4.3h-.3c-.2,0-.4-.2-.4-.3v-4.3c0-.2.2-.3.4-.3h.3c.2,0,.4.2.4.3v4.3Z"/>
        <path class="cls-9" d="M30.04,19.69h-.3c-.2,0-.4.2-.4.3v4.3c0,.2.2.3.4.3h.3c.2,0,.4-.2.4-.3v-4.3c0-.2-.2-.3-.4-.3ZM30.14,23.89c0,.1-.1.2-.2.2h-.2c-.1,0-.2-.1-.2-.2v-2.9c0-.1.1-.2.2-.2h.2c.1,0,.2.1.2.2v2.9Z"/>
        <path class="cls-27" d="M29.94,20.79h-.2c-.1,0-.2.1-.2.2v2.9c0,.1.1.2.2.2h.2c.1,0,.2-.1.2-.2v-2.9c0-.1-.1-.2-.2-.2ZM30.04,23.69s0,.1-.1.1h0s-.1,0-.1-.1v-1.6s0-.1.1-.1h0s.1,0,.1.1v1.6Z"/>
        <rect class="cls-12" x="29.74" y="21.99" width=".3" height="1.8" rx=".1" ry=".1"/>
        <path class="cls-2" d="M24.04,24.29c0,.2.2.4.4.4h.6c.2,0,.4-.2.4-.4v-7.3h-1.4v7.3ZM24.24,19.39c0-.2.2-.4.4-.4h.3c.2,0,.4.2.4.4v4.9c0,.2-.2.4-.4.4h-.3c-.2,0-.4-.2-.4-.4v-4.9Z"/>
        <path class="cls-9" d="M24.64,24.69h.3c.2,0,.4-.2.4-.4v-4.9c0-.2-.2-.4-.4-.4h-.3c-.2,0-.4.2-.4.4v4.9c0,.2.2.4.4.4ZM24.44,20.99c0-.1.1-.2.2-.2h.2c.1,0,.2.1.2.2v2.9c0,.1-.1.2-.2.2h-.2c-.1,0-.2-.1-.2-.2v-2.9Z"/>
        <path class="cls-27" d="M24.74,24.09h.2c.1,0,.2-.1.2-.2v-2.9c0-.1-.1-.2-.2-.2h-.2c-.1,0-.2.1-.2.2v2.9c0,.1.1.2.2.2ZM24.64,22.19s0-.1.1-.1h0s.1,0,.1.1v1.6s0,.1-.1.1h0s-.1,0-.1-.1v-1.6Z"/>
        <rect class="cls-12" x="24.64" y="21.99" width=".3" height="1.8" rx=".1" ry=".1"/>
        <path class="cls-2" d="M22.24,24.29c0,.2.2.4.4.4h.6c.2,0,.4-.2.4-.4v-7.3h-1.4v7.3ZM22.44,19.39c0-.2.2-.4.4-.4h.3c.2,0,.4.2.4.4v4.9c0,.2-.2.4-.4.4h-.3c-.2,0-.4-.2-.4-.4v-4.9Z"/>
        <path class="cls-9" d="M22.84,24.69h.3c.2,0,.4-.2.4-.4v-4.9c0-.2-.2-.4-.4-.4h-.3c-.2,0-.4.2-.4.4v4.9c0,.2.2.4.4.4ZM22.74,20.99c0-.1.1-.2.2-.2h.2c.1,0,.2.1.2.2v2.9c0,.1-.1.2-.2.2h-.2c-.1,0-.2-.1-.2-.2v-2.9Z"/>
        <path class="cls-27" d="M22.94,24.09h.2c.1,0,.2-.1.2-.2v-2.9c0-.1-.1-.2-.2-.2h-.2c-.1,0-.2.1-.2.2v2.9c0,.1.1.2.2.2ZM22.84,22.19s0-.1.1-.1h0s.1,0,.1.1v1.6s0,.1-.1.1h0s-.1,0-.1-.1v-1.6Z"/>
        <rect class="cls-12" x="22.84" y="21.99" width=".3" height="1.8" rx=".1" ry=".1"/>
        <path class="cls-2" d="M19.44,24.29c0,.2.2.4.4.4h.6c.2,0,.4-.2.4-.4v-7.3h-1.4v7.3ZM19.64,18.79c0-.2.2-.4.4-.4h.3c.2,0,.4.2.4.4v5.4c0,.2-.2.4-.4.4h-.3c-.2,0-.4-.2-.4-.4v-5.4Z"/>
        <path class="cls-9" d="M20.04,24.69h.3c.2,0,.4-.2.4-.4v-5.4c0-.2-.2-.4-.4-.4h-.3c-.2,0-.4.2-.4.4v5.4c0,.2.2.4.4.4ZM19.84,20.99c0-.1.1-.2.2-.2h.2c.1,0,.2.1.2.2v2.9c0,.1-.1.2-.2.2h-.2c-.1,0-.2-.1-.2-.2v-2.9Z"/>
        <path class="cls-27" d="M20.14,24.09h.2c.1,0,.2-.1.2-.2v-2.9c0-.1-.1-.2-.2-.2h-.2c-.1,0-.2.1-.2.2v2.9c0,.1.1.2.2.2ZM20.04,22.19s0-.1.1-.1h0s.1,0,.1.1v1.6s0,.1-.1.1h0s-.1,0-.1-.1v-1.6Z"/>
        <rect class="cls-12" x="20.04" y="21.99" width=".3" height="1.8" rx=".1" ry=".1"/>
        <path class="cls-2" d="M26.94,24.29c0,.2.2.4.4.4h.6c.2,0,.4-.2.4-.4v-7.3h-1.4v7.3ZM27.04,18.79c0-.2.2-.4.4-.4h.3c.2,0,.4.2.4.4v5.4c0,.2-.2.4-.4.4h-.3c-.2,0-.4-.2-.4-.4v-5.4Z"/>
        <path class="cls-9" d="M27.44,24.69h.3c.2,0,.4-.2.4-.4v-5.4c0-.2-.2-.4-.4-.4h-.3c-.2,0-.4.2-.4.4v5.4c0,.2.2.4.4.4ZM27.34,20.99c0-.1.1-.2.2-.2h.2c.1,0,.2.1.2.2v2.9c0,.1-.1.2-.2.2h-.2c-.1,0-.2-.1-.2-.2v-2.9Z"/>
        <path class="cls-27" d="M27.54,24.09h.2c.1,0,.2-.1.2-.2v-2.9c0-.1-.1-.2-.2-.2h-.2c-.1,0-.2.1-.2.2v2.9c0,.1.1.2.2.2ZM27.44,22.19s0-.1.1-.1h0s.1,0,.1.1v1.6s0,.1-.1.1h0s-.1,0-.1-.1v-1.6Z"/>
        <rect class="cls-12" x="27.44" y="21.99" width=".3" height="1.8" rx=".1" ry=".1"/>
        <g>
          <path class="cls-6" d="M12.83,20.07c-.13-3.43-2.95-6.18-6.41-6.18S0,16.77,0,20.31c0,.19.01.37.03.55-.02.19-.03.38-.03.58,0,3.56,2.89,6.45,6.45,6.45s6.45-2.89,6.45-6.45c0-.53-.02-.97-.06-1.36Z"/>
          <path class="cls-6" d="M47.63,20.07c-.13-3.43-2.95-6.18-6.41-6.18s-6.42,2.88-6.42,6.42c0,.19.01.37.03.55-.02.19-.03.38-.03.58,0,3.56,2.89,6.45,6.45,6.45s6.45-2.89,6.45-6.45c0-.53-.02-.97-.06-1.36Z"/>
          <circle class="cls-6" cx="6.37" cy="20.88" r="5.97"/>
          <circle class="cls-6" cx="41.27" cy="20.88" r="5.97"/>
          <g>
            <path class="cls-14" d="M6.28,14.92c-.85,0-1.66.18-2.39.5l-2.81,8.39c1.02,1.82,2.97,3.05,5.2,3.05.57,0,1.11-.08,1.63-.23l1.76-10.64c-.96-.67-2.13-1.06-3.39-1.06Z"/>
            <path class="cls-14" d="M45.91,24.47l-3.12-9.3c-.53-.15-1.08-.24-1.65-.24-1.53,0-2.91.58-3.97,1.52l1.65,9.95c.71.3,1.5.47,2.32.47,1.95,0,3.68-.94,4.77-2.39Z"/>
          </g>
          <circle class="cls-6" cx="6.12" cy="22.22" r="5.97"/>
          <path class="cls-7" d="M6.12,16.62c-3.1,0-5.6,2.5-5.6,5.6s2.5,5.6,5.6,5.6,5.6-2.5,5.6-5.6-2.5-5.6-5.6-5.6ZM10.52,22.42c-.1,2.3-2,4.2-4.4,4.2s-4.3-1.9-4.4-4.2v-.2c0-2.4,2-4.4,4.4-4.4s4.4,2,4.4,4.4,0,.1,0,.2Z"/>
          <circle class="cls-6" cx="41.92" cy="22.22" r="5.97"/>
          <path class="cls-7" d="M41.92,16.62c-3.1,0-5.6,2.5-5.6,5.6s2.5,5.6,5.6,5.6,5.6-2.5,5.6-5.6-2.5-5.6-5.6-5.6ZM46.32,22.42c-.1,2.3-2,4.2-4.4,4.2s-4.3-1.9-4.4-4.2v-.2c0-2.4,2-4.4,4.4-4.4s4.4,2,4.4,4.4,0,.1,0,.2Z"/>
          <g>
            <path class="cls-4" d="M6.12,18.88c-1.85,0-3.34,1.5-3.34,3.34,0,.16.03.31.05.46.23-1.63,1.61-2.88,3.3-2.88s3.07,1.26,3.3,2.88c.02-.15.05-.3.05-.46,0-1.85-1.5-3.34-3.34-3.34Z"/>
            <path class="cls-4" d="M41.92,18.88c-1.85,0-3.34,1.5-3.34,3.34,0,.16.03.31.05.46.23-1.63,1.61-2.88,3.3-2.88s3.07,1.26,3.3,2.88c.02-.15.05-.3.05-.46,0-1.85-1.5-3.34-3.34-3.34Z"/>
            <path class="cls-10" d="M6.12,19.8c-1.69,0-3.07,1.26-3.3,2.88.23,1.63,1.61,2.88,3.3,2.88s3.07-1.26,3.3-2.88c-.23-1.63-1.61-2.88-3.3-2.88Z"/>
            <path class="cls-10" d="M41.92,19.8c-1.69,0-3.07,1.26-3.3,2.88.23,1.63,1.61,2.88,3.3,2.88s3.07-1.26,3.3-2.88c-.23-1.63-1.61-2.88-3.3-2.88Z"/>
          </g>
          <path class="cls-6" d="M42.22,23.55c-1,0-1.8-.8-1.9-1.8v.2c0,1.1.9,2,2,2s2-.9,2-2,0-.1,0-.2c-.1,1-.9,1.8-1.9,1.8h-.2Z"/>
          <path class="cls-21" d="M42.22,22.09s-.2,0-.2.2.3.2.3,0,0-.2-.2-.2h.1Z"/>
          <path class="cls-17" d="M42.22,19.89c-.8,0-1.4.6-1.4,1.4s.6,1.4,1.4,1.4,1.4-.6,1.4-1.4-.6-1.4-1.4-1.4ZM42.02,21.29s0-.2.2-.2.2,0,.2.2-.3.2-.3,0h-.1Z"/>
          <path class="cls-6" d="M6.02,23.55c-1,0-1.8-.8-1.9-1.8v.2c0,1.1.9,2,2,2s2-.9,2-2,0-.1,0-.2c-.1,1-.9,1.8-1.9,1.8h-.2Z"/>
          <path class="cls-21" d="M6.02,22.09s-.2,0-.2.2.3.2.3,0,0-.2-.2-.2h.1Z"/>
          <path class="cls-17" d="M6.02,19.89c-.8,0-1.4.6-1.4,1.4s.6,1.4,1.4,1.4,1.4-.6,1.4-1.4-.6-1.4-1.4-1.4ZM5.82,21.29s0-.2.2-.2.2,0,.2.2-.3.2-.3,0h-.1Z"/>
          <path class="cls-8" d="M42.22,20.35c-.8,0-1.4.6-1.4,1.4s.6,1.4,1.4,1.4,1.4-.6,1.4-1.4-.6-1.4-1.4-1.4ZM42.02,21.75s0-.2.2-.2.2,0,.2.2-.3.2-.3,0h-.1Z"/>
          <path class="cls-8" d="M6.02,20.35c-.8,0-1.4.6-1.4,1.4s.6,1.4,1.4,1.4,1.4-.6,1.4-1.4-.6-1.4-1.4-1.4ZM5.82,21.75s0-.2.2-.2.2,0,.2.2-.3.2-.3,0h-.1Z"/>
        </g>
      </g>
      <path class="cls-29" d="M23.48,13.85c-.35-.14-.58-.33-.7-.58l-.1-.21.54-.91-.5-.73-.72-.03.07-.52c.05-.2.14-.38.22-.54l.12-.25h.54s.36-.65.36-.65l.12-.06c.17-.09.36-.09.47-.09.32,0,.67.12,1.01.34l.34.23-.53.97.46.78h.69v.45c0,.25-.08.45-.15.63l-.03.07-.1.22-.31.06h-.88l-.56.99-.36-.15Z"/>
      <path class="cls-18" d="M25.28,12.57c.08-.19.15-.34.15-.53h-.49l-.72-1.21.46-.84c-.23-.15-.49-.27-.76-.27-.08,0-.19,0-.27.04l-.42.76h-.53c-.08.15-.15.3-.19.46h.46l.8,1.16-.57.95c.08.17.27.28.46.36l.49-.87h1.14Z"/>
      <g>
        <path class="cls-9" d="M21.39,6.45c0,.55.45,1,1,1h3.27c.29,0,.54-.12.72-.31-1.86-.45-3.56-1.29-4.99-2.46v1.77Z"/>
        <path class="cls-24" d="M26.66,4.84c-1.23-.52-2.36-1.23-3.36-2.09h-.91c-.55,0-1,.45-1,1v.93c1.44,1.17,3.14,2.01,4.99,2.46.17-.18.28-.42.28-.69v-1.61Z"/>
        <path class="cls-9" d="M26.66,3.75c0-.55-.45-1-1-1h-2.36c1,.86,2.13,1.57,3.36,2.09v-1.09Z"/>
      </g>
    </g>
  </g>
</svg>