<?xml version="1.0" encoding="UTF-8"?>
<svg id="Layer_2" data-name="Layer 2" xmlns="http://www.w3.org/2000/svg" viewBox="0 0 49.41 60.61">
  <defs>
    <style>
      .cls-1 {
        fill: #010101;
      }

      .cls-2 {
        fill: #00b06d;
      }

      .cls-3 {
        fill: #231f20;
      }

      .cls-4 {
        fill: #b0d237;
      }

      .cls-5 {
        opacity: .3;
      }

      .cls-5, .cls-6 {
        fill: #47bda1;
      }

      .cls-7 {
        fill: #ed66a4;
      }

      .cls-8 {
        fill: #e9008a;
      }

      .cls-9 {
        fill: #8bd7f8;
      }

      .cls-10 {
        fill: #ec5fa1;
      }

      .cls-11 {
        fill: #eb3993;
      }

      .cls-12 {
        fill: #fff200;
      }

      .cls-13 {
        fill: #83004c;
      }
    </style>
  </defs>
  <g id="Layer_1-2" data-name="Layer 1">
    <g>
      <circle class="cls-5" cx="7.96" cy="7.96" r="7.96"/>
      <circle class="cls-5" cx="35.86" cy="9.04" r="7.96"/>
      <circle class="cls-5" cx="41.44" cy="42.5" r="7.96"/>
      <circle class="cls-5" cx="17.81" cy="52.65" r="7.96"/>
      <g>
        <path class="cls-3" d="M17.28,56.55l-.09-.02c-2.47-.45-4.06-2.68-3.62-5.08.29-1.56,1.32-2.8,2.71-3.33l.53-4.47c-2.23-1.7-3.92-4.12-4.8-6.9-2.08-2.23-3.36-5.34-3.37-8.18,0-2.81,1.83-5.67,4.75-7.52l-.87-1.26c-1.95-2.84-3.66-5.32-5.01-7.33-2.3-.15-4.12-2.07-4.12-4.4s1.98-4.41,4.41-4.41,4.41,1.98,4.41,4.41c0,.62-.12,1.21-.34,1.73,1.81,2.67,3.79,5.62,6.06,9.08.13-.03.27-.04.43-.05.32-.06.64-.09.96-.09.88,0,1.77.21,2.71.65.1-.02.2-.03.3-.03.16,0,.33-.01.5-.01.77,0,1.67.07,2.65.21,2.26-3.26,4.15-6.02,5.62-8.17-.23-.42-.24-.99-.24-1.88,0-2.43,1.98-4.41,4.41-4.41s4.41,1.98,4.41,4.41-1.83,4.26-4.13,4.4l-.22.32c-1.17,1.73-2.56,3.77-4.24,6.2.56.21,1.12.49,1.65.83,3.47,1.97,5.82,6.33,5.31,9.91-.1.87-.54,2.01-1.3,3.36l-.04.07c-.12.23-.25.46-.38.68l-1.03,1.82s0,.02.01.03l2.54,1.75c.11.06.22.12.33.18.59-.55,1.31-1,2.31-1.03l.22-.04h.08c2.43,0,4.41,1.98,4.41,4.41s-2.33,4.41-4.41,4.41c-1.89,0-3.59-1.21-4.18-2.93l-1.36-.91c-.85,2.56-2.6,5.65-3.8,5.65h-.62l-.32-.58c-.46-.93-.9-1.69-1.32-2.31.15.81.37,1.52.64,2.12l.49,1.05-1.11.33s-.99.29-2.19.29c-.15,0-.29,0-.45-.01h-.08s-.08-.02-.08-.02c-1.69-.38-2.75-.8-4.07-1.73l-.6,2.27c.5.81.68,1.82.5,2.82-.12,1.18-.76,2.21-1.8,2.91-.91.52-1.73.76-2.52.76h-.69Z"/>
        <path class="cls-13" d="M34.73,37.89c-.17-.43-.34-.85-.6-1.28,1.45-1.53,2.56-3.5,2.81-5.54.51-3.92-2.64-9.29-7.33-10.14,2.3-3.32,4.09-5.97,5.54-8.1h.26c1.88,0,3.41-1.53,3.41-3.41s-1.53-3.41-3.41-3.41-3.41,1.53-3.41,3.41.17,1.28.51,1.79c-1.62,2.39-3.84,5.63-6.56,9.55-1.19-.34-2.47-.51-3.75-.34-1.11-.6-2.3-.94-3.58-.68-.34,0-.6.09-.94.26-2.73-4.18-5.03-7.59-6.82-10.23.34-.51.51-1.11.51-1.79,0-1.88-1.53-3.41-3.41-3.41s-3.41,1.53-3.41,3.41,1.53,3.41,3.41,3.41.17,0,.26,0c1.71,2.56,4.01,5.88,6.82,9.97-2.3,1.62-4.09,4.26-4.43,6.99-.34,2.22.6,4.86,2.22,6.99.77,3.32,2.73,6.05,5.2,7.76l-.68,5.71c-1.36.26-2.39,1.36-2.64,2.73-.34,1.88.94,3.58,2.81,3.92h.6c.68,0,1.36-.26,1.96-.6.77-.51,1.28-1.28,1.36-2.22.17-.85,0-1.79-.6-2.47h0l1.11-4.18c1.79,1.45,2.78,1.99,4.87,2.45,1.25.07,2.29-.24,2.29-.24-.6-1.28-.85-2.81-.94-4.18.26-.17.51-.26.77-.43.77.68,1.62,1.88,2.64,3.92.17.34,2.56-2.81,3.24-6.22l2.81,1.88c.34,1.45,1.71,2.56,3.32,2.56s3.41-1.53,3.41-3.41-1.53-3.41-3.41-3.41l-.22.03c-1.02,0-1.66.65-2.34,1.41l1.02.68c.43-.43-4.43-2.47-4.69-3.15ZM7.96,10.1c-1.19,0-2.13-.94-2.13-2.13s.94-2.13,2.13-2.13,2.13.94,2.13,2.13-.94,2.13-2.13,2.13ZM20.16,52.55c-.17,1.19-1.28,1.96-2.47,1.71-1.19-.17-1.96-1.28-1.71-2.47.17-1.19,1.28-1.96,2.47-1.71,1.19.17,1.96,1.28,1.71,2.47Z"/>
        <path class="cls-6" d="M41.6,42.89c-.19.53-.93,1.04-.93,1.04,1.38.61,2.9-.45,2.9-1.65s-.94-2.13-2.13-2.13-1.19.26-1.53.68l1.11.77c.43.26.79.69.58,1.29Z"/>
        <path class="cls-12" d="M35.68,40.27l4.13,2.91c.15.08.31.16.46.16s0,0,0,0c.23,0,.46-.16.61-.32.23-.4.15-.89-.23-1.13l-1-.73-.92-.65-3.29-2.27c.15.65.23,2.02.23,2.02Z"/>
        <path class="cls-6" d="M35.94,10.78c.04.22.27.34.47.24.81-.39,1.58-1.24,1.58-2.12,0-1.3-1.52-2.74-3.15-1.86-.67.36-1.11,1.09-1.11,1.85s.56.45,1.11.27c.4-.13.83.13.9.55l.19,1.07Z"/>
        <path class="cls-12" d="M35.26,10.88h0c.23-.3.15-.74-.15-.89-.31-.22-.77-.15-.92.15,0,.07-.15.22-.23.3-1.46,2.16-3.69,5.29-6.46,9.23.15,0,1.05.36,1.51.36,0,0,4.8-7.13,6.26-9.14Z"/>
        <path class="cls-12" d="M16.56,19.44c-2.73-4.01-4.33-6.53-6.12-9.17-.34.34-.77.68-1.28.85,1.79,2.56,3.4,5.08,6.04,9,.43-.26.94-.51,1.36-.68Z"/>
        <circle class="cls-6" cx="7.96" cy="7.96" r="2.13"/>
        <path class="cls-9" d="M8.57,6.98s.09.01.14.01c-.21-.3-.55-.52-.95-.52-.65,0-1.18.53-1.18,1.18,0,.33.14.63.36.84.06-.85.76-1.52,1.63-1.52Z"/>
        <path class="cls-9" d="M36.37,7.46s.09.01.14.01c-.21-.3-.55-.52-.95-.52-.65,0-1.18.53-1.18,1.18,0,.33.14.63.36.84.06-.85.76-1.52,1.63-1.52Z"/>
        <path class="cls-12" d="M21.54,40.18c-.33-.08-.73,0-.9.42,0,0,0,.08-.08.17l-2.2,8.05h.24c.49,0,.9.25,1.3.5l2.2-8.14v-.58c-.08-.25-.24-.42-.49-.42h-.08Z"/>
        <path class="cls-6" d="M18.45,50.08c-1.19-.17-2.3.6-2.47,1.71-.17,1.19.6,2.3,1.71,2.47,1.19.17,2.3-.6,2.47-1.71.17-1.19-.6-2.3-1.71-2.47Z"/>
        <path class="cls-8" d="M22.53,20.26c-2.54.12,2.73,5.09,3.13,8.61v.09c.5,5.17-2.79,10.53-7.77,9.68-.03,0-.07-.01-.1-.02-1.66-.3-1.99,1.29-.46,2.03.57.27.98.56,1.25.78.21.17.5.1.62-.15.14-.29.34-.7.61-1.19.34-.63,2.09-.9,2.73-.6.05.02.1.05.15.07.77.36,1.19,1.22,1.02,2.08l-1.27,1.34s0,.02,0,.03l-.03.11c-.21.8.06,1.65.68,2.16.69.56,1.33,1.07,1.83,1.48.61.49,1.32.85,2.07,1.04.49.13,1,.24,1.25.24.07,0,.12-.07.1-.14-.35-1.21-1.94-4.86-2.45-6.03-.09-.21-.02-.45.18-.56.85-.48,3.06-1.75,3.79-2.27,1.69-1.21,3.02-2.4,3.74-3.04.85-.75,1.81-1.74,1.81-2.36,0-3.8-2.1-10.43-5.62-12.1-1.27-.6-4.86-1.38-7.24-1.27Z"/>
        <g>
          <path class="cls-10" d="M24.41,43.8c.06.05.12.1.18.15-.03-.08-.07-.16-.1-.24l-.08.09Z"/>
          <path class="cls-7" d="M28.92,23.34c-.33-.15-.92-.34-1.64-.51,2.53,2.12,4.58,7.76,4.7,11.88-.03.04-.07.09-.11.14.1-.09.21-.18.29-.26l.09-.08c.69-.61,1-.99,1.13-1.17-.11-3.67-2.13-8.88-4.47-9.99Z"/>
          <path class="cls-10" d="M20.78,47.76c.08.06.15.12.23.19-.04-.1-.08-.2-.13-.29l-.1.11Z"/>
          <path class="cls-11" d="M27.28,22.82c-.75-.18-1.63-.35-2.5-.45.07.12.14.23.21.34,1.14,1.82,2.42,3.89,2.66,5.94v.23c.32,3.43-.75,6.85-2.85,9.16-.11.12-.22.23-.33.34.34.3.62.67.82,1.06,1.68-.96,2.96-1.73,3.38-2.03,1.36-.97,2.45-1.92,3.19-2.57.04-.05.08-.1.11-.14-.12-4.11-2.17-9.76-4.7-11.88Z"/>
        </g>
        <path class="cls-2" d="M35.98,31.18c.1.93.05,1.84.05,2.77.52-.93,1.07-2.08,1.18-3.01.52-3.71-2.51-8.75-7.02-9.78,2.93,2.26,5.13,5.77,5.76,9.88l.03.13Z"/>
        <path class="cls-12" d="M31.19,21.64c3.59,2.44,5.75,6.98,5.25,10.53-.05.47-.16.96-.3,1.45,0,.11-.11.21-.11.32.52-.93.96-1.96,1.06-2.88.48-3.39-2.03-7.89-5.91-9.42Z"/>
        <path class="cls-8" d="M31.83,47.24c.98-1.14,4.41-5.62,2.31-10.63,0,0-.45,3.65-3.84,5.01,0,0,2.01.32,1.33,5.52-.02.12.12.19.2.1Z"/>
        <path class="cls-8" d="M31.83,47.24c.98-1.14,4.41-5.62,2.31-10.63,0,0-.45,3.65-3.84,5.01,0,0,2.01.32,1.33,5.52-.02.12.12.19.2.1Z"/>
        <path class="cls-7" d="M32.72,44.13c-.11-1.06-.37-1.8-.69-2.31.76-.53,1.34-1.15,1.77-1.79-.02,1.55-.51,2.97-1.09,4.1Z"/>
        <path class="cls-3" d="M19.02,38.83c-.37,0-.75-.04-1.13-.09-4.93-.74-8.09-6.09-8.1-10.27,0-3.98,4.27-7.59,8.11-8.16.3-.05.63-.08.95-.08,3.74,0,6.88,3.59,7.46,8.54v.06s0,.06,0,.06c.28,2.85-.6,5.73-2.37,7.67-1.35,1.49-3.05,2.27-4.93,2.27h0Z"/>
        <g>
          <path class="cls-4" d="M25.33,28.88c-.56-4.77-3.73-8.18-7.27-7.59-3.45.51-6.71,3.84-7.27,7.33-.56,3.5,2.61,8.35,7.27,9.12s7.74-4.09,7.27-8.78v-.09Z"/>
          <path class="cls-12" d="M24.79,29.37v-.12c-.32-2.61-1.51-4.77-3.07-5.9.85,1.17,1.45,2.72,1.67,4.47v.12c.23,2.28-.48,4.63-1.85,6.15-.67.74-1.81,1.61-3.45,1.61h0c-.26,0-.53-.02-.8-.07-1.3-.21-2.47-.8-3.46-1.59,1.16,1.49,2.87,2.69,4.86,3.02.27.04.54.07.8.07h0c1.64,0,2.79-.88,3.45-1.61,1.37-1.52,2.08-3.87,1.86-6.15Z"/>
          <g>
            <path class="cls-12" d="M13.18,30.09c.49-3.08,3.44-6.06,6.43-6.5.23-.04.45-.06.66-.06.85,0,1.67.3,2.4.82-1.01-1.39-2.36-2.25-3.8-2.25-.21,0-.43.02-.66.06-2.99.44-5.94,3.42-6.43,6.5-.33,2.06.9,4.7,2.99,6.38-1.21-1.55-1.83-3.41-1.59-4.96Z"/>
            <path class="cls-2" d="M24.33,28.95v-.12c-.22-1.75-.82-3.3-1.67-4.47-.07-.05-.14-.08-.21-.13.6,1.06,1.04,2.32,1.21,3.73v.12c.23,2.28-.48,4.63-1.85,6.15-.67.74-1.81,1.61-3.45,1.61h0c-.26,0-.53-.02-.8-.07-1.24-.2-2.36-.75-3.32-1.49.16.26.33.52.53.76.98.79,2.16,1.38,3.46,1.59.27.04.54.07.8.07h0c1.64,0,2.79-.88,3.45-1.61,1.37-1.52,2.08-3.87,1.86-6.15Z"/>
          </g>
        </g>
        <circle class="cls-4" cx="30.65" cy="25.67" r=".51"/>
        <circle class="cls-4" cx="29.45" cy="23.79" r=".26"/>
        <path class="cls-4" d="M31.33,33.26c-.34,0-.51.26-.51.51s.26.51.51.51.51-.26.51-.51-.26-.51-.51-.51Z"/>
        <path class="cls-4" d="M31.33,28.91c.68,0,1.28-.26,1.28-.68s-.6-.68-1.28-.68-1.28.26-1.28.68.6.68,1.28.68Z"/>
        <path class="cls-4" d="M33.97,31.04c0-.6-.85-1.02-1.96-1.02s-1.96.43-1.96,1.02.85,1.02,1.96,1.02,1.96-.43,1.96-1.02Z"/>
        <g>
          <path class="cls-1" d="M35.78,24.36h-.4c-.17.34-.34.68-.43,1.02h1.02l1.44,2.11c-.51-1.2-1.16-2.35-1.63-3.13Z"/>
          <path class="cls-1" d="M37.68,28.13l-1.19,1.99c.18.37.6.63,1.03.8l.64-1.13c-.09-.53-.26-1.09-.47-1.66Z"/>
        </g>
        <path class="cls-9" d="M18.73,51.13s.09.01.14.01c-.21-.3-.55-.52-.95-.52-.65,0-1.18.53-1.18,1.18,0,.33.14.63.36.84.06-.85.76-1.52,1.63-1.52Z"/>
        <circle class="cls-9" cx="41.44" cy="41.11" r=".48"/>
      </g>
    </g>
  </g>
</svg>