<?xml version="1.0" encoding="UTF-8"?>
<svg id="Layer_2" data-name="Layer 2" xmlns="http://www.w3.org/2000/svg" viewBox="0 0 25.71 31.55">
  <defs>
    <style>
      .cls-1 {
        fill: #e9773a;
      }

      .cls-2 {
        fill: #231f20;
      }

      .cls-3 {
        fill: #b0d237;
      }

      .cls-4 {
        opacity: .3;
      }

      .cls-4, .cls-5 {
        fill: #47bda1;
      }

      .cls-6 {
        fill: #ed66a4;
      }

      .cls-7 {
        fill: #e9008a;
      }

      .cls-8 {
        fill: #8bd7f8;
      }

      .cls-9 {
        fill: #eb3993;
      }

      .cls-10 {
        fill: #fff200;
      }

      .cls-11 {
        fill: #83004c;
      }
    </style>
  </defs>
  <g id="Layer_1-2" data-name="Layer 1">
    <g>
      <circle class="cls-4" cx="21.37" cy="21.84" r="4.34"/>
      <circle class="cls-4" cx="18.82" cy="4.68" r="4.34"/>
      <circle class="cls-4" cx="4.34" cy="4.34" r="4.34"/>
      <circle class="cls-4" cx="9.7" cy="27.21" r="4.34"/>
      <g>
        <path class="cls-2" d="M9.09,29.85h-.07c-1.46-.22-2.43-1.61-2.21-3.18.17-.88.74-1.6,1.49-1.97l.49-2.33c-2.25-1.43-3.62-3.88-3.62-6.58,0-1.85.67-3.64,1.86-5.05-.4-.48-.82-.97-1.22-1.44-.64-.74-1.21-1.41-1.6-1.94-1.29-.23-2.31-1.38-2.31-2.73,0-1.5,1.27-2.77,2.77-2.77s2.77,1.27,2.77,2.77c0,.33-.06.61-.14.84.45.61,1.2,1.51,1.93,2.38.22.26.43.52.65.78.98-.42,2.03-.64,3.09-.64.56,0,1.13.06,1.68.18,0,0,1.06-1.54,1.32-1.92-.06-.25-.06-.55-.06-.94,0-1.5,1.27-2.77,2.77-2.77s2.77,1.27,2.77,2.77c0,1.38-1.07,2.56-2.4,2.74-.37.48-.75,1.05-1.17,1.68,1.83,1.47,2.89,3.67,2.89,6.05,0,1.15-.26,2.28-.75,3.32l.42.36c.14-.04.3-.07.47-.07.08,0,.16,0,.25,0,.07,0,.15.01.24.01h0c1.44.08,2.63,1.31,2.63,2.77,0,1.58-1.46,2.77-2.77,2.77-1.2,0-2.19-.73-2.53-1.82l-1.16-1.05c-1.33.98-2.94,1.51-4.61,1.51-.1,0-.21,0-.31,0l-.6,2.72c.08.35.05.69.03.94,0,.08-.02.17-.02.25,0,.71-.39,1.4-1.05,1.87-.54.49-1.12.49-1.59.49h-.34Z"/>
        <circle class="cls-11" cx="12.97" cy="15.64" r="6.8"/>
        <path class="cls-7" d="M12.92,9.38c-3.26,0-5.9,2.64-5.9,5.9,0,2.09,1.09,3.92,2.72,4.96.22-.54.76-.93,1.38-.93.83,0,1.5.67,1.5,1.5,0,.12-.02.23-.04.35.11,0,.22.02.34.02,3.26,0,5.9-2.64,5.9-5.9s-2.64-5.9-5.9-5.9Z"/>
        <path class="cls-2" d="M21.37,20.05s.05,0,.07,0c.02,0,.04,0,.06,0h-.13Z"/>
        <path class="cls-2" d="M21.37,20.05s.05,0,.07,0c.02,0,.04,0,.06,0h-.13Z"/>
        <path class="cls-11" d="M17.61,20.61l2.02,1.83c.14.82.82,1.36,1.63,1.36s1.77-.82,1.77-1.77-.82-1.77-1.77-1.77h.14c-.54,0-.66-.13-1.06.27l-1.69-1.44-1.04,1.51Z"/>
        <path class="cls-1" d="M21.2,21.62s-.19-.09-.34-.2l-.54-.41c-.15-.11-.61-.5-1.02-.86l-.77-.66c-.07.17-.5.71-.5.84l1.81,1.32c.42.36.82.65.89.65h.27q-.07,0,0,0c.07,0,.27-.23.27-.34s-.03-.34-.07-.34Z"/>
        <path class="cls-11" d="M16.37,10.06c.82-1.22,1.5-2.31,2.18-3.13h.14c.95,0,1.77-.82,1.77-1.77s-.82-1.77-1.77-1.77-1.77.82-1.77,1.77,0,.68.27.95c-.68.95-1.5,2.18-2.45,3.54h-.14"/>
        <path class="cls-5" d="M18.46,5.13c.19.16.24.72-.05,1.03,0,0,1.2.14,1.09-1.14-.05-.54-.54-1.09-1.09-1.09s-1.21.58-1.21,1.12.15.65.15.65l.3-.41c.36-.33.81-.16.81-.16Z"/>
        <path class="cls-10" d="M16.06,9.68c.25,0,2.35-3.93,2.35-4.04s-.09-.34-.2-.34-.47.18-.47.22-2.42,3.63-2.39,3.77c.02.09.6.39.71.39Z"/>
        <path class="cls-6" d="M17.14,16.42c.54-.61.88-1.4.88-2.28,0-1.9-1.54-3.44-3.44-3.44-.94,0-1.79.38-2.41.99,2.57.2,4.65,2.19,4.97,4.73Z"/>
        <path class="cls-9" d="M11.13,14.14c0,1.9,1.54,3.44,3.44,3.44,1.02,0,1.93-.46,2.56-1.17-.32-2.54-2.4-4.53-4.97-4.73-.64.62-1.03,1.49-1.03,2.45Z"/>
        <path class="cls-11" d="M11.14,19.8c-.12,0-.24.02-.34.03-.31.04-.56.27-.62.58l-1.03,4.89c-.68.14-1.22.68-1.36,1.36-.14.95.41,1.91,1.36,2.04h.27c.41,0,.68,0,.95-.27.41-.27.68-.68.68-1.09s.14-.95-.13-1.22l.13-.14,1.05-4.71c.03-.12.06-.36.02-.48l-.09-.45c-.1-.33-.54-.56-.89-.54ZM10.79,27.07c0,.54-.68.95-1.22.95s-.95-.68-.95-1.22.68-.95,1.22-.95.95.68.95,1.22Z"/>
        <path class="cls-11" d="M6.17,5.43c.14-.27.27-.54.27-.95,0-.95-.82-1.77-1.77-1.77s-1.77.82-1.77,1.77.82,1.77,1.77,1.77v-.14c.68,1.09,3.27,3.81,4.35,5.44.12,0,1.33.41,1.5-.68-1.22-1.63-3.67-4.35-4.35-5.44ZM4.53,5.43c-.54,0-1.09-.54-1.09-1.09s.54-1.09,1.09-1.09,1.09.54,1.09,1.09-.54,1.09-1.09,1.09ZM5.21,6.11c.27,0,.41-.27.68-.41.47.75,1.51,2.45,2.47,3.97-1.13-1.31-2.71-2.86-3.15-3.57Z"/>
        <path class="cls-5" d="M20.91,22.69c.14.14.41.27.68.27.54,0,1.09-.54,1.09-1.09s-.54-1.09-1.09-1.09-.42-.18-.69.23l.46.45c.44.46-.45,1.23-.45,1.23Z"/>
        <path class="cls-10" d="M10.07,10.98c0-.12-.29-.56-.65-.98l-2.88-3.68c-.36-.42-.75-.66-.86-.55s-.18.54.19.95l2.9,3.67c.36.42.74.8.84.87s.45-.15.46-.27Z"/>
        <circle class="cls-5" cx="4.53" cy="4.34" r="1.09"/>
        <path class="cls-1" d="M11.25,20.3c-.28.03-.59.5-.7,1.04l-.55,2.81c-.11.54-.19.98-.06.98h.27c.22.15.51-.17.63-.7l.64-2.81c.12-.54.03-1.35-.24-1.32Z"/>
        <path class="cls-5" d="M9.84,25.84c-.54,0-1.09.27-1.22.95,0,.54.27,1.09.95,1.22.54,0,1.09-.27,1.22-.95,0-.54-.27-1.09-.95-1.22Z"/>
        <path class="cls-3" d="M14.47,10.33c.27,0,.41,0,.54.27s0,.41-.27.54-.41,0-.54-.27,0-.41.27-.54ZM15.42,11.83c.54-.14.95,0,1.09.27s-.27.54-.82.68-.95,0-1.09-.27.27-.54.82-.68ZM13.38,9.79s-.27,0-.27-.14,0-.27.14-.27.27,0,.27.14,0,.27-.14.27ZM16.78,16.73c-.27,0-.41,0-.54-.27s0-.41.27-.54.41,0,.54.27,0,.41-.27.54ZM15.15,14.55c0-.41.41-.95,1.22-1.09s1.5,0,1.63.27-.41.95-1.22,1.09-1.5,0-1.63-.27Z"/>
      </g>
      <path class="cls-8" d="M4.8,3.81s.05,0,.07,0c-.1-.15-.27-.25-.46-.25-.32,0-.58.26-.58.58,0,.16.07.31.18.41.03-.42.37-.74.8-.74Z"/>
      <path class="cls-8" d="M10.16,26.68s.05,0,.07,0c-.1-.15-.27-.25-.46-.25-.32,0-.58.26-.58.58,0,.16.07.31.18.41.03-.42.37-.74.8-.74Z"/>
      <path class="cls-8" d="M18.48,4.43s.05,0,.07,0c-.1-.15-.27-.25-.46-.25-.32,0-.58.26-.58.58,0,.16.07.31.18.41.03-.42.37-.74.8-.74Z"/>
    </g>
  </g>
</svg>