<?xml version="1.0" encoding="UTF-8"?>
<svg id="Layer_2" data-name="Layer 2" xmlns="http://www.w3.org/2000/svg" viewBox="0 0 36.93 15.93">
  <defs>
    <style>
      .cls-1 {
        fill: #b0d237;
      }

      .cls-1, .cls-2 {
        opacity: .8;
      }

      .cls-3 {
        fill: #231f20;
      }

      .cls-4 {
        fill: #f6891f;
      }

      .cls-4, .cls-2, .cls-5 {
        isolation: isolate;
      }

      .cls-6 {
        fill: #7a5220;
      }

      .cls-7 {
        fill: #47bda1;
      }

      .cls-7, .cls-5 {
        opacity: .3;
      }

      .cls-8 {
        fill: #081c29;
      }

      .cls-9 {
        fill: #febd30;
      }

      .cls-2, .cls-5 {
        fill: #009bdf;
      }

      .cls-10 {
        fill: #81b9e5;
      }
    </style>
  </defs>
  <g id="Layer_1-2" data-name="Layer 1">
    <g>
      <circle class="cls-7" cx="28.97" cy="7.96" r="7.96"/>
      <circle class="cls-7" cx="7.96" cy="7.96" r="7.96"/>
      <g>
        <path class="cls-1" d="M21.34,10.94h-6c-.37,0-.67.21-.85.5-.09.15-.15.31-.15.5,0,.55.45,1,1,1h6c.55,0,1-.45,1-1,0-.19-.06-.35-.15-.5-.17-.29-.48-.5-.85-.5Z"/>
        <g>
          <path class="cls-3" d="M23.94,10.63c0-1.11,3.37-1.2,4.4-1.2.48,0,1.47.02,2.39.15-.27-.29-.59-.52-.97-.65l-2.93-1.02c0-.13.01-.26.01-.39s0-.26-.01-.39l2.93-1.02c.61-.21,1.1-.65,1.38-1.23h0s.02-.06.03-.09c-1.03.2-2.27.23-2.83.23-1.03,0-4.4-.09-4.4-1.2s3.37-1.2,4.4-1.2c.56,0,1.81.03,2.83.23-.23-.52-.63-.96-1.15-1.21h0c-.58-.28-1.25-.32-1.85-.11l-2.44.85c-.6.21-1.24.14-1.83-.1-.43-.17-.88-.26-1.35-.26h-8.4c-.47,0-.92.09-1.35.26-.59.24-1.23.31-1.83.1l-2.44-.85c-.61-.21-1.27-.17-1.85.11h0c-.52.25-.92.69-1.15,1.21,1.02-.2,2.27-.23,2.83-.23,1.03,0,4.4.09,4.4,1.2s-3.37,1.2-4.4,1.2c-.56,0-1.81-.03-2.84-.23.01.03.02.06.03.09h0c.28.58.78,1.02,1.38,1.23l2.93,1.02c0,.13-.01.26-.01.39s0,.26.01.39l-2.93,1.02c-.38.13-.7.36-.97.65.92-.13,1.91-.15,2.39-.15,1.03,0,4.4.09,4.4,1.2s-3.08,1.2-4.4,1.2c-.74,0-2.03-.04-3.02-.26.02.15.06.3.11.45h0c.21.61.65,1.11,1.23,1.39h0c.58.28,1.25.32,1.85.11l3.46-1.2c.19.14.39.25.59.35.45,1.09,1.52,1.86,2.78,1.86h6c1.25,0,2.33-.77,2.78-1.86.21-.1.4-.22.59-.35l3.45,1.2c.61.21,1.27.17,1.85-.11h0c.58-.28,1.02-.78,1.23-1.39.05-.15.09-.3.11-.46-1.06.24-2.43.27-3.02.27-1.03,0-4.4-.09-4.4-1.2ZM21.34,12.94h-6c-.55,0-1-.45-1-1,0-.19.06-.35.15-.5.17-.29.48-.5.85-.5h6c.37,0,.67.21.85.5.09.15.15.31.15.5,0,.55-.45,1-1,1Z"/>
          <path class="cls-3" d="M11.74,10.63c-.49-.18-1.66-.4-3.4-.4-1.32,0-2.31.13-2.92.27-.03.08-.05.17-.07.26.6.15,1.6.28,2.99.28,1.77,0,2.92-.22,3.4-.4Z"/>
          <path class="cls-3" d="M24.94,10.63c.49.18,1.66.4,3.4.4,1.37,0,2.38-.14,2.99-.28-.02-.09-.04-.17-.07-.25-.61-.14-1.6-.27-2.92-.27-1.74,0-2.91.22-3.4.4Z"/>
          <path class="cls-3" d="M24.94,3.83c.49.18,1.66.4,3.4.4,1.41,0,2.44-.14,3.04-.3,0-.07,0-.14,0-.21-.6-.15-1.63-.29-3.03-.29-1.74,0-2.91.22-3.4.4Z"/>
          <path class="cls-3" d="M11.74,3.83c-.49-.18-1.66-.4-3.4-.4-1.41,0-2.43.14-3.03.29,0,.07-.01.14,0,.22.6.15,1.61.29,3.04.29,1.77,0,2.92-.22,3.4-.4Z"/>
        </g>
        <path class="cls-5" d="M8.34,11.85c-1.32,0-4.4-.12-4.4-1.2s3.37-1.2,4.4-1.2,4.4.09,4.4,1.2-3.08,1.2-4.4,1.2ZM4.94,10.65c.48.18,1.63.4,3.4.4s2.92-.22,3.4-.4c-.49-.18-1.66-.4-3.4-.4s-2.92.22-3.4.4Z"/>
        <path class="cls-5" d="M28.34,11.85c-1.03,0-4.4-.09-4.4-1.2s3.37-1.2,4.4-1.2,4.4.09,4.4,1.2-3.37,1.2-4.4,1.2ZM24.94,10.65c.49.18,1.66.4,3.4.4s2.91-.22,3.4-.4c-.49-.18-1.66-.4-3.4-.4s-2.91.22-3.4.4Z"/>
        <path class="cls-6" d="M24.54,9.34c-.1.28-.22.55-.37.77l4.81,1.67.32-.15.12-.33-.15-.32-4.72-1.64Z"/>
        <path class="cls-6" d="M12.14,9.34l-4.72,1.64-.15.32.11.33.32.15,4.81-1.67c-.15-.23-.27-.49-.37-.77Z"/>
        <path class="cls-9" d="M24.29,8.94c-.1.27-.21.53-.35.75l4.61,1.63.31-.15.11-.32-.15-.31-4.53-1.6Z"/>
        <path class="cls-9" d="M12.39,8.94l-4.53,1.6-.15.31.11.32.31.15,4.61-1.63c-.14-.22-.26-.48-.35-.75Z"/>
        <path class="cls-2" d="M3.94,10.65c0-1.11,3.37-1.2,4.4-1.2s4.4.09,4.4,1.2M11.74,10.65c-.49-.18-1.66-.4-3.4-.4s-2.92.22-3.4.4"/>
        <path class="cls-2" d="M23.94,10.65c0-1.11,3.37-1.2,4.4-1.2s4.4.09,4.4,1.2M31.74,10.65c-.49-.18-1.66-.4-3.4-.4s-2.91.22-3.4.4"/>
        <path class="cls-5" d="M8.34,5.05c-1.03,0-4.4-.09-4.4-1.2s3.37-1.2,4.4-1.2,4.4.09,4.4,1.2-3.37,1.2-4.4,1.2ZM4.94,3.85c.48.18,1.63.4,3.4.4s2.92-.22,3.4-.4c-.49-.18-1.66-.4-3.4-.4s-2.92.22-3.4.4Z"/>
        <path class="cls-5" d="M28.34,5.05c-1.03,0-4.4-.09-4.4-1.2s3.37-1.2,4.4-1.2,4.4.09,4.4,1.2-3.37,1.2-4.4,1.2ZM24.94,3.85c.49.18,1.66.4,3.4.4s2.91-.22,3.4-.4c-.49-.18-1.66-.4-3.4-.4s-2.91.22-3.4.4Z"/>
        <path class="cls-6" d="M12.5,5.14l-4.81-1.67-.32.15-.11.33.15.32,4.72,1.64c.1-.28.22-.55.37-.77Z"/>
        <path class="cls-6" d="M24.54,5.92l4.72-1.64.15-.32-.12-.33-.32-.15-4.81,1.67c.15.23.27.49.37.77Z"/>
        <path class="cls-9" d="M12.74,4.86l-4.61-1.63-.31.15-.11.32.15.31,4.53,1.6c.1-.27.21-.53.35-.75Z"/>
        <path class="cls-9" d="M24.29,5.61l4.53-1.6.15-.31-.11-.32-.31-.15-4.61,1.63c.14.22.26.48.35.75Z"/>
        <path class="cls-6" d="M23.84,7.63c0-1.47-.68-2.5-1.3-2.5h-8.4c-.61,0-1.3,1.03-1.3,2.5s.69,2.5,1.3,2.5h8.4c.62,0,1.3-1.03,1.3-2.5ZM18.34,9.43c-.99,0-1.8-.81-1.8-1.8s.81-1.8,1.8-1.8,1.8.81,1.8,1.8-.81,1.8-1.8,1.8Z"/>
        <path class="cls-4" d="M23.13,7.05c0-1.28-.6-2.18-1.13-2.18h-7.32c-.54,0-1.13.89-1.13,2.18s.6,2.18,1.13,2.18h7.32c.54,0,1.13-.89,1.13-2.18ZM18.34,8.62c-.87,0-1.57-.7-1.57-1.57s.7-1.57,1.57-1.57,1.57.7,1.57,1.57-.7,1.57-1.57,1.57Z"/>
        <path class="cls-9" d="M24.54,9.34c.18-.5.3-1.08.3-1.71s-.11-1.2-.3-1.71c-.1-.28-.22-.55-.37-.77-.41-.63-.99-1.02-1.64-1.02h-8.4c-.65,0-1.22.39-1.64,1.02-.15.23-.27.49-.37.77-.18.5-.3,1.08-.3,1.71s.11,1.2.3,1.71c.1.28.22.55.37.77.41.63.99,1.02,1.64,1.02h.35c.17-.29.48-.5.85-.5h6c.37,0,.67.21.85.5h.35c.65,0,1.22-.39,1.64-1.02.15-.23.27-.49.37-.77ZM14.14,10.13c-.61,0-1.3-1.03-1.3-2.5s.69-2.5,1.3-2.5h8.4c.62,0,1.3,1.03,1.3,2.5s-.68,2.5-1.3,2.5h-8.4Z"/>
        <circle class="cls-8" cx="18.34" cy="7.63" r="1.8"/>
        <circle class="cls-10" cx="18.34" cy="7.63" r="1.8"/>
        <path class="cls-6" d="M14.49,11.74c.17-.29.48-.5.85-.5h6c.37,0,.67.21.85.5.04.06.07.13.09.19.03-.1.06-.2.06-.31,0-.19-.06-.35-.15-.5-.17-.29-.48-.5-.85-.5h-6c-.37,0-.67.21-.85.5-.09.15-.15.31-.15.5,0,.11.03.21.06.31.03-.07.05-.13.09-.19Z"/>
        <path class="cls-5" d="M3.94,3.85c0-1.11,3.37-1.2,4.4-1.2s4.4.09,4.4,1.2M11.74,3.85c-.49-.18-1.66-.4-3.4-.4s-2.92.22-3.4.4"/>
        <path class="cls-2" d="M23.94,3.85c0-1.11,3.37-1.2,4.4-1.2s4.4.09,4.4,1.2M31.74,3.85c-.49-.18-1.66-.4-3.4-.4s-2.91.22-3.4.4"/>
      </g>
    </g>
  </g>
</svg>