<?xml version="1.0" encoding="UTF-8"?>
<svg id="Layer_2" data-name="Layer 2" xmlns="http://www.w3.org/2000/svg" viewBox="0 0 1308 864.45">
  <defs>
    <style>
      .cls-1 {
        fill: none;
      }

      .cls-2 {
        fill: #668987;
      }

      .cls-3 {
        fill: #231f20;
      }

      .cls-4 {
        fill: #a4c539;
      }

      .cls-5 {
        fill: #61a466;
      }

      .cls-6 {
        fill: #e2e41c;
      }

      .cls-7 {
        fill: #b0d237;
      }

      .cls-8 {
        fill: #7a5220;
      }

      .cls-9 {
        opacity: .7;
      }

      .cls-10 {
        opacity: .3;
      }

      .cls-11 {
        fill: #93ad29;
      }

      .cls-12 {
        fill: #47bda1;
      }

      .cls-13 {
        fill: #ab7721;
      }

      .cls-14 {
        fill: #fff200;
      }

      .cls-15 {
        fill: #afd137;
      }
    </style>
  </defs>
  <g id="Layer_1-2" data-name="Layer 1">
    <g>
      <g class="cls-10">
        <path class="cls-1" d="M1122.89,835.73v-11.53h-2.39v-.07h-5.08c-4.64,0-8.41-3.77-8.41-8.41v-2.78c0-1.71-1.39-3.09-3.1-3.09h-16.51c.15.43.27.87.35,1.31.86,4.63-2.2,8.21-6.83,8.03-4.63-.18-9.05-4.05-9.87-8.68-.04-.22-.06-.44-.08-.66h-22.27c.01.08.04.15.05.23.77,4.63-2.36,8.36-6.99,8.36-4.63,0-8.98-3.73-9.72-8.36-.01-.07-.01-.15-.02-.22h-27.22c.06.25.11.5.15.76.68,4.64-2.53,8.51-7.17,8.69-4.64.18-8.91-3.41-9.55-8.05-.07-.48-.08-.94-.07-1.4h-16.86c-1.71,0-3.1,1.39-3.1,3.09v37.45c0,1.71,1.39,3.09,3.1,3.09h28.3c.89-.39,1.87-.63,2.93-.67,1.3-.05,2.57.2,3.74.67h36.25c1.24-.98,2.85-1.57,4.69-1.57,1.84,0,3.64.59,5.2,1.57h30.8c1.07-.57,2.36-.88,3.79-.82,1.2.05,2.38.34,3.49.82h13.11c1.69,0,3.08-1.37,3.1-3.06l.28-5.15c0-.31.03-.62.07-.93-.85.28-1.8.41-2.84.35-4.68-.27-9.17-4.21-10.03-8.85-.86-4.63,2.21-8.21,6.85-7.93,4.64.27,9.13,4.29,10.03,8.92.09.45.13.88.14,1.3,1.24-.72,2.67-1.14,4.19-1.14l6.52-.25c.56-.02,1-.48,1-1.03ZM980.45,844.92c-4.69.26-8.98-3.26-9.57-7.91-.59-4.64,2.7-8.65,7.35-8.91s8.94,3.32,9.57,7.96c.63,4.64-2.66,8.59-7.35,8.85ZM1024.96,843.24c-4.69.09-9.05-3.57-9.74-8.2-.69-4.64,2.52-8.5,7.17-8.59,4.65-.09,9.01,3.63,9.74,8.27.73,4.64-2.48,8.43-7.17,8.52ZM1064.59,843.21c-4.68-.08-9.11-3.87-9.89-8.51-.78-4.63,2.36-8.36,7.01-8.27,4.65.08,9.07,3.94,9.89,8.58.81,4.63-2.33,8.29-7.01,8.2Z"/>
        <path class="cls-1" d="M389.66,828.59c-4.48.43-7.53-3.2-6.82-8.07.71-4.88,4.88-9.15,9.32-9.57,1.76-.17,3.3.3,4.48,1.23-.37-1.3-1.55-2.25-2.97-2.25h-132.61c-1.71,0-3.1,1.39-3.1,3.09v2.78c0,4.63-3.77,8.41-8.41,8.41h-5.65c-.04.32-.08.65-.15.98-.3,1.41-.88,2.73-1.66,3.89v6.73c0,.56.44,1.01,1,1.03l6.55.25c4.55,0,8.32,3.73,8.37,8.31l.28,5.06c.02,1.73,1.41,3.1,3.1,3.1h18.32c.03-.28.07-.56.12-.85.93-4.89,5.33-8.9,9.81-8.97,4.49-.08,7.4,3.79,6.51,8.69-.07.39-.17.77-.28,1.14h26.63c-.04-.67,0-1.38.12-2.11.84-4.89,5.16-9.02,9.65-9.27,4.49-.24,7.49,3.49,6.69,8.38-.17,1.05-.51,2.06-.97,3h23.3c-.56-1.28-.77-2.83-.51-4.52.75-4.88,5-9.12,9.5-9.49,4.49-.37,7.56,3.25,6.85,8.13-.32,2.18-1.35,4.24-2.79,5.89h19.36c1.71,0,3.1-1.39,3.1-3.1v-26.24c-1.78,2.39-4.39,4.1-7.12,4.36ZM281.37,825.64c-.94,4.9-5.32,8.89-9.79,8.88-4.47,0-7.3-4.01-6.32-8.91.98-4.9,5.36-8.83,9.79-8.82,4.43,0,7.26,3.95,6.32,8.84ZM323.62,824.55c-.84,4.89-5.15,9.02-9.63,9.19-4.47.17-7.38-3.69-6.5-8.58.88-4.89,5.19-8.96,9.62-9.13s7.34,3.63,6.5,8.52ZM361.29,822.29c-.76,4.88-5,9.11-9.48,9.42-4.47.31-7.46-3.43-6.66-8.32.8-4.89,5.04-9.07,9.47-9.37,4.44-.3,7.42,3.38,6.66,8.27Z"/>
        <path class="cls-1" d="M1295.11,829.03c-.98,1.39-2.92,1.84-5.47,1.02-4.54-1.47-9.28-6.41-10.57-11.1-1.29-4.69,1.32-7.37,5.83-5.92,4.18,1.35,8.54,5.78,10.21,10.17v-17.08c-1.41-1.77-2.51-3.72-3.05-5.63-1.05-3.69.29-6.06,3.05-6.16V90.78c-.66.21-1.33.41-2.02.54-1.23-1.6-2.17-3.35-2.65-5.06-1.16-4.21.9-6.77,4.67-6.18V25.26c-2.64-2.29-4.84-5.41-5.68-8.39-.51-1.79-.45-3.27.05-4.33-1.74-1.05-3.77-1.66-5.95-1.66h-17.6c.28,3.62-2.2,5.52-6.12,4.38-2.34-.68-4.72-2.31-6.64-4.38h-44.99c2.76,1.97,5.04,5.02,5.8,8.1,1.15,4.66-1.61,7.64-6.16,6.71-4.56-.93-9.16-5.41-10.27-10.06-.46-1.91-.26-3.54.44-4.75h-22.64c.09.28.17.57.24.86,1.07,4.65-1.76,7.81-6.33,7.12-4.02-.61-8.01-4.01-9.61-7.98h-22.87c-.99,2.13-3.21,3.37-6.11,3.07-2.29-.24-4.55-1.39-6.36-3.07h-152.61c-.17.02-.34.06-.51.07-.52.03-1.02,0-1.52-.07h-31.82c-1.32,1.55-3.21,2.59-5.42,2.78-2.7.23-5.24-.88-6.98-2.78h-26.69c-.72,3.54-3.63,6.37-7.35,6.78-4.35.48-8.21-2.5-8.96-6.78h-22.61c.2.62.35,1.27.41,1.96.37,4.67-3.05,8.93-7.64,9.54-4.59.61-8.58-2.68-8.91-7.36-.1-1.45.16-2.86.7-4.14h-29.12c3.43.57,6.07,3.44,6.3,7.26.28,4.69-3.21,9.03-7.8,9.72-4.59.69-8.51-2.55-8.76-7.24-.25-4.67,3.21-9.01,7.73-9.73h-54.08c-.9.52-1.88.91-2.92,1.09-1.99.34-3.84-.1-5.29-1.09h-25.27c-.89,3.81-4.04,7.05-7.83,7.73-4.54.8-8.25-2.38-8.28-7.11,0-.2,0-.41.02-.61h-23.26c.87,1.21,1.37,2.77,1.37,4.54-.01,4.75-3.71,9.26-8.25,10.08-4.54.83-8.18-2.36-8.13-7.11.03-2.83,1.36-5.58,3.38-7.51h-87.77c-1.41,3.27-4.37,5.91-7.69,6.5-4.24.75-7.52-2.12-7.63-6.5h-24.18c.35.98.5,2.1.42,3.33-.33,4.81-4.23,9.33-8.72,10.08-4.48.75-7.82-2.56-7.45-7.38.17-2.18,1.06-4.3,2.4-6.03h-81.63c-1.27.92-2.69,1.56-4.17,1.75-2.16.28-4-.41-5.26-1.75h-24.08c-1.62,3.31-4.76,5.85-8.08,6.21-3.87.42-6.69-2.27-6.89-6.21h-21.19c-.01.09-.02.18-.03.28-.71,4.88-4.88,9.15-9.3,9.52s-7.4-3.32-6.65-8.2c.08-.54.22-1.08.38-1.6h-21.67c.17.94.18,1.97,0,3.06-.8,4.89-5.03,9.07-9.45,9.3-4.42.24-7.32-3.56-6.49-8.45.24-1.39.75-2.72,1.47-3.92h-27.71c.57,1.38.75,3.04.42,4.85-.9,4.89-5.2,8.95-9.62,9.03-4.42.08-7.24-3.86-6.31-8.76.36-1.9,1.24-3.66,2.43-5.12h-24.1c.61,1.45.8,3.21.42,5.1-.98,4.9-5.35,8.83-9.77,8.74-4.41-.09-7.16-4.16-6.15-9.06.37-1.78,1.18-3.42,2.28-4.78h-25.59c.24,1.17.23,2.47-.07,3.83-1.07,4.9-5.51,8.68-9.92,8.4-4.41-.28-7.08-4.5-5.97-9.4.23-1,.6-1.95,1.08-2.83h-22.11c-.04.34-.1.68-.18,1.03-1.16,4.89-5.66,8.51-10.07,8.04-4.2-.45-6.75-4.46-5.95-9.07h-22.64c-2.02,2.93-5.38,4.7-8.63,4.19-2.47-.38-4.34-1.99-5.29-4.19H51.83c-.03.83-.15,1.67-.41,2.51-1.46,4.85-6.24,7.77-10.68,6.46-3.76-1.11-6.04-4.89-5.74-8.97h-10.54c-6.39,0-11.59,5.19-11.59,11.58v2.2c2.08-1.39,4.66-1.86,7.13-1.07,4.46,1.44,6.86,6.48,5.36,11.31-1.5,4.84-6.35,7.63-10.84,6.18-.58-.19-1.13-.44-1.64-.75v734.13c3.49,2.05,5.17,6.58,3.8,10.87-.7,2.19-2.09,3.93-3.8,5.04v20.6c2.13-3.33,6.08-4.97,9.76-3.77,4.46,1.44,6.86,6.48,5.36,11.31-1.5,4.84-6.35,7.63-10.84,6.18-1.81-.58-3.27-1.77-4.28-3.29v20.33c0,6.01,4.61,10.97,10.49,11.52-1.79-2.24-2.47-5.42-1.51-8.51,1.49-4.84,6.36-7.63,10.87-6.3,4.51,1.33,6.99,6.28,5.53,11.12-.44,1.45-1.18,2.72-2.12,3.76l24.89.02c1.99-3.64,6.04-5.71,9.89-4.8,2.59.61,4.53,2.44,5.46,4.81l88,.07c-1.11-1.78-1.5-4.11-.9-6.58,1.19-4.89,5.79-8.43,10.26-7.95,4.48.48,7.17,4.79,6.01,9.68-.44,1.85-1.37,3.52-2.6,4.85l24.16.02c-.1-.96-.05-1.99.19-3.05,1.11-4.89,5.64-8.6,10.12-8.32,4.48.28,7.25,4.44,6.17,9.33-.16.71-.39,1.4-.68,2.05h2.25c1.94,0,3.51-1.57,3.51-3.5v-25.26c0-3.73,3.04-6.77,6.78-6.77h2.26c1.21-.91,2.58-1.55,4-1.8v-21.53c0-6.58-2.87-7.49-5.96-7.49-.29,0-.57,0-.83.01-.24,0-.46.01-.66.01l-172.25-.23c-9.05,0-16.42-6.86-16.42-15.3-1.88,1.04-4.08,1.36-6.2.68-4.38-1.42-6.69-6.53-5.16-11.36,1.53-4.82,6.3-7.54,10.64-6.13.03,0,.05.02.08.03V97.94c0-2.37.87-4.56,2.33-6.3h-9.21c2.06-3.48,6.1-5.37,9.93-4.36,1.13.3,2.12.82,2.97,1.51,1.21-.58,2.54-.96,3.95-1.09,2.15-.96,4.54-1.52,7.08-1.52h40.08c-.77-1.75-.95-3.85-.37-5.98,1.32-4.87,6.06-8.11,10.58-7.29,4.52.82,7.15,5.4,5.86,10.28-.29,1.09-.75,2.09-1.34,3h23.44c1.4-4.65,5.92-7.87,10.31-7.3,3.71.49,6.18,3.53,6.3,7.3h24.41c2.02-2.14,4.82-3.4,7.59-3.17,2.31.2,4.15,1.4,5.27,3.17h31.7c1.15-.47,2.37-.71,3.58-.66.99.04,1.89.28,2.7.66h75.69c1-.42,2.04-.68,3.1-.72,1.26-.05,2.4.22,3.38.72h29.03c1.72-1.59,3.85-2.64,6.03-2.8,2.51-.17,4.57.87,5.78,2.67,6.57-.33,12.71-1.36,18.29-3.09,1.87-.58,3.98-.96,6.21-1.16.04-.43.12-.86.23-1.3.34-1.32.68-2.54,1.01-3.65-3.66-.65-6.23-2.05-7.33-3.99-.89.39-1.82.65-2.77.73-4.53.38-7.6-3.29-6.84-8.17.75-4.88,5-9.12,9.5-9.49,2.75-.23,4.96,1.05,6.1,3.18,1.26-2.59,3.75-4.27,6.48-4.27,3.04,0,5.8,2.09,6.87,5.19.28.82.68,1.53,1.16,2.09,1.35,1.56,2.75,3.49,4.18,5.73,1.01,1.6,1.13,3.38.33,4.9-1.06,2-3.67,3.44-7.41,4.1.34,1.11.68,2.33,1.01,3.65.07.27.1.53.15.8.78.56,1.42,1.31,1.87,2.21,2.6,1.05,4.44,2.47,5.16,4.13h17.57c-.05-.59-.04-1.2.05-1.84.62-4.86,4.82-9.23,9.37-9.77,4.55-.54,7.77,2.93,7.18,7.79-.16,1.34-.61,2.63-1.25,3.82h26.1c-1.96-1.3-3.07-3.73-2.74-6.7.54-4.85,4.67-9.28,9.22-9.92,4.55-.63,7.84,2.76,7.34,7.61-.39,3.79-3.01,7.33-6.32,9.01h87.18c1.64-2.74,4.38-4.86,7.39-5.38,3.99-.69,7.14,1.64,7.74,5.38h25.02c-.21-.77-.31-1.61-.27-2.51.23-4.79,4.16-9.35,8.77-10.18,4.61-.83,8.2,2.37,8,7.15-.08,1.97-.8,3.89-1.93,5.54h87.83c1.41-3.01,4.24-5.41,7.5-6,4.31-.78,7.88,1.86,8.42,6h23.38c-.38-.89-.62-1.89-.64-2.98-.08-4.73,3.65-9.23,8.31-10.04,4.67-.81,8.54,2.36,8.65,7.08.05,2.13-.69,4.21-1.94,5.93h89.09c1.43-1.56,3.35-2.68,5.54-2.98,3.06-.43,5.84.8,7.52,2.98h24.53c.28-4.15,3.57-7.73,7.86-8.25,4.72-.58,8.88,2.76,9.29,7.43.02.28.01.55.01.83h24.01c-.59-1-1-2.13-1.12-3.37-.43-4.28,2.46-8.15,6.59-9.11-1.13-.67-1.97-1.47-2.47-2.41-.81-1.52-.69-3.3.33-4.9,1.42-2.24,2.82-4.17,4.18-5.73.49-.56.88-1.27,1.16-2.09,1.08-3.11,3.84-5.19,6.87-5.19.63,0,1.23.11,1.82.28.19-4.09,3.33-7.5,7.54-7.85,4.66-.39,8.88,3.08,9.42,7.73s-2.82,8.72-7.51,9.11c-.57.05-1.12.04-1.67-.02.86,1.13,1.73,2.38,2.6,3.77,1.01,1.6,1.13,3.38.33,4.9-1.06,2-3.67,3.44-7.41,4.1.34,1.11.68,2.33,1.01,3.65.1.41.17.81.22,1.21,3.32.21,6.42.85,8.89,1.86,4.08,1.67,8.66,2.54,13.62,2.59-1.72-1.41-2.92-3.42-3.19-5.73-.55-4.65,2.82-8.71,7.53-9.04,4.71-.33,9.01,3.19,9.6,7.84.35,2.75-.7,5.27-2.59,6.94h154.99c-2.42-1.69-4.29-4.24-4.83-7.02-.91-4.64,2.17-8.12,6.87-7.74,4.7.38,9.27,4.49,10.21,9.13.46,2.28-.05,4.25-1.24,5.63h25.38c-.63-1.04-1.11-2.14-1.35-3.27-.99-4.64,2.01-7.96,6.7-7.36,4.69.6,9.33,4.89,10.36,9.54.08.38.14.74.17,1.1h22.4c.25-3.29,2.9-5.28,6.74-4.6,2.77.49,5.54,2.27,7.57,4.6h40.76c2.54,0,4.93.55,7.08,1.52,5.59.52,9.97,4.92,9.97,10.24v668.32c0,1.19-.23,2.33-.63,3.4v1.96c0,8.44-7.36,15.3-16.42,15.3l-114.27.16c-1.63,0-4.67.02-6.62,2.29h8.7c.07.23.13.46.18.69.98,4.64-1.92,7.98-6.49,7.5-1.45-.15-2.89-.68-4.21-1.46v21.84h6.26c3.74,0,6.78,3.04,6.78,6.77v6.76c3.94,1.22,7.48,4.9,8.33,8.92.98,4.64-2.01,7.97-6.69,7.49-.55-.06-1.1-.17-1.64-.32v2.42c0,.23.02.46.07.69,0,.04.02.07.03.11.15.63.46,1.21.93,1.68.03.03.07.05.1.08.65.6,1.49.94,2.38.94l68.28-.08c-.74-1.16-1.31-2.39-1.61-3.64-1.12-4.66,1.73-7.72,6.36-6.78,4.63.94,9.32,5.53,10.47,10.19.02.07.03.14.04.21l23.03-.03c1.07-1.43,3.05-2,5.59-1.34,1.05.27,2.1.73,3.11,1.33l22.63-.03c6.39,0,11.59-5.19,11.59-11.58v-12.71ZM213.51,797.32c.86-3.82,3.76-6.9,7.06-7.95h4.68c3.26,1.16,5.07,4.78,4.15,8.95-1.07,4.9-5.51,8.68-9.92,8.4-4.41-.28-7.08-4.5-5.97-9.4ZM198.02,813.54c4.42.38,7.1,4.61,5.99,9.51-1.12,4.89-5.64,8.59-10.1,8.21-4.46-.38-7.14-4.69-5.99-9.59,1.15-4.89,5.67-8.51,10.09-8.14ZM176.42,793.82c.41-1.68,1.22-3.19,2.27-4.45h12.95c.91,1.7,1.2,3.86.66,6.15-1.16,4.89-5.66,8.51-10.07,8.04-4.4-.47-7.01-4.86-5.81-9.75ZM160.63,809.49c4.42.58,7.03,4.98,5.83,9.87-1.2,4.89-5.79,8.42-10.24,7.83-4.45-.59-7.06-5.07-5.82-9.95,1.24-4.89,5.82-8.33,10.24-7.75ZM139.18,789.37h16.3c-.04.55-.12,1.1-.26,1.67-1.24,4.88-5.82,8.33-10.21,7.65-4.16-.65-6.64-4.75-5.82-9.31ZM135.9,833.97c4.47.69,7.09,5.17,5.85,10.06-1.24,4.88-5.9,8.32-10.41,7.62-4.51-.7-7.13-5.26-5.85-10.14,1.28-4.88,5.94-8.23,10.41-7.54ZM123.29,803.63c4.41.81,6.95,5.37,5.66,10.25s-5.94,8.22-10.39,7.41c-4.45-.81-6.98-5.46-5.66-10.34,1.32-4.87,5.97-8.13,10.39-7.32ZM115.48,789.37c-2.07,2.07-4.91,3.14-7.66,2.56-1.7-.35-3.09-1.28-4.1-2.56h11.76ZM98.11,827.13c4.47.93,7.01,5.58,5.69,10.45-1.33,4.87-6.05,8.11-10.56,7.18-4.5-.93-7.05-5.68-5.68-10.55,1.36-4.87,6.09-8.01,10.55-7.09ZM75.46,802.68c1.41-4.86,6.12-7.9,10.53-6.86,4.41,1.04,6.87,5.79,5.5,10.65-1.37,4.86-6.09,8-10.53,6.95-4.44-1.05-6.91-5.89-5.5-10.75ZM60.35,818.25c4.46,1.18,6.93,6.02,5.52,10.87-1.41,4.86-6.2,7.88-10.7,6.7s-6.97-6.12-5.52-10.97c1.45-4.85,6.24-7.78,10.7-6.6ZM38.05,792.29c.95-3.08,3.24-5.33,5.91-6.23,2.34,2.05,5.47,3.32,8.91,3.32h.28c1.31,2.12,1.73,4.89.9,7.63-1.46,4.85-6.24,7.77-10.68,6.46-4.44-1.31-6.83-6.34-5.33-11.18ZM35.63,65.96c-1.46,4.85-6.32,7.74-10.87,6.41s-7.02-6.39-5.53-11.23c1.49-4.84,6.36-7.63,10.87-6.3,4.51,1.33,6.99,6.28,5.53,11.12ZM52.54,52.22c-4.5-1.18-6.97-6.12-5.52-10.97,1.45-4.85,6.24-7.78,10.7-6.6,4.46,1.18,6.93,6.02,5.52,10.87-1.41,4.86-6.2,7.88-10.7,6.7ZM73.98,75.63c-1.37,4.86-6.18,7.99-10.73,6.91-4.55-1.07-7.1-5.93-5.7-10.79,1.41-4.86,6.21-7.88,10.73-6.82,4.52,1.07,7.07,5.82,5.7,10.69ZM78.32,29.81c-4.44-1.05-6.91-5.89-5.5-10.75,1.41-4.86,6.12-7.9,10.53-6.86,4.41,1.04,6.87,5.79,5.5,10.65-1.37,4.86-6.09,8-10.53,6.95ZM101.16,53.97c-1.33,4.87-6.05,8.11-10.56,7.18-4.5-.93-7.05-5.68-5.68-10.55,1.36-4.87,6.09-8.01,10.55-7.09s7.01,5.58,5.69,10.45ZM115.93,37.67c-4.45-.81-6.98-5.46-5.66-10.34,1.32-4.87,5.97-8.13,10.39-7.32,4.41.81,6.95,5.37,5.66,10.25s-5.94,8.22-10.39,7.41ZM139.12,60.41c-1.24,4.88-5.9,8.32-10.41,7.62-4.51-.7-7.13-5.26-5.85-10.14,1.28-4.88,5.94-8.23,10.41-7.54,4.47.69,7.09,5.17,5.85,10.06ZM153.59,43.57c-4.45-.59-7.06-5.07-5.82-9.95,1.24-4.89,5.82-8.33,10.24-7.75,4.42.58,7.03,4.98,5.83,9.87-1.2,4.89-5.79,8.42-10.24,7.83ZM177.12,64.98c-1.16,4.89-5.75,8.51-10.27,8.03-4.51-.48-7.2-4.88-6.01-9.76,1.19-4.89,5.79-8.43,10.26-7.95,4.48.48,7.17,4.79,6.01,9.68ZM191.28,47.65c-4.46-.38-7.14-4.69-5.99-9.59,1.15-4.89,5.67-8.51,10.09-8.14,4.42.38,7.1,4.61,5.99,9.51-1.12,4.89-5.64,8.59-10.1,8.21ZM215.16,67.82c-1.07,4.9-5.6,8.68-10.12,8.4-4.52-.28-7.28-4.51-6.17-9.41,1.11-4.89,5.64-8.6,10.12-8.32,4.48.28,7.25,4.44,6.17,9.33ZM231.18,50.14c-4.46-.18-7.22-4.33-6.16-9.22,1.06-4.9,5.51-8.69,9.94-8.51,4.43.18,7.18,4.26,6.16,9.15-1.03,4.9-5.48,8.76-9.94,8.58ZM255.42,69.09c-.98,4.9-5.44,8.83-9.96,8.74-4.52-.09-7.36-4.16-6.34-9.05,1.02-4.9,5.48-8.76,9.96-8.68,4.48.09,7.33,4.09,6.34,8.99ZM268.94,50.91c-4.47,0-7.3-4.01-6.32-8.91.98-4.9,5.36-8.83,9.79-8.82,4.43,0,7.26,3.95,6.32,8.84-.94,4.9-5.32,8.89-9.79,8.88ZM293.52,68.81c-.9,4.89-5.29,8.96-9.82,9.04-4.52.08-7.44-3.85-6.5-8.75.93-4.89,5.33-8.9,9.81-8.97,4.49-.08,7.4,3.79,6.51,8.69ZM311.36,50.12c-4.47.17-7.38-3.69-6.5-8.58.88-4.89,5.19-8.96,9.62-9.13s7.34,3.63,6.5,8.52c-.84,4.89-5.15,9.02-9.63,9.19ZM336.32,66.94c-.8,4.89-5.12,9.07-9.65,9.32-4.53.25-7.52-3.54-6.68-8.43.84-4.89,5.16-9.02,9.65-9.27,4.49-.24,7.49,3.49,6.69,8.38ZM358.66,38.68c-.76,4.88-5,9.11-9.48,9.42-4.47.31-7.46-3.43-6.66-8.32.8-4.89,5.04-9.07,9.47-9.37,4.44-.3,7.42,3.38,6.66,8.27ZM387.03,44.98c-4.48.43-7.53-3.2-6.82-8.07.71-4.88,4.88-9.15,9.32-9.57,4.44-.42,7.49,3.16,6.82,8.03-.67,4.87-4.85,9.19-9.33,9.62ZM412.66,60.18c-.63,4.86-4.81,9.23-9.35,9.72-4.53.49-7.67-3.07-7-7.95.67-4.87,4.85-9.19,9.35-9.68,4.5-.49,7.63,3.04,7,7.9ZM434.07,31.12c-.59,4.86-4.7,9.25-9.17,9.78-4.48.53-7.6-3-6.98-7.86s4.73-9.22,9.17-9.75,7.57,2.96,6.98,7.82ZM450.86,55.43c-.54,4.85-4.66,9.28-9.2,9.87-4.54.59-7.74-2.88-7.16-7.74.58-4.86,4.7-9.25,9.2-9.84,4.5-.59,7.71,2.86,7.16,7.71ZM471.81,26.08c-.5,4.84-4.54,9.29-9.02,9.91-4.48.62-7.68-2.82-7.14-7.67s4.58-9.27,9.02-9.88c4.44-.62,7.64,2.8,7.14,7.64ZM480.03,59.94c-4.54.67-7.82-2.72-7.32-7.57.49-4.84,4.54-9.3,9.04-9.96,4.5-.67,7.78,2.7,7.32,7.54-.46,4.84-4.51,9.32-9.04,9.99ZM505.03,72.79c-.42,4.83-4.48,9.34-9.07,10.05s-7.95-2.64-7.49-7.47c.45-4.84,4.51-9.32,9.07-10.03,4.56-.71,7.91,2.62,7.49,7.45ZM509.56,20.4c-.42,4.83-4.39,9.32-8.87,10.01-4.48.69-7.75-2.68-7.29-7.51.45-4.84,4.42-9.3,8.87-9.99,4.45-.69,7.71,2.66,7.3,7.49ZM518.41,53.97c-4.54.74-7.89-2.59-7.48-7.42.41-4.83,4.39-9.32,8.89-10.05,4.5-.73,7.85,2.58,7.48,7.4-.37,4.82-4.35,9.34-8.89,10.07ZM543.72,66.42c-.33,4.81-4.32,9.35-8.92,10.12s-8.02-2.52-7.65-7.34c.37-4.82,4.36-9.34,8.92-10.1,4.56-.76,7.98,2.51,7.65,7.32ZM565.54,37.4c-.29,4.8-4.2,9.34-8.74,10.13-4.54.78-7.96-2.49-7.64-7.3s4.23-9.33,8.74-10.11c4.5-.78,7.92,2.48,7.64,7.28ZM584.65,59.27c-.24,4.79-4.16,9.35-8.75,10.16s-8.09-2.42-7.82-7.23c.28-4.8,4.2-9.34,8.75-10.15,4.56-.81,8.06,2.42,7.82,7.21ZM597.42,40.35c-4.54.82-8.03-2.41-7.8-7.2.23-4.79,4.07-9.33,8.58-10.14,4.5-.81,8,2.41,7.8,7.19-.2,4.78-4.04,9.33-8.58,10.15ZM614.75,62.44c-4.59.84-8.16-2.37-7.97-7.15.19-4.78,4.04-9.33,8.6-10.16,4.56-.83,8.13,2.37,7.97,7.14-.15,4.78-4.01,9.33-8.6,10.17ZM634.43,85.13c-4.65.85-8.3-2.33-8.16-7.1.15-4.77,4.01-9.33,8.62-10.17,4.61-.85,8.27,2.33,8.16,7.1-.11,4.77-3.97,9.32-8.62,10.18ZM635.82,33.38c-4.54.83-8.1-2.37-7.96-7.14.15-4.77,3.92-9.31,8.42-10.13,4.5-.82,8.07,2.37,7.96,7.14-.11,4.77-3.88,9.3-8.42,10.13ZM658.36,54.46c-4.59.84-8.24-2.34-8.15-7.1.1-4.76,3.87-9.3,8.43-10.14,4.56-.83,8.21,2.35,8.15,7.1-.06,4.76-3.83,9.29-8.43,10.13ZM678.57,77.03c-4.65.85-8.38-2.31-8.33-7.07.05-4.75,3.83-9.29,8.45-10.13,4.61-.84,8.34,2.33,8.33,7.07-.01,4.75-3.8,9.28-8.45,10.13ZM697.21,47.39c-4.59.83-8.31-2.34-8.3-7.09,0-4.75,3.71-9.26,8.27-10.08s8.27,2.36,8.3,7.1c.03,4.74-3.68,9.24-8.27,10.07ZM717.9,69.94c-4.65.83-8.45-2.34-8.48-7.07-.04-4.74,3.68-9.24,8.29-10.06,4.61-.82,8.41,2.36,8.48,7.09.07,4.73-3.64,9.22-8.29,10.05ZM736.07,40.5c-4.59.8-8.38-2.38-8.46-7.11-.08-4.73,3.56-9.21,8.11-10,4.56-.79,8.34,2.4,8.46,7.12s-3.52,9.18-8.11,9.98ZM757.22,63.11c-4.65.79-8.52-2.39-8.64-7.11s3.52-9.18,8.13-9.96c4.61-.78,8.48,2.42,8.64,7.13.16,4.71-3.48,9.16-8.13,9.94ZM774.26,16.9c4.56-.74,8.41,2.48,8.61,7.18.2,4.7-3.36,9.11-7.96,9.86-4.59.75-8.45-2.45-8.61-7.16-.16-4.71,3.4-9.14,7.96-9.88ZM776.87,85c-4.7.77-8.65-2.41-8.81-7.12-.16-4.71,3.49-9.16,8.16-9.92,4.67-.76,8.61,2.44,8.81,7.14.2,4.7-3.45,9.13-8.16,9.9ZM796.54,56.69c-4.65.73-8.58-2.48-8.79-7.18-.21-4.7,3.36-9.11,7.98-9.83,4.61-.72,8.55,2.51,8.79,7.2.24,4.69-3.33,9.08-7.98,9.81ZM816.63,78.74c-4.7.71-8.71-2.51-8.96-7.21-.25-4.69,3.33-9.08,8-9.78,4.66-.7,8.68,2.55,8.96,7.23.28,4.69-3.3,9.04-8,9.75ZM835.84,50.83c-4.65.66-8.65-2.6-8.94-7.28-.29-4.69,3.21-9.03,7.82-9.68,4.61-.65,8.61,2.63,8.94,7.31.33,4.68-3.17,8.99-7.82,9.64ZM856.39,73.11c-4.7.62-8.78-2.65-9.11-7.33-.33-4.68,3.18-8.99,7.84-9.61,4.66-.62,8.74,2.69,9.11,7.36.37,4.67-3.14,8.95-7.84,9.57ZM875.13,45.66c-4.64.56-8.72-2.75-9.09-7.42-.38-4.67,3.05-8.93,7.66-9.49,4.61-.56,8.68,2.79,9.09,7.46.41,4.67-3.01,8.89-7.66,9.45ZM896.12,68.25c-4.7.52-8.84-2.81-9.26-7.48-.42-4.67,3.02-8.89,7.68-9.41,4.66-.52,8.81,2.86,9.26,7.52.46,4.66-2.98,8.84-7.68,9.36ZM914.4,41.33c-4.64.46-8.78-2.93-9.25-7.59s2.9-8.82,7.5-9.28c4.61-.45,8.74,2.98,9.24,7.63.5,4.65-2.86,8.77-7.5,9.23ZM955.91,37.83c-4.64.32-8.85-3.16-9.4-7.8s2.73-8.7,7.33-9.02c4.6-.32,8.81,3.21,9.4,7.86.59,4.64-2.69,8.65-7.33,8.97ZM977.82,61.32c-4.69.26-8.98-3.26-9.57-7.91-.59-4.64,2.7-8.65,7.35-8.91s8.94,3.32,9.57,7.96c.63,4.64-2.66,8.59-7.35,8.85ZM985.58,27.64c-.64-4.64,2.57-8.58,7.17-8.75,4.6-.18,8.88,3.47,9.55,8.11.68,4.64-2.53,8.51-7.17,8.69-4.64.18-8.91-3.41-9.55-8.05ZM1002.27,86.01c-4.75.19-9.11-3.39-9.75-8.03-.64-4.64,2.66-8.58,7.37-8.77,4.71-.19,9.07,3.45,9.75,8.09.68,4.64-2.62,8.52-7.37,8.71ZM1022.32,59.63c-4.69.09-9.05-3.57-9.74-8.2-.69-4.64,2.52-8.5,7.17-8.59,4.65-.09,9.01,3.63,9.74,8.27.73,4.64-2.48,8.43-7.17,8.52ZM1029.4,26.46c-.74-4.63,2.4-8.42,6.99-8.42,4.6,0,8.95,3.79,9.72,8.43.77,4.63-2.36,8.36-6.99,8.36-4.63,0-8.98-3.73-9.72-8.36ZM1047.29,85.09c-4.74,0-9.18-3.72-9.92-8.35-.74-4.64,2.48-8.43,7.19-8.43,4.71,0,9.14,3.79,9.92,8.42.77,4.63-2.45,8.36-7.19,8.36ZM1061.96,59.6c-4.68-.08-9.11-3.87-9.89-8.51-.78-4.63,2.36-8.36,7.01-8.27,4.65.08,9.07,3.94,9.89,8.58.81,4.63-2.33,8.29-7.01,8.2ZM1068.41,26.9c-.82-4.63,2.24-8.28,6.83-8.1,4.59.18,9.01,4.12,9.87,8.75.86,4.63-2.2,8.21-6.83,8.03-4.63-.18-9.05-4.05-9.87-8.68ZM1087.38,85.84c-4.74-.18-9.24-4.05-10.07-8.68-.82-4.63,2.33-8.28,7.03-8.1,4.7.18,9.21,4.12,10.06,8.76.86,4.63-2.29,8.21-7.03,8.02ZM1101.56,61.1c-4.68-.27-9.17-4.21-10.03-8.85-.86-4.63,2.21-8.21,6.85-7.93,4.64.27,9.13,4.29,10.03,8.92.9,4.63-2.17,8.13-6.85,7.86ZM1117.41,37.92c-4.62-.38-9.11-4.4-10.01-9.04-.91-4.64,2.08-8.13,6.67-7.75,4.59.38,9.07,4.48,10.01,9.12.94,4.64-2.04,8.05-6.67,7.67ZM1141.12,64.27c-4.68-.48-9.23-4.59-10.18-9.23s2.05-8.05,6.69-7.57c4.64.48,9.2,4.67,10.18,9.31.98,4.64-2.01,7.97-6.69,7.49ZM1156.5,42c-4.62-.59-9.17-4.79-10.16-9.43-.99-4.64,1.92-7.97,6.51-7.38s9.13,4.87,10.16,9.52c1.03,4.64-1.88,7.89-6.5,7.3ZM1180.64,69.27c-4.67-.71-9.29-5-10.33-9.64-1.03-4.64,1.89-7.89,6.52-7.19,4.63.7,9.26,5.08,10.32,9.73,1.07,4.65-1.85,7.8-6.52,7.1ZM1195.55,47.97c-4.61-.82-9.23-5.21-10.31-9.86-1.08-4.65,1.76-7.8,6.34-6.99,4.58.82,9.19,5.3,10.3,9.95,1.11,4.66-1.73,7.72-6.34,6.89ZM1159.13,825.61c-4.62-.59-9.17-4.79-10.16-9.43-.99-4.64,1.92-7.97,6.51-7.38s9.13,4.87,10.16,9.52c1.03,4.64-1.88,7.89-6.5,7.3ZM1171.89,802.48c-4.56-.69-9.1-4.97-10.13-9.62-.29-1.29-.27-2.47,0-3.49h13.03c1.66,1.7,2.92,3.81,3.42,5.98,1.07,4.65-1.76,7.81-6.33,7.12ZM1183.28,852.88c-4.67-.71-9.29-5-10.33-9.64-1.03-4.64,1.89-7.89,6.52-7.19,4.63.7,9.26,5.08,10.32,9.73,1.07,4.65-1.85,7.8-6.52,7.1ZM1198.18,831.58c-4.61-.82-9.23-5.21-10.31-9.86-1.08-4.65,1.76-7.8,6.34-6.99,4.58.82,9.19,5.3,10.3,9.95,1.11,4.66-1.73,7.72-6.34,6.89ZM1210.45,809.31c-4.56-.93-9.16-5.41-10.27-10.06s1.64-7.73,6.16-6.81c4.52.92,9.12,5.5,10.27,10.16,1.15,4.66-1.61,7.64-6.16,6.71ZM1275.44,779.07c-.67-.22-1.35-.52-2.02-.88.03-.36.06-.73.06-1.1v-13.68c3.43,2.18,6.54,6.08,7.59,9.8,1.33,4.71-1.19,7.3-5.63,5.87ZM1293.37,755.06c1.37,4.72-1.07,7.22-5.45,5.66-4.38-1.56-9.01-6.59-10.35-11.3-1.34-4.71,1.1-7.32,5.45-5.77s8.98,6.69,10.35,11.41ZM1282.27,29.42c4.51,1.46,9.24,6.5,10.57,11.21s-1.28,7.28-5.82,5.81c-4.54-1.47-9.28-6.41-10.57-11.1-1.29-4.69,1.32-7.37,5.83-5.92ZM1220.12,76.25c-4.67-.95-9.35-5.44-10.47-10.1-1.12-4.66,1.73-7.72,6.36-6.78,4.63.94,9.32,5.53,10.47,10.19,1.15,4.66-1.69,7.63-6.36,6.68ZM1234.56,55.95c-4.61-1.07-9.29-5.67-10.45-10.33-1.16-4.66,1.61-7.63,6.18-6.57,4.57,1.06,9.25,5.76,10.45,10.43s-1.57,7.54-6.18,6.47ZM1246.33,34.61c-4.55-1.18-9.22-5.88-10.42-10.55-1.2-4.67,1.49-7.56,6-6.39,4.52,1.17,9.18,5.97,10.42,10.65,1.24,4.68-1.45,7.47-6,6.29ZM1259.56,85.34c-4.66-1.21-9.41-5.92-10.61-10.59-1.2-4.67,1.57-7.54,6.2-6.34,4.62,1.2,9.37,6.01,10.61,10.69,1.24,4.68-1.54,7.45-6.2,6.24ZM1262.92,55.27c-1.25-4.68,1.45-7.46,6.02-6.13,4.57,1.33,9.31,6.26,10.59,10.95,1.28,4.69-1.41,7.36-6.01,6.03-4.6-1.33-9.35-6.16-10.59-10.84ZM1237.19,839.56c-4.61-1.07-9.29-5.67-10.45-10.33-1.16-4.66,1.61-7.63,6.18-6.57,4.57,1.06,9.25,5.76,10.45,10.43s-1.57,7.54-6.18,6.47ZM1248.96,818.22c-4.55-1.18-9.22-5.88-10.42-10.55-1.2-4.67,1.49-7.56,6-6.39,4.52,1.17,9.18,5.97,10.42,10.65,1.24,4.68-1.45,7.47-6,6.29ZM1262.44,798.87c-4.08-1.19-8.29-5.26-9.96-9.5h7.91c1.99,0,3.88-.43,5.57-1.19,1.04,1.47,1.86,3.05,2.29,4.61,1.28,4.69-1.32,7.38-5.82,6.08ZM1276.15,849.72c-4.6-1.33-9.35-6.16-10.59-10.84-1.25-4.68,1.45-7.46,6.02-6.13,4.57,1.33,9.31,6.26,10.59,10.95,1.28,4.69-1.41,7.36-6.01,6.03Z"/>
        <path class="cls-4" d="M497.54,65.34c-4.56.71-8.62,5.19-9.07,10.03-.45,4.84,2.9,8.19,7.49,7.47s8.65-5.22,9.07-10.05c.42-4.83-2.94-8.16-7.49-7.45Z"/>
        <path class="cls-4" d="M481.76,42.42c-4.5.67-8.55,5.12-9.04,9.96-.49,4.84,2.78,8.24,7.32,7.57,4.54-.67,8.59-5.15,9.04-9.99.46-4.84-2.82-8.2-7.32-7.54Z"/>
        <path class="cls-4" d="M502.26,12.92c-4.45.69-8.42,5.15-8.87,9.99-.45,4.84,2.81,8.21,7.29,7.51,4.48-.69,8.45-5.19,8.87-10.01.42-4.83-2.85-8.17-7.3-7.49Z"/>
        <path class="cls-4" d="M536.07,59.1c-4.56.76-8.55,5.28-8.92,10.1-.37,4.82,3.06,8.11,7.65,7.34s8.59-5.31,8.92-10.12c.33-4.81-3.09-8.08-7.65-7.32Z"/>
        <path class="cls-4" d="M717.7,52.81c-4.61.82-8.33,5.33-8.29,10.06.04,4.74,3.83,7.9,8.48,7.07,4.65-.83,8.36-5.32,8.29-10.05-.07-4.73-3.87-7.9-8.48-7.09Z"/>
        <path class="cls-4" d="M443.7,47.72c-4.5.59-8.62,4.98-9.2,9.84-.58,4.86,2.63,8.33,7.16,7.74,4.54-.59,8.65-5.02,9.2-9.87.54-4.85-2.66-8.29-7.16-7.71Z"/>
        <path class="cls-4" d="M389.53,27.33c-4.44.42-8.61,4.7-9.32,9.57-.71,4.88,2.34,8.5,6.82,8.07,4.48-.43,8.65-4.75,9.33-9.62.67-4.87-2.38-8.45-6.82-8.03Z"/>
        <path class="cls-4" d="M405.65,52.27c-4.5.49-8.68,4.81-9.35,9.68-.67,4.87,2.47,8.44,7,7.95,4.53-.49,8.72-4.86,9.35-9.72s-2.51-8.39-7-7.9Z"/>
        <path class="cls-4" d="M427.09,23.29c-4.44.53-8.55,4.88-9.17,9.75s2.5,8.39,6.98,7.86c4.48-.53,8.59-4.92,9.17-9.78.59-4.86-2.54-8.35-6.98-7.82Z"/>
        <path class="cls-4" d="M519.83,36.5c-4.5.73-8.48,5.22-8.89,10.05-.41,4.83,2.94,8.16,7.48,7.42,4.54-.74,8.52-5.25,8.89-10.07.37-4.82-2.98-8.13-7.48-7.4Z"/>
        <path class="cls-4" d="M636.28,16.1c-4.5.82-8.27,5.36-8.42,10.13-.15,4.77,3.42,7.97,7.96,7.14,4.54-.83,8.31-5.37,8.42-10.13.11-4.77-3.45-7.96-7.96-7.14Z"/>
        <path class="cls-4" d="M634.89,67.85c-4.61.85-8.47,5.4-8.62,10.17-.15,4.77,3.5,7.95,8.16,7.1,4.65-.85,8.51-5.41,8.62-10.18.11-4.77-3.54-7.94-8.16-7.1Z"/>
        <path class="cls-4" d="M658.63,37.22c-4.56.83-8.33,5.37-8.43,10.14-.1,4.76,3.55,7.94,8.15,7.1s8.37-5.38,8.43-10.13c.06-4.76-3.59-7.94-8.15-7.1Z"/>
        <path class="cls-4" d="M697.18,30.22c-4.56.82-8.26,5.34-8.27,10.08,0,4.75,3.71,7.92,8.3,7.09,4.59-.83,8.3-5.34,8.27-10.07-.03-4.74-3.74-7.92-8.3-7.1Z"/>
        <path class="cls-4" d="M678.68,59.83c-4.61.84-8.4,5.38-8.45,10.13-.05,4.75,3.68,7.92,8.33,7.07,4.65-.85,8.43-5.38,8.45-10.13.01-4.75-3.72-7.91-8.33-7.07Z"/>
        <path class="cls-4" d="M615.38,45.13c-4.56.83-8.41,5.38-8.6,10.16-.19,4.78,3.38,7.99,7.97,7.15,4.59-.84,8.44-5.39,8.6-10.17.16-4.78-3.41-7.97-7.97-7.14Z"/>
        <path class="cls-4" d="M576.83,52.06c-4.56.81-8.48,5.35-8.75,10.15-.28,4.8,3.22,8.04,7.82,7.23s8.51-5.37,8.75-10.16c.24-4.79-3.26-8.02-7.82-7.21Z"/>
        <path class="cls-4" d="M352,30.42c-4.44.3-8.68,4.48-9.47,9.37-.8,4.89,2.19,8.62,6.66,8.32,4.47-.31,8.72-4.54,9.48-9.42.76-4.88-2.22-8.57-6.66-8.27Z"/>
        <path class="cls-4" d="M598.19,23.01c-4.5.81-8.34,5.35-8.58,10.14-.23,4.79,3.26,8.02,7.8,7.2,4.54-.82,8.38-5.36,8.58-10.15.2-4.78-3.3-8-7.8-7.19Z"/>
        <path class="cls-4" d="M557.91,30.12c-4.5.78-8.42,5.3-8.74,10.11s3.1,8.08,7.64,7.3c4.54-.78,8.45-5.32,8.74-10.13.29-4.8-3.13-8.06-7.64-7.28Z"/>
        <path class="cls-4" d="M464.67,18.44c-4.44.62-8.48,5.03-9.02,9.88s2.66,8.29,7.14,7.67c4.48-.62,8.52-5.07,9.02-9.91s-2.69-8.26-7.14-7.64Z"/>
        <path class="cls-4" d="M63.24,45.52c1.41-4.86-1.06-9.7-5.52-10.87-4.46-1.18-9.25,1.75-10.7,6.6-1.45,4.85,1.02,9.79,5.52,10.97s9.29-1.84,10.7-6.7Z"/>
        <path class="cls-4" d="M68.28,64.94c-4.52-1.07-9.32,1.96-10.73,6.82-1.41,4.86,1.14,9.71,5.7,10.79,4.55,1.07,9.36-2.05,10.73-6.91,1.37-4.86-1.18-9.62-5.7-10.69Z"/>
        <path class="cls-4" d="M30.1,54.84c-4.51-1.33-9.38,1.47-10.87,6.3-1.49,4.84.98,9.89,5.53,11.23s9.42-1.56,10.87-6.41c1.46-4.85-1.02-9.8-5.53-11.12Z"/>
        <path class="cls-4" d="M95.47,43.52c-4.47-.93-9.19,2.22-10.55,7.09-1.36,4.87,1.18,9.61,5.68,10.55,4.5.93,9.23-2.31,10.56-7.18,1.33-4.87-1.22-9.53-5.69-10.45Z"/>
        <path class="cls-4" d="M88.85,22.86c1.37-4.86-1.09-9.61-5.5-10.65-4.41-1.04-9.12,2-10.53,6.86-1.41,4.86,1.05,9.7,5.5,10.75,4.44,1.05,9.16-2.09,10.53-6.95Z"/>
        <path class="cls-4" d="M107.82,791.94c2.75.57,5.59-.5,7.66-2.56h-11.76c1.01,1.28,2.4,2.21,4.1,2.56Z"/>
        <path class="cls-4" d="M87.55,834.22c-1.36,4.87,1.18,9.61,5.68,10.55,4.5.93,9.23-2.31,10.56-7.18,1.33-4.87-1.22-9.53-5.69-10.45s-9.19,2.22-10.55,7.09Z"/>
        <path class="cls-4" d="M126.32,30.26c1.29-4.88-1.25-9.44-5.66-10.25-4.41-.81-9.06,2.45-10.39,7.32-1.32,4.87,1.21,9.53,5.66,10.34,4.45.81,9.1-2.53,10.39-7.41Z"/>
        <path class="cls-4" d="M329.63,58.57c-4.49.24-8.81,4.38-9.65,9.27-.84,4.89,2.16,8.68,6.68,8.43,4.53-.25,8.85-4.44,9.65-9.32.8-4.89-2.19-8.62-6.69-8.38Z"/>
        <path class="cls-4" d="M43.39,803.46c4.44,1.31,9.22-1.61,10.68-6.46.82-2.74.41-5.51-.9-7.63h-.28c-3.44,0-6.57-1.27-8.91-3.32-2.67.9-4.96,3.15-5.91,6.23-1.49,4.84.9,9.87,5.33,11.18Z"/>
        <path class="cls-4" d="M49.65,824.85c-1.45,4.85,1.02,9.79,5.52,10.97s9.29-1.84,10.7-6.7c1.41-4.86-1.06-9.7-5.52-10.87-4.46-1.18-9.25,1.75-10.7,6.6Z"/>
        <path class="cls-4" d="M80.95,813.42c4.44,1.05,9.16-2.09,10.53-6.95,1.37-4.86-1.09-9.61-5.5-10.65-4.41-1.04-9.12,2-10.53,6.86-1.41,4.86,1.05,9.7,5.5,10.75Z"/>
        <path class="cls-4" d="M249.07,60.11c-4.48-.09-8.94,3.78-9.96,8.68-1.02,4.9,1.82,8.97,6.34,9.05,4.52.09,8.98-3.85,9.96-8.74.98-4.9-1.86-8.9-6.34-8.99Z"/>
        <path class="cls-4" d="M234.96,32.41c-4.43-.18-8.88,3.61-9.94,8.51-1.06,4.9,1.69,9.05,6.16,9.22,4.46.18,8.91-3.68,9.94-8.58,1.03-4.9-1.73-8.98-6.16-9.15Z"/>
        <path class="cls-4" d="M272.42,33.18c-4.43,0-8.81,3.92-9.79,8.82-.98,4.9,1.85,8.9,6.32,8.91,4.47,0,8.85-3.99,9.79-8.88.94-4.89-1.89-8.84-6.32-8.84Z"/>
        <path class="cls-4" d="M287.02,60.12c-4.49.08-8.88,4.08-9.81,8.97-.93,4.89,1.98,8.83,6.5,8.75,4.53-.08,8.92-4.14,9.82-9.04s-2.02-8.76-6.51-8.69Z"/>
        <path class="cls-4" d="M314.48,32.41c-4.43.17-8.74,4.24-9.62,9.13-.88,4.89,2.03,8.75,6.5,8.58,4.47-.17,8.78-4.3,9.63-9.19.84-4.89-2.07-8.69-6.5-8.52Z"/>
        <path class="cls-4" d="M163.83,35.74c1.2-4.89-1.41-9.28-5.83-9.87-4.42-.58-9,2.86-10.24,7.75-1.24,4.89,1.37,9.36,5.82,9.95,4.45.59,9.04-2.94,10.24-7.83Z"/>
        <path class="cls-4" d="M171.11,55.3c-4.48-.48-9.07,3.06-10.26,7.95-1.19,4.89,1.5,9.28,6.01,9.76,4.51.48,9.11-3.14,10.27-8.03,1.16-4.89-1.54-9.21-6.01-9.68Z"/>
        <path class="cls-4" d="M208.98,58.49c-4.48-.28-9.01,3.43-10.12,8.32-1.11,4.89,1.66,9.13,6.17,9.41,4.52.28,9.05-3.5,10.12-8.4,1.07-4.9-1.69-9.05-6.17-9.33Z"/>
        <path class="cls-4" d="M133.27,50.36c-4.47-.69-9.13,2.66-10.41,7.54-1.28,4.88,1.34,9.45,5.85,10.14,4.51.7,9.17-2.74,10.41-7.62,1.24-4.88-1.38-9.36-5.85-10.06Z"/>
        <path class="cls-4" d="M195.39,29.93c-4.42-.38-8.94,3.24-10.09,8.14-1.15,4.89,1.53,9.21,5.99,9.59,4.46.38,8.98-3.32,10.1-8.21,1.12-4.89-1.57-9.13-5.99-9.51Z"/>
        <path class="cls-4" d="M912.66,24.46c-4.61.45-7.96,4.62-7.5,9.28s4.6,8.04,9.25,7.59c4.64-.46,8-4.58,7.5-9.23-.5-4.65-4.64-8.08-9.24-7.63Z"/>
        <path class="cls-4" d="M756.72,46.04c-4.61.78-8.25,5.24-8.13,9.96s3.99,7.9,8.64,7.11c4.65-.79,8.29-5.23,8.13-9.94-.16-4.71-4.02-7.91-8.64-7.13Z"/>
        <path class="cls-4" d="M1194.22,814.73c-4.58-.82-7.42,2.34-6.34,6.99,1.08,4.65,5.69,9.04,10.31,9.86,4.61.82,7.45-2.24,6.34-6.89-1.11-4.66-5.72-9.14-10.3-9.95Z"/>
        <path class="cls-4" d="M1206.34,792.44c-4.52-.92-7.28,2.15-6.16,6.81s5.72,9.14,10.27,10.06c4.56.93,7.31-2.05,6.16-6.71-1.15-4.66-5.75-9.24-10.27-10.16Z"/>
        <path class="cls-4" d="M1273.48,763.4v13.68c0,.37-.02.74-.06,1.1.67.37,1.35.67,2.02.88,4.44,1.44,6.96-1.16,5.63-5.87-1.05-3.71-4.16-7.61-7.59-9.8Z"/>
        <path class="cls-4" d="M1283.02,743.65c-4.34-1.55-6.78,1.06-5.45,5.77,1.34,4.71,5.97,9.74,10.35,11.3,4.38,1.56,6.82-.94,5.45-5.66-1.37-4.72-6-9.86-10.35-11.41Z"/>
        <path class="cls-4" d="M1155.48,808.8c-4.58-.59-7.5,2.74-6.51,7.38.99,4.64,5.54,8.84,10.16,9.43,4.62.59,7.53-2.65,6.5-7.3-1.03-4.64-5.57-8.93-10.16-9.52Z"/>
        <path class="cls-4" d="M1178.21,795.36c-.5-2.17-1.76-4.28-3.42-5.98h-13.03c-.26,1.02-.28,2.2,0,3.49,1.03,4.64,5.57,8.93,10.13,9.62,4.56.69,7.39-2.47,6.33-7.12Z"/>
        <path class="cls-4" d="M1176.84,52.45c-4.63-.7-7.56,2.54-6.52,7.19,1.03,4.64,5.66,8.94,10.33,9.64,4.67.71,7.59-2.45,6.52-7.1-1.07-4.65-5.69-9.03-10.32-9.73Z"/>
        <path class="cls-4" d="M1191.59,31.12c-4.58-.82-7.42,2.34-6.34,6.99,1.08,4.65,5.69,9.04,10.31,9.86,4.61.82,7.45-2.24,6.34-6.89-1.11-4.66-5.72-9.14-10.3-9.95Z"/>
        <path class="cls-4" d="M1287.01,46.44c4.55,1.47,7.15-1.1,5.82-5.81s-6.06-9.75-10.57-11.21c-4.51-1.46-7.12,1.22-5.83,5.92,1.29,4.69,6.02,9.64,10.57,11.1Z"/>
        <path class="cls-4" d="M1230.29,39.05c-4.57-1.06-7.34,1.91-6.18,6.57,1.16,4.66,5.84,9.26,10.45,10.33,4.61,1.07,7.37-1.8,6.18-6.47s-5.87-9.37-10.45-10.43Z"/>
        <path class="cls-4" d="M1268.25,792.8c-.43-1.56-1.25-3.14-2.29-4.61-1.69.75-3.58,1.19-5.57,1.19h-7.91c1.67,4.24,5.88,8.31,9.96,9.5,4.49,1.31,7.1-1.39,5.82-6.08Z"/>
        <path class="cls-4" d="M1244.55,801.29c-4.51-1.17-7.2,1.71-6,6.39,1.2,4.67,5.87,9.37,10.42,10.55,4.55,1.18,7.24-1.61,6-6.29-1.24-4.68-5.9-9.48-10.42-10.65Z"/>
        <path class="cls-4" d="M1271.57,832.75c-4.57-1.33-7.26,1.45-6.02,6.13,1.25,4.68,5.99,9.51,10.59,10.84,4.6,1.33,7.3-1.33,6.01-6.03-1.28-4.69-6.02-9.62-10.59-10.95Z"/>
        <path class="cls-4" d="M1232.92,822.66c-4.57-1.06-7.34,1.91-6.18,6.57,1.16,4.66,5.84,9.26,10.45,10.33,4.61,1.07,7.37-1.8,6.18-6.47s-5.87-9.37-10.45-10.43Z"/>
        <path class="cls-4" d="M118.57,821.28c4.45.81,9.1-2.53,10.39-7.41s-1.25-9.44-5.66-10.25c-4.41-.81-9.06,2.45-10.39,7.32-1.32,4.87,1.21,9.53,5.66,10.34Z"/>
        <path class="cls-4" d="M1252.33,28.32c-1.24-4.68-5.9-9.48-10.42-10.65-4.51-1.17-7.2,1.71-6,6.39,1.2,4.67,5.87,9.37,10.42,10.55,4.55,1.18,7.24-1.61,6-6.29Z"/>
        <path class="cls-4" d="M1216.01,59.37c-4.63-.94-7.48,2.12-6.36,6.78,1.12,4.66,5.81,9.15,10.47,10.1,4.67.95,7.51-2.02,6.36-6.68-1.15-4.66-5.84-9.25-10.47-10.19Z"/>
        <path class="cls-4" d="M1152.85,25.19c-4.58-.59-7.5,2.74-6.51,7.38.99,4.64,5.54,8.84,10.16,9.43,4.62.59,7.53-2.65,6.5-7.3-1.03-4.64-5.57-8.93-10.16-9.52Z"/>
        <path class="cls-4" d="M1279.53,60.08c-1.28-4.69-6.02-9.62-10.59-10.95-4.57-1.33-7.26,1.45-6.02,6.13,1.25,4.68,5.99,9.51,10.59,10.84,4.6,1.33,7.3-1.33,6.01-6.03Z"/>
        <path class="cls-4" d="M1255.14,68.4c-4.62-1.2-7.4,1.67-6.2,6.34,1.2,4.67,5.95,9.39,10.61,10.59,4.66,1.21,7.43-1.56,6.2-6.24-1.24-4.68-5.99-9.5-10.61-10.69Z"/>
        <path class="cls-4" d="M1179.47,836.06c-4.63-.7-7.56,2.54-6.52,7.19,1.03,4.64,5.66,8.94,10.33,9.64,4.67.71,7.59-2.45,6.52-7.1-1.07-4.65-5.69-9.03-10.32-9.73Z"/>
        <path class="cls-4" d="M855.11,56.17c-4.66.62-8.17,4.93-7.84,9.61.33,4.68,4.41,7.95,9.11,7.33,4.7-.62,8.21-4.9,7.84-9.57-.37-4.67-4.45-7.98-9.11-7.36Z"/>
        <path class="cls-4" d="M873.7,28.75c-4.61.56-8.04,4.82-7.66,9.49.38,4.67,4.45,7.98,9.09,7.42,4.64-.56,8.07-4.78,7.66-9.45-.41-4.67-4.49-8.01-9.09-7.46Z"/>
        <path class="cls-4" d="M1137.63,47.48c-4.64-.48-7.63,2.94-6.69,7.57s5.5,8.74,10.18,9.23c4.68.48,7.67-2.85,6.69-7.49-.98-4.64-5.54-8.83-10.18-9.31Z"/>
        <path class="cls-4" d="M834.72,33.87c-4.61.65-8.11,4.99-7.82,9.68.29,4.69,4.3,7.94,8.94,7.28,4.65-.66,8.15-4.96,7.82-9.64-.33-4.68-4.33-7.96-8.94-7.31Z"/>
        <path class="cls-4" d="M894.54,51.36c-4.66.52-8.1,4.74-7.68,9.41.42,4.67,4.57,8,9.26,7.48,4.7-.52,8.14-4.7,7.68-9.36-.46-4.66-4.6-8.04-9.26-7.52Z"/>
        <path class="cls-4" d="M795.72,39.68c-4.61.72-8.18,5.13-7.98,9.83.21,4.7,4.14,7.91,8.79,7.18,4.65-.73,8.22-5.11,7.98-9.81-.24-4.69-4.18-7.93-8.79-7.2Z"/>
        <path class="cls-4" d="M776.22,67.95c-4.67.76-8.32,5.21-8.16,9.92.16,4.71,4.1,7.89,8.81,7.12,4.7-.77,8.35-5.2,8.16-9.9-.2-4.7-4.14-7.91-8.81-7.14Z"/>
        <path class="cls-4" d="M815.67,61.75c-4.66.7-8.25,5.09-8,9.78.25,4.69,4.26,7.91,8.96,7.21,4.7-.71,8.28-5.06,8-9.75-.28-4.69-4.3-7.93-8.96-7.23Z"/>
        <path class="cls-4" d="M774.92,33.94c4.59-.75,8.16-5.16,7.96-9.86-.2-4.7-4.05-7.92-8.61-7.18-4.56.74-8.12,5.17-7.96,9.88.16,4.71,4.02,7.91,8.61,7.16Z"/>
        <path class="cls-4" d="M975.6,44.5c-4.66.26-7.95,4.26-7.35,8.91.59,4.64,4.88,8.17,9.57,7.91,4.69-.26,7.98-4.21,7.35-8.85-.63-4.64-4.92-8.22-9.57-7.96Z"/>
        <path class="cls-4" d="M953.84,21c-4.6.32-7.89,4.37-7.33,9.02s4.76,8.13,9.4,7.8c4.64-.32,7.92-4.32,7.33-8.97-.59-4.64-4.8-8.18-9.4-7.86Z"/>
        <path class="cls-4" d="M1084.34,69.06c-4.7-.18-7.85,3.46-7.03,8.1.82,4.63,5.33,8.5,10.07,8.68,4.74.18,7.88-3.39,7.03-8.02-.86-4.63-5.36-8.57-10.06-8.76Z"/>
        <path class="cls-4" d="M1085.11,27.55c-.86-4.63-5.27-8.57-9.87-8.75-4.59-.18-7.65,3.47-6.83,8.1.82,4.63,5.24,8.5,9.87,8.68,4.63.18,7.69-3.39,6.83-8.03Z"/>
        <path class="cls-4" d="M1114.06,21.13c-4.59-.38-7.57,3.12-6.67,7.75.91,4.64,5.39,8.66,10.01,9.04,4.62.38,7.61-3.04,6.67-7.67-.94-4.64-5.42-8.74-10.01-9.12Z"/>
        <path class="cls-4" d="M1098.37,44.31c-4.64-.27-7.71,3.3-6.85,7.93.86,4.63,5.35,8.57,10.03,8.85,4.68.27,7.75-3.22,6.85-7.86-.9-4.64-5.39-8.65-10.03-8.92Z"/>
        <path class="cls-4" d="M1059.08,42.82c-4.65-.08-7.79,3.64-7.01,8.27.78,4.63,5.2,8.42,9.89,8.51,4.68.08,7.82-3.57,7.01-8.2-.81-4.63-5.24-8.49-9.89-8.58Z"/>
        <path class="cls-4" d="M999.89,69.21c-4.71.19-8.01,4.13-7.37,8.77.64,4.64,5.01,8.22,9.75,8.03,4.75-.19,8.04-4.07,7.37-8.71-.68-4.64-5.04-8.28-9.75-8.09Z"/>
        <path class="cls-4" d="M1019.76,42.84c-4.65.09-7.86,3.95-7.17,8.59.69,4.64,5.05,8.29,9.74,8.2,4.69-.09,7.9-3.89,7.17-8.52-.73-4.64-5.09-8.35-9.74-8.27Z"/>
        <path class="cls-4" d="M1002.31,26.99c-.68-4.64-4.95-8.28-9.55-8.11-4.6.18-7.81,4.11-7.17,8.75.64,4.64,4.92,8.23,9.55,8.05,4.64-.18,7.85-4.06,7.17-8.69Z"/>
        <path class="cls-4" d="M1044.56,68.31c-4.71,0-7.92,3.79-7.19,8.43.74,4.64,5.18,8.36,9.92,8.35,4.74,0,7.96-3.73,7.19-8.36-.77-4.63-5.21-8.42-9.92-8.42Z"/>
        <path class="cls-4" d="M1046.11,26.46c-.77-4.63-5.12-8.43-9.72-8.43-4.6,0-7.73,3.79-6.99,8.42.74,4.64,5.09,8.36,9.72,8.36,4.63,0,7.76-3.72,6.99-8.36Z"/>
        <path class="cls-4" d="M735.73,23.4c-4.56.79-8.19,5.27-8.11,10,.08,4.73,3.86,7.91,8.46,7.11,4.59-.8,8.23-5.26,8.11-9.98s-3.9-7.91-8.46-7.12Z"/>
        <path class="cls-4" d="M971.68,10.89h-2.04c.5.06,1.01.1,1.52.07.18,0,.34-.05.51-.07Z"/>
        <path class="cls-4" d="M932.4,13.66c2.21-.19,4.1-1.23,5.42-2.78h-12.4c1.74,1.9,4.28,3,6.98,2.78Z"/>
        <path class="cls-4" d="M891.38,17.67c3.73-.41,6.63-3.24,7.35-6.78h-16.32c.75,4.28,4.62,7.26,8.96,6.78Z"/>
        <path class="cls-4" d="M804.99,20.61c.25,4.69,4.17,7.93,8.76,7.24,4.59-.69,8.08-5.03,7.8-9.72-.23-3.82-2.87-6.69-6.3-7.26h-2.53c-4.52.72-7.97,5.06-7.73,9.73Z"/>
        <path class="cls-4" d="M843.66,15.03c.33,4.68,4.32,7.96,8.91,7.36,4.59-.61,8.01-4.87,7.64-9.54-.05-.69-.21-1.34-.41-1.96h-15.44c-.54,1.28-.81,2.69-.7,4.14Z"/>
        <path class="cls-4" d="M1136.77,10.89h-12.48c1.81,1.67,4.07,2.83,6.36,3.07,2.9.3,5.12-.94,6.11-3.07Z"/>
        <path class="cls-4" d="M1259.8,15.26c3.92,1.14,6.4-.76,6.12-4.38h-12.76c1.92,2.07,4.3,3.7,6.64,4.38Z"/>
        <path class="cls-4" d="M1289.43,16.88c.84,2.98,3.05,6.09,5.68,8.39v-2.8c0-4.21-2.27-7.89-5.64-9.92-.5,1.06-.55,2.54-.05,4.33Z"/>
        <path class="cls-4" d="M755.71,11.97c1.04-.18,2.02-.56,2.92-1.09h-8.21c1.45.99,3.3,1.42,5.29,1.09Z"/>
        <path class="cls-4" d="M1169.26,18.87c4.56.69,7.39-2.47,6.33-7.12-.07-.29-.15-.57-.24-.86h-15.7c1.6,3.98,5.59,7.37,9.61,7.98Z"/>
        <path class="cls-4" d="M1197.54,15.64c1.12,4.66,5.72,9.14,10.27,10.06,4.56.93,7.31-2.05,6.16-6.71-.76-3.09-3.04-6.13-5.8-8.1h-10.19c-.7,1.21-.9,2.85-.44,4.75Z"/>
        <path class="cls-4" d="M717.32,18.61c3.8-.67,6.94-3.92,7.83-7.73h-16.1c-.01.2-.02.41-.02.61.04,4.74,3.74,7.92,8.28,7.11Z"/>
        <path class="cls-4" d="M372.93,20.68c4.42-.37,8.59-4.64,9.3-9.52.01-.09.02-.19.03-.28h-15.59c-.16.52-.3,1.05-.38,1.6-.75,4.88,2.22,8.56,6.65,8.2Z"/>
        <path class="cls-4" d="M410.33,17.1c3.32-.36,6.46-2.9,8.08-6.21h-14.97c.2,3.94,3.01,6.63,6.89,6.21Z"/>
        <path class="cls-4" d="M335.54,23.25c4.42-.24,8.65-4.42,9.45-9.3.18-1.09.17-2.12,0-3.06h-14.47c-.72,1.2-1.23,2.53-1.47,3.92-.84,4.89,2.07,8.68,6.49,8.45Z"/>
        <path class="cls-4" d="M256.3,24.72c4.41.09,8.78-3.84,9.77-8.74.38-1.89.2-3.65-.42-5.1h-13.21c-1.09,1.37-1.91,3-2.28,4.78-1.02,4.9,1.73,8.97,6.15,9.06Z"/>
        <path class="cls-4" d="M293.62,24.76c4.42-.08,8.72-4.13,9.62-9.03.33-1.8.15-3.47-.42-4.85h-13.08c-1.19,1.45-2.06,3.22-2.43,5.12-.93,4.89,1.89,8.83,6.31,8.76Z"/>
        <path class="cls-4" d="M670.78,18.4c-.05,4.75,3.59,7.94,8.13,7.11,4.54-.82,8.23-5.34,8.25-10.08,0-1.77-.5-3.33-1.37-4.54h-11.63c-2.02,1.93-3.35,4.68-3.38,7.51Z"/>
        <path class="cls-4" d="M1290.44,86.26c.47,1.71,1.41,3.46,2.65,5.06.69-.13,1.36-.32,2.02-.54v-10.7c-3.77-.59-5.83,1.97-4.67,6.18Z"/>
        <path class="cls-4" d="M578.7,17.39c3.32-.59,6.28-3.22,7.69-6.5h-15.31c.11,4.37,3.39,7.25,7.63,6.5Z"/>
        <path class="cls-4" d="M447.75,12.64c1.48-.19,2.9-.83,4.17-1.75h-9.42c1.26,1.34,3.1,2.03,5.26,1.75Z"/>
        <path class="cls-4" d="M538.6,24.29c4.48-.75,8.39-5.27,8.72-10.08.08-1.22-.07-2.34-.42-3.33h-13.35c-1.34,1.73-2.24,3.85-2.4,6.03-.37,4.82,2.97,8.13,7.45,7.38Z"/>
        <path class="cls-4" d="M332.26,842.18c-4.49.24-8.81,4.38-9.65,9.27-.13.73-.16,1.44-.12,2.11h15.48c.46-.95.8-1.96.97-3,.8-4.89-2.19-8.62-6.69-8.38Z"/>
        <path class="cls-4" d="M275.05,816.79c-4.43,0-8.81,3.92-9.79,8.82-.98,4.9,1.85,8.9,6.32,8.91,4.47,0,8.85-3.99,9.79-8.88.94-4.89-1.89-8.84-6.32-8.84Z"/>
        <path class="cls-4" d="M317.11,816.02c-4.43.17-8.74,4.24-9.62,9.13-.88,4.89,2.03,8.75,6.5,8.58,4.47-.17,8.78-4.3,9.63-9.19.84-4.89-2.07-8.69-6.5-8.52Z"/>
        <path class="cls-4" d="M1080.92,819.18c4.63.18,7.69-3.39,6.83-8.03-.08-.45-.21-.88-.35-1.31h-16.43c.02.22.04.44.08.66.82,4.63,5.24,8.5,9.87,8.68Z"/>
        <path class="cls-4" d="M1292.06,800.49c.54,1.9,1.64,3.86,3.05,5.63v-11.79c-2.76.1-4.1,2.47-3.05,6.16Z"/>
        <path class="cls-4" d="M370.27,839.54c-4.49.38-8.75,4.61-9.5,9.49-.26,1.69-.05,3.24.51,4.52h13.04c1.44-1.65,2.47-3.71,2.79-5.89.71-4.88-2.35-8.5-6.85-8.13Z"/>
        <path class="cls-4" d="M216.85,23.11c4.41.28,8.85-3.5,9.92-8.4.3-1.36.3-2.65.07-3.83h-14.88c-.48.88-.85,1.82-1.08,2.83-1.11,4.89,1.57,9.12,5.97,9.4Z"/>
        <path class="cls-4" d="M1041.75,818.43c4.63,0,7.76-3.72,6.99-8.36-.01-.08-.03-.15-.05-.23h-16.68c0,.07.01.15.02.22.74,4.64,5.09,8.36,9.72,8.36Z"/>
        <path class="cls-4" d="M243.91,824.2h-1.82v4.87c.78-1.17,1.37-2.48,1.66-3.89.07-.33.12-.66.15-.98Z"/>
        <path class="cls-4" d="M392.17,810.94c-4.44.42-8.61,4.7-9.32,9.57-.71,4.88,2.34,8.5,6.82,8.07,2.73-.26,5.34-1.97,7.12-4.36v-11.21c0-.29-.05-.57-.13-.84-1.18-.93-2.72-1.4-4.48-1.23Z"/>
        <path class="cls-4" d="M289.65,843.73c-4.49.08-8.88,4.08-9.81,8.97-.05.29-.09.57-.12.85h16.16c.11-.38.21-.75.28-1.14.9-4.89-2.02-8.76-6.51-8.69Z"/>
        <path class="cls-4" d="M354.63,814.03c-4.44.3-8.68,4.48-9.47,9.37-.8,4.89,2.19,8.62,6.66,8.32,4.47-.31,8.72-4.54,9.48-9.42.76-4.88-2.22-8.57-6.66-8.27Z"/>
        <path class="cls-4" d="M1022.39,826.45c-4.65.09-7.86,3.95-7.17,8.59.69,4.64,5.05,8.29,9.74,8.2,4.69-.09,7.9-3.89,7.17-8.52-.73-4.64-5.09-8.35-9.74-8.27Z"/>
        <path class="cls-4" d="M1061.72,826.43c-4.65-.08-7.79,3.64-7.01,8.27.78,4.63,5.2,8.42,9.89,8.51,4.68.08,7.82-3.57,7.01-8.2-.81-4.63-5.24-8.49-9.89-8.58Z"/>
        <path class="cls-4" d="M978.23,828.11c-4.66.26-7.95,4.26-7.35,8.91.59,4.64,4.88,8.17,9.57,7.91,4.69-.26,7.98-4.21,7.35-8.85-.63-4.64-4.92-8.22-9.57-7.96Z"/>
        <path class="cls-4" d="M233.52,817.94h2.39v-1.8c-1.42.26-2.78.89-4,1.8h1.61Z"/>
        <path class="cls-4" d="M1284.9,813.03c-4.51-1.46-7.12,1.22-5.83,5.92,1.29,4.69,6.02,9.64,10.57,11.1,2.55.82,4.5.37,5.47-1.02v-5.84c-1.68-4.39-6.04-8.82-10.21-10.17Z"/>
        <path class="cls-4" d="M1042.51,853.49h9.88c-1.56-.98-3.35-1.57-5.2-1.57-1.84,0-3.45.59-4.69,1.57Z"/>
        <path class="cls-4" d="M988.22,811.25c.64,4.64,4.92,8.23,9.55,8.05,4.64-.18,7.85-4.06,7.17-8.69-.04-.26-.09-.51-.15-.76h-16.64c-.01.46,0,.93.07,1.4Z"/>
        <path class="cls-4" d="M999.59,853.49h6.67c-1.18-.47-2.45-.72-3.74-.67-1.06.04-2.04.28-2.93.67Z"/>
        <path class="cls-4" d="M1101.01,827.92c-4.64-.27-7.71,3.3-6.85,7.93.86,4.63,5.35,8.57,10.03,8.85,1.04.06,1.99-.07,2.84-.35.33-2.64,1.92-4.91,4.15-6.2-.01-.42-.05-.86-.14-1.3-.9-4.64-5.39-8.65-10.03-8.92Z"/>
        <path class="cls-4" d="M1083.19,853.49h7.28c-1.11-.48-2.3-.77-3.49-.82-1.43-.05-2.71.25-3.79.82Z"/>
        <path class="cls-4" d="M838.09,84.66c-2.19.31-4.11,1.43-5.54,2.98h13.06c-1.68-2.19-4.46-3.42-7.52-2.98Z"/>
        <path class="cls-4" d="M910.19,84.28c.12,1.23.53,2.36,1.12,3.37h3.17c.79-1.82,2.93-3.37,5.97-4.44-.06-.87.02-1.78.25-2.69.34-1.32.68-2.54,1.01-3.65-1.99-.35-3.65-.93-4.94-1.7-4.13.96-7.02,4.83-6.59,9.11Z"/>
        <path class="cls-4" d="M878,79.39c-4.29.52-7.57,4.1-7.86,8.25h17.16c0-.28.01-.55-.01-.83-.41-4.67-4.57-8-9.29-7.43Z"/>
        <path class="cls-4" d="M554.61,82.27c-3.01.52-5.76,2.64-7.39,5.38h15.13c-.6-3.74-3.76-6.07-7.74-5.38Z"/>
        <path class="cls-4" d="M1163.79,75.55c-4.69-.6-7.69,2.72-6.7,7.36.24,1.13.72,2.23,1.35,3.27h15.88c-.03-.36-.09-.72-.17-1.1-1.03-4.64-5.66-8.94-10.36-9.54Z"/>
        <path class="cls-4" d="M969.65,79.24c-.59-4.65-4.89-8.17-9.6-7.84-4.71.33-8.08,4.39-7.53,9.04.28,2.31,1.47,4.32,3.19,5.73.16,0,.32.01.49.01h10.86c1.89-1.67,2.94-4.19,2.59-6.94Z"/>
        <path class="cls-4" d="M1134.3,80.55c-.94-4.64-5.51-8.75-10.21-9.13-4.7-.38-7.77,3.11-6.87,7.74.54,2.78,2.41,5.33,4.83,7.02h11.01c1.19-1.38,1.7-3.36,1.24-5.63Z"/>
        <path class="cls-4" d="M125.49,841.5c-1.28,4.88,1.34,9.45,5.85,10.14,4.51.7,9.17-2.74,10.41-7.62,1.24-4.88-1.38-9.36-5.85-10.06-4.47-.69-9.13,2.66-10.41,7.54Z"/>
        <path class="cls-4" d="M179.59,19.96c4.4.47,8.91-3.15,10.07-8.04.08-.35.14-.69.18-1.03h-16.2c-.81,4.61,1.75,8.62,5.95,9.07Z"/>
        <path class="cls-4" d="M697.28,81.65c-3.26.59-6.09,2.99-7.5,6h15.92c-.54-4.14-4.11-6.78-8.42-6Z"/>
        <path class="cls-4" d="M736.75,74.64c-4.67.81-8.39,5.31-8.31,10.04.02,1.09.26,2.08.64,2.98h14.38c1.25-1.72,1.99-3.8,1.94-5.93-.11-4.72-3.99-7.9-8.65-7.08Z"/>
        <path class="cls-4" d="M938.12,64.12c4.69-.4,8.06-4.46,7.51-9.11s-4.76-8.12-9.42-7.73c-4.21.36-7.36,3.76-7.54,7.85,2.27.65,4.19,2.45,5.05,4.92.28.82.68,1.53,1.16,2.09.52.6,1.04,1.26,1.57,1.97.55.06,1.11.07,1.67.02Z"/>
        <path class="cls-4" d="M182.23,803.57c4.4.47,8.91-3.15,10.07-8.04.54-2.29.25-4.45-.66-6.15h-12.95c-1.05,1.25-1.86,2.77-2.27,4.45-1.19,4.89,1.41,9.28,5.81,9.75Z"/>
        <path class="cls-4" d="M187.93,821.68c-1.15,4.89,1.53,9.21,5.99,9.59,4.46.38,8.98-3.32,10.1-8.21,1.12-4.89-1.57-9.13-5.99-9.51-4.42-.38-8.94,3.24-10.09,8.14Z"/>
        <path class="cls-4" d="M150.4,817.23c-1.24,4.89,1.37,9.36,5.82,9.95,4.45.59,9.04-2.94,10.24-7.83,1.2-4.89-1.41-9.28-5.83-9.87-4.42-.58-9,2.86-10.24,7.75Z"/>
        <path class="cls-4" d="M219.49,806.72c4.41.28,8.85-3.5,9.92-8.4.91-4.17-.9-7.79-4.15-8.95h-4.68c-3.3,1.05-6.2,4.13-7.06,7.95-1.11,4.89,1.57,9.12,5.97,9.4Z"/>
        <path class="cls-4" d="M145.01,798.68c4.4.69,8.97-2.76,10.21-7.65.14-.56.22-1.12.26-1.67h-16.3c-.81,4.57,1.67,8.66,5.82,9.31Z"/>
        <path class="cls-4" d="M1218.65,842.98c-4.63-.94-7.48,2.12-6.36,6.78.3,1.25.86,2.48,1.61,3.64l15.27-.02c-.02-.07-.02-.14-.04-.21-1.15-4.66-5.84-9.25-10.47-10.19Z"/>
        <path class="cls-4" d="M1139.78,790.06c-.05-.23-.11-.46-.18-.69h-8.7c-1.08,1.25-1.83,3.17-1.83,6.16v.57c1.32.79,2.76,1.31,4.21,1.46,4.57.47,7.47-2.86,6.49-7.5Z"/>
        <path class="cls-4" d="M1252.18,853.36h8.71c-1.02-.61-2.07-1.07-3.11-1.34-2.54-.66-4.52-.08-5.59,1.34Z"/>
        <path class="cls-4" d="M1150.44,840.39c-.85-4.02-4.38-7.7-8.33-8.92v16.09c.54.15,1.09.26,1.64.32,4.68.48,7.67-2.85,6.69-7.49Z"/>
        <path class="cls-4" d="M1203.46,81.59c-3.84-.68-6.49,1.3-6.74,4.6h14.31c-2.04-2.33-4.8-4.1-7.57-4.6Z"/>
        <path class="cls-4" d="M595.87,74.96c-4.61.83-8.54,5.39-8.77,10.18-.04.9.06,1.74.27,2.51h14.58c1.13-1.65,1.85-3.57,1.93-5.54.2-4.78-3.39-7.98-8-7.15Z"/>
        <path class="cls-4" d="M70.91,848.55c-3.85-.91-7.9,1.16-9.89,4.8h15.35c-.93-2.35-2.87-4.19-5.46-4.8Z"/>
        <path class="cls-4" d="M17.16,824.7c4.49,1.45,9.35-1.35,10.84-6.18,1.5-4.84-.9-9.87-5.36-11.31-3.68-1.19-7.63.45-9.76,3.77v10.43c1.01,1.52,2.47,2.7,4.28,3.29Z"/>
        <path class="cls-4" d="M32.73,838.45c-4.51-1.33-9.38,1.47-10.87,6.3-.95,3.09-.28,6.27,1.51,8.51.36.03.73.06,1.1.06h11.67c.94-1.03,1.69-2.3,2.12-3.75,1.46-4.85-1.02-9.8-5.53-11.12Z"/>
        <path class="cls-4" d="M211.62,842.1c-4.48-.28-9.01,3.43-10.12,8.32-.24,1.06-.29,2.08-.19,3.05h15.8c.29-.64.53-1.33.68-2.04,1.07-4.9-1.69-9.05-6.17-9.33Z"/>
        <path class="cls-4" d="M173.74,838.91c-4.48-.48-9.07,3.06-10.26,7.95-.6,2.47-.21,4.8.9,6.58h12.78c1.23-1.32,2.17-2.99,2.6-4.84,1.16-4.89-1.54-9.21-6.01-9.68Z"/>
        <path class="cls-4" d="M25.37,34.91c1.5-4.84-.9-9.87-5.36-11.31-2.46-.8-5.05-.33-7.13,1.07v15.68c.51.31,1.06.56,1.64.75,4.49,1.45,9.35-1.35,10.84-6.18Z"/>
        <path class="cls-4" d="M16.69,785.34c1.37-4.29-.32-8.82-3.8-10.87v15.91c1.72-1.11,3.1-2.85,3.8-5.04Z"/>
        <path class="cls-4" d="M142.37,15.07c3.26.51,6.61-1.26,8.63-4.19h-13.92c.95,2.2,2.82,3.8,5.29,4.19Z"/>
        <path class="cls-4" d="M40.75,19.85c4.44,1.31,9.22-1.61,10.68-6.46.25-.84.38-1.68.41-2.51h-16.82c-.3,4.07,1.98,7.86,5.74,8.97Z"/>
        <path class="cls-4" d="M28.43,760.94c-1.53,4.82.78,9.94,5.16,11.36,2.12.69,4.32.37,6.2-.68v-1.96c-.4-1.07-.63-2.21-.63-3.4v-11.42s-.05-.02-.08-.03c-4.35-1.41-9.11,1.31-10.64,6.13Z"/>
        <path class="cls-4" d="M144.77,78.89c-4.39-.58-8.91,2.64-10.31,7.3h16.61c-.12-3.77-2.59-6.81-6.3-7.3Z"/>
        <path class="cls-4" d="M343.56,83.39c-2.19.15-4.32,1.2-6.03,2.8h7.12c1.59,0,3.15-.05,4.69-.13-1.21-1.79-3.27-2.84-5.78-2.67Z"/>
        <path class="cls-4" d="M367.63,55.94c-4.49.38-8.75,4.61-9.5,9.49-.75,4.88,2.31,8.55,6.84,8.17.95-.08,1.88-.34,2.77-.73-.02-.04-.05-.07-.07-.11-.81-1.52-.69-3.3.33-4.9,1.42-2.24,2.82-4.17,4.18-5.73.49-.56.88-1.27,1.16-2.09.11-.32.25-.62.4-.92-1.14-2.14-3.35-3.41-6.1-3.18Z"/>
        <path class="cls-4" d="M386.5,81.31c.09.54.14,1.07.12,1.59.62.19,1.19.4,1.75.62-.45-.9-1.09-1.64-1.87-2.21Z"/>
        <path class="cls-4" d="M420.51,76.03c-4.55.54-8.75,4.91-9.37,9.77-.08.64-.09,1.26-.05,1.84h15.35c.64-1.2,1.09-2.49,1.25-3.82.59-4.86-2.63-8.34-7.18-7.79Z"/>
        <path class="cls-4" d="M32.28,91.64h9.21c.99-1.18,2.25-2.16,3.69-2.85-.85-.69-1.85-1.21-2.97-1.51-3.83-1.01-7.86.88-9.93,4.36Z"/>
        <path class="cls-4" d="M302.02,86.19h6.48c-.97-.5-2.11-.77-3.38-.72-1.06.04-2.1.3-3.1.72Z"/>
        <path class="cls-4" d="M220.05,86.19h6.28c-.81-.38-1.71-.62-2.7-.66-1.22-.05-2.43.19-3.58.66Z"/>
        <path class="cls-4" d="M106.51,72.91c-4.52-.82-9.26,2.42-10.58,7.29-.58,2.14-.4,4.23.37,5.98h14.73c.59-.9,1.06-1.91,1.34-3,1.29-4.88-1.34-9.45-5.86-10.28Z"/>
        <path class="cls-4" d="M466.36,78.64c.5-4.85-2.78-8.24-7.34-7.61-4.55.64-8.68,5.07-9.22,9.92-.33,2.97.78,5.4,2.74,6.7h7.5c3.31-1.68,5.93-5.22,6.32-9.01Z"/>
        <path class="cls-4" d="M183.08,83.02c-2.77-.24-5.57,1.03-7.59,3.17h12.86c-1.11-1.77-2.96-2.97-5.27-3.17Z"/>
      </g>
      <g>
        <path class="cls-1" d="M1261.78,101.61c0-3.36-2-6.45-5.21-8.07-.57-.29-1.18-.53-1.8-.71-.96-.28-1.97-.42-2.99-.42h-295.62c-5.14,0-9.88.87-14.09,2.59-3.05,1.25-7.06,1.93-11.27,1.93-9.5,0-16.67-3.26-16.67-7.58,0-.55.12-1.07.34-1.58H393.52c.22.51.34,1.04.34,1.58,0,4.32-7.16,7.58-16.67,7.58-3.46,0-6.76-.46-9.56-1.32-6.87-2.12-14.59-3.2-22.93-3.2H56.21c-.68,0-1.36.06-2.03.19-4.61.88-7.96,4.67-7.96,9.01v670.13c0,1.67.5,3.25,1.37,4.62.85.2,1.74.31,2.66.31h1207.51c.91,0,1.8-.11,2.65-.31.88-1.39,1.38-2.97,1.38-4.62V101.61Z"/>
        <path d="M46.22,101.61c0-4.34,3.35-8.13,7.96-9.01.66-.13,1.35-.19,2.03-.19h288.5c8.35,0,16.06,1.08,22.93,3.2,2.79.86,6.1,1.32,9.56,1.32,9.5,0,16.67-3.26,16.67-7.58,0-.55-.12-1.07-.34-1.58H50.25c-.38,0-.75.02-1.11.05-5.51,2.47-9.34,7.71-9.34,13.79v668.17c1.23,3.25,4.16,5.75,7.8,6.58-.87-1.37-1.37-2.95-1.37-4.62V101.61Z"/>
        <path d="M1268.21,769.78V101.61c0-6.07-3.83-11.32-9.34-13.79-.37-.03-.74-.05-1.11-.05h-343.28c-.22.51-.34,1.03-.34,1.58,0,4.32,7.16,7.58,16.67,7.58,4.22,0,8.22-.69,11.27-1.93,4.21-1.72,8.95-2.59,14.09-2.59h295.62c1.02,0,2.02.14,2.99.42.62.18,1.23.42,1.8.71,3.21,1.62,5.21,4.71,5.21,8.07v670.13c0,1.65-.5,3.24-1.38,4.62,3.64-.83,6.58-3.34,7.81-6.59Z"/>
        <path d="M386.62,83.02c.02-.77-.06-1.58-.27-2.39-.34-1.32-.67-2.54-1.01-3.65,3.73-.67,6.34-2.1,7.41-4.1.81-1.52.69-3.3-.33-4.9-1.42-2.24-2.83-4.17-4.18-5.73-.49-.56-.88-1.27-1.16-2.09-1.08-3.11-3.84-5.19-6.87-5.19s-5.8,2.09-6.87,5.19c-.28.82-.68,1.53-1.16,2.09-1.35,1.56-2.76,3.49-4.18,5.73-1.01,1.6-1.13,3.38-.33,4.9,1.06,2,3.67,3.44,7.41,4.1-.34,1.11-.68,2.33-1.01,3.65-.11.44-.18.87-.23,1.3-2.22.2-4.34.58-6.21,1.16-6.89,2.13-14.63,3.22-22.98,3.22H56.21c-2.54,0-4.93.55-7.08,1.52.37-.03.74-.05,1.11-.05h343.28c-.87-2.01-3.36-3.68-6.9-4.75Z"/>
        <path d="M1283.53,4.58H24.47C14.54,4.58,6.46,12.66,6.46,22.59v819.27c0,9.93,8.08,18,18.02,18l196.17-.07c4.64,0,8.41-3.77,8.41-8.41v-24.84c0-1.27,1.03-2.3,2.31-2.3h2.15v.07h2.39v14.19c0,2.69,2.19,4.88,4.88,4.88h7.85c1.77,0,3.22,1.44,3.24,3.25l.28,4.92c.05,4.58,3.83,8.31,8.41,8.31h133.99c4.64,0,8.41-3.77,8.41-8.41v-39.2c0-4.64-3.77-8.41-8.41-8.41h-134.36c-4.64,0-8.41,3.77-8.41,8.41v2.63c0,1.79-1.46,3.24-3.24,3.24h-4.06v-.07h-2.39v-24.61c0-12.36-8.98-12.36-12.37-12.36l-173.52-.15c-.68,0-1.36-.06-2.02-.19-2.84-.54-5.2-2.19-6.6-4.38-3.64-.84-6.57-3.34-7.8-6.58v1.96c0,8.44,7.36,15.3,16.42,15.3l172.25.23c.2,0,.42,0,.66-.01.26,0,.53-.01.83-.01,3.1,0,5.96.91,5.96,7.49v23.33h-6.26c-3.74,0-6.78,3.04-6.78,6.77v25.26c0,1.93-1.57,3.5-3.51,3.5l-194.88-.16c-6.39,0-11.59-5.19-11.59-11.58V22.59c0-6.38,5.2-11.58,11.59-11.58h1259.05c6.39,0,11.59,5.19,11.59,11.58v819.27c0,6.38-5.2,11.58-11.59,11.58l-137.91.16c-.89,0-1.73-.34-2.38-.94-.03-.03-.07-.05-.1-.08-.47-.47-.78-1.05-.93-1.68,0-.04-.02-.07-.03-.11-.04-.22-.07-.45-.07-.69v-25.26c0-3.73-3.04-6.77-6.78-6.77h-6.26v-22.41c0-8.44,5.92-8.45,8.45-8.45l114.27-.16c9.05,0,16.42-6.86,16.42-15.3v-1.96c-1.23,3.25-4.16,5.75-7.81,6.59-.74,1.17-1.75,2.2-3,2.98-.81.51-1.69.9-2.62,1.17-.96.28-1.97.42-2.99.42l-115.55.08c-4.02,0-13.36,1.31-13.36,13.35v23.69h-6.45c-1.79,0-3.24-1.45-3.24-3.24v-2.63c0-4.64-3.77-8.41-8.41-8.41h-134.36c-4.64,0-8.41,3.77-8.41,8.41v39.2c0,4.64,3.77,8.41,8.41,8.41h133.99c4.58,0,8.36-3.73,8.41-8.27l.28-5.01c.02-1.77,1.47-3.2,3.24-3.2h7.85c2.69,0,4.88-2.19,4.88-4.88v-14.12h2.39v-.07h2.15c1.27,0,2.31,1.03,2.31,2.3v24.84c0,4.63,3.77,8.41,8.41,8.41l139.2.07c9.93,0,18.01-8.08,18.01-18V22.59c0-9.93-8.08-18-18.01-18ZM242.09,824.32h7.47c4.64,0,8.41-3.77,8.41-8.41v-2.78c0-1.71,1.39-3.09,3.1-3.09h132.61c1.71,0,3.1,1.39,3.1,3.09v37.45c0,1.71-1.39,3.1-3.1,3.1h-132.29c-1.69,0-3.08-1.37-3.1-3.1l-.28-5.06c-.05-4.58-3.83-8.31-8.37-8.31l-6.55-.25c-.56-.02-1-.48-1-1.03v-11.6ZM1122.89,835.85c0,.56-.44,1.01-1,1.03l-6.52.25c-4.59,0-8.36,3.73-8.41,8.27l-.28,5.15c-.02,1.69-1.41,3.06-3.1,3.06h-132.29c-1.71,0-3.1-1.39-3.1-3.09v-37.45c0-1.71,1.39-3.09,3.1-3.09h132.61c1.71,0,3.1,1.39,3.1,3.09v2.78c0,4.64,3.77,8.41,8.41,8.41h5.08v.07h2.39v11.53Z"/>
        <path d="M956.2,86.31c-5.15,0-9.89-.87-14.1-2.6-2.47-1.01-5.57-1.65-8.89-1.86-.05-.4-.11-.81-.22-1.21-.34-1.32-.67-2.54-1.01-3.65,3.73-.67,6.34-2.1,7.41-4.1.81-1.52.69-3.3-.33-4.9-1.42-2.24-2.83-4.17-4.18-5.73-.49-.56-.88-1.27-1.16-2.09-1.08-3.11-3.84-5.19-6.87-5.19s-5.8,2.09-6.87,5.19c-.28.82-.68,1.53-1.16,2.09-1.35,1.56-2.76,3.49-4.18,5.73-1.01,1.6-1.13,3.38-.33,4.9,1.06,2,3.67,3.44,7.41,4.1-.34,1.11-.67,2.33-1.01,3.65-.23.92-.31,1.83-.25,2.69-3.04,1.07-5.18,2.61-5.97,4.44h343.28c.38,0,.75.02,1.11.05-2.15-.96-4.54-1.52-7.08-1.52h-295.59Z"/>
      </g>
      <g>
        <path d="M1289.81,0H18.2C8.16,0,0,8.16,0,18.2v828.05c0,10.03,8.16,18.2,18.2,18.2l198.13-.07c4.68,0,8.49-3.81,8.49-8.5v-25.1c0-1.28,1.04-2.33,2.33-2.33h2.18v.07h2.41v14.34c0,2.72,2.21,4.93,4.93,4.93h7.93c1.79,0,3.25,1.46,3.28,3.29l.28,4.97c.05,4.63,3.86,8.4,8.5,8.4h135.33c4.69,0,8.5-3.81,8.5-8.5v-39.62c0-4.68-3.81-8.5-8.5-8.5h-135.7c-4.69,0-8.5,3.81-8.5,8.5v2.66c0,1.81-1.47,3.28-3.28,3.28h-4.1v-.07h-2.41v-24.87c0-12.49-9.07-12.5-12.49-12.5l-175.25-.15c-.69,0-1.38-.06-2.04-.19-4.66-.89-8.04-4.72-8.04-9.1V98.06c0-4.39,3.38-8.22,8.04-9.1.67-.13,1.36-.19,2.05-.19h291.38c8.43,0,16.22,1.09,23.16,3.24,2.82.87,6.16,1.33,9.65,1.33,9.6,0,16.83-3.29,16.83-7.67s-7.24-7.67-16.83-7.67c-3.5,0-6.84.46-9.66,1.34-6.96,2.16-14.77,3.25-23.21,3.25H50.25c-9.14,0-16.58,6.94-16.58,15.47v677.32c0,8.53,7.44,15.47,16.58,15.47l173.97.23c.2,0,.42,0,.66-.01.26,0,.54-.01.84-.01,3.13,0,6.02.92,6.02,7.57v23.58h-6.32c-3.77,0-6.84,3.07-6.84,6.84v25.54c0,1.95-1.59,3.54-3.55,3.54l-196.83-.17c-6.45,0-11.7-5.25-11.7-11.7V18.2c0-6.45,5.25-11.7,11.7-11.7h1271.61c6.45,0,11.7,5.25,11.7,11.7v828.05c0,6.45-5.25,11.7-11.71,11.7l-139.28.17c-.9,0-1.74-.34-2.4-.95-.03-.03-.07-.05-.1-.08-.47-.47-.79-1.06-.94-1.7,0-.04-.03-.07-.03-.11-.05-.23-.07-.46-.07-.7v-25.54c0-3.77-3.07-6.84-6.84-6.84h-6.32v-22.65c0-8.53,5.98-8.54,8.54-8.54l115.41-.16c9.14,0,16.58-6.94,16.58-15.47V98.06c0-8.53-7.44-15.47-16.58-15.47h-298.54c-5.2,0-9.99-.88-14.25-2.63-3.09-1.26-7.14-1.96-11.41-1.96-9.6,0-16.83,3.29-16.83,7.67s7.24,7.67,16.83,7.67c4.26,0,8.3-.69,11.39-1.95,4.25-1.74,9.04-2.62,14.23-2.62h298.57c1.03,0,2.04.14,3.02.42.63.18,1.24.42,1.82.71,3.24,1.64,5.26,4.76,5.26,8.16v677.32c0,3.07-1.65,5.95-4.43,7.69-.82.51-1.71.91-2.65,1.18-.97.28-1.99.42-3.02.42l-116.7.08c-4.06,0-13.49,1.33-13.49,13.5v23.94h-6.52c-1.81,0-3.28-1.47-3.28-3.28v-2.66c0-4.68-3.81-8.5-8.5-8.5h-135.7c-4.68,0-8.5,3.81-8.5,8.5v39.62c0,4.68,3.81,8.5,8.5,8.5h135.33c4.63,0,8.44-3.77,8.49-8.35l.28-5.06c.02-1.79,1.49-3.24,3.28-3.24h7.93c2.72,0,4.93-2.22,4.93-4.94v-14.27h2.41v-.07h2.17c1.28,0,2.33,1.04,2.33,2.33v25.1c0,4.68,3.81,8.5,8.49,8.5l140.58.07c10.03,0,18.19-8.16,18.19-18.2V18.2c0-10.03-8.16-18.2-18.19-18.2ZM254.02,820.02v-2.81c0-1.72,1.4-3.13,3.13-3.13h133.94c1.72,0,3.13,1.4,3.13,3.13v37.85c0,1.73-1.4,3.13-3.13,3.13h-133.61c-1.71,0-3.11-1.39-3.13-3.14l-.28-5.12c-.05-4.63-3.87-8.4-8.46-8.4l-6.62-.25c-.56-.02-1.01-.48-1.01-1.05v-11.73h7.54c4.69,0,8.5-3.81,8.5-8.5ZM1127.56,828.52v11.66c0,.56-.44,1.02-1.01,1.05l-6.58.25c-4.63,0-8.44,3.77-8.5,8.36l-.28,5.2c-.02,1.71-1.42,3.09-3.13,3.09h-133.61c-1.72,0-3.13-1.4-3.13-3.13v-37.86c0-1.72,1.4-3.13,3.13-3.13h133.93c1.73,0,3.13,1.4,3.13,3.13v2.81c0,4.69,3.81,8.5,8.5,8.5h5.13v.07h2.41Z"/>
        <path class="cls-9" d="M1283.49,5.49H24.44C14.51,5.49,6.43,13.57,6.43,23.49v819.27c0,9.93,8.08,18,18.02,18l196.17-.07c4.64,0,8.41-3.77,8.41-8.41v-24.84c0-1.27,1.03-2.3,2.31-2.3h2.15v.07h2.39v14.19c0,2.69,2.19,4.88,4.88,4.88h7.85c1.77,0,3.22,1.44,3.24,3.25l.28,4.92c.05,4.58,3.83,8.31,8.41,8.31h133.99c4.64,0,8.41-3.77,8.41-8.41v-39.2c0-4.64-3.77-8.41-8.41-8.41h-134.36c-4.64,0-8.41,3.77-8.41,8.41v2.63c0,1.79-1.46,3.24-3.24,3.24h-4.06v-.07h-2.39v-24.61c0-12.36-8.98-12.36-12.37-12.36l-173.52-.15c-.68,0-1.36-.06-2.02-.19-4.62-.88-7.96-4.67-7.96-9.01V102.52c0-4.34,3.35-8.13,7.96-9.01.66-.13,1.35-.19,2.03-.19h288.5c8.35,0,16.06,1.08,22.93,3.2,2.79.86,6.1,1.32,9.56,1.32,9.5,0,16.67-3.26,16.67-7.58,0-2.71-2.81-5-7.24-6.33.02-.77-.06-1.58-.27-2.39-.34-1.32-.67-2.54-1.01-3.65,3.73-.67,6.34-2.1,7.41-4.1.81-1.52.69-3.3-.33-4.9-1.42-2.24-2.83-4.17-4.18-5.73-.49-.56-.88-1.27-1.16-2.09-1.08-3.11-3.84-5.19-6.87-5.19s-5.8,2.09-6.87,5.19c-.28.82-.68,1.53-1.16,2.09-1.35,1.56-2.76,3.49-4.18,5.73-1.01,1.6-1.13,3.38-.33,4.9,1.06,2,3.67,3.44,7.41,4.1-.34,1.11-.68,2.33-1.01,3.65-.11.44-.18.87-.23,1.3-2.22.2-4.34.58-6.21,1.16-6.89,2.13-14.63,3.22-22.98,3.22H56.18c-9.05,0-16.42,6.86-16.42,15.3v670.13c0,8.44,7.36,15.3,16.42,15.3l172.25.23c.2,0,.42,0,.66-.01.26,0,.53-.01.83-.01,3.1,0,5.96.91,5.96,7.49v23.33h-6.26c-3.74,0-6.78,3.04-6.78,6.77v25.26c0,1.93-1.57,3.5-3.51,3.5l-194.88-.16c-6.39,0-11.59-5.19-11.59-11.58V23.49c0-6.38,5.2-11.58,11.59-11.58h1259.05c6.39,0,11.59,5.19,11.59,11.58v819.27c0,6.38-5.2,11.58-11.59,11.58l-137.91.16c-.89,0-1.73-.34-2.38-.94-.03-.03-.07-.05-.1-.08-.47-.47-.78-1.05-.93-1.68,0-.04-.02-.07-.03-.11-.04-.22-.07-.45-.07-.69v-25.26c0-3.73-3.04-6.77-6.78-6.77h-6.26v-22.41c0-8.44,5.92-8.45,8.45-8.45l114.27-.16c9.05,0,16.42-6.86,16.42-15.3V102.52c0-8.44-7.36-15.3-16.42-15.3h-295.59c-5.15,0-9.89-.87-14.1-2.6-2.47-1.01-5.57-1.65-8.89-1.86-.05-.4-.11-.81-.22-1.21-.34-1.32-.67-2.54-1.01-3.65,3.73-.67,6.34-2.1,7.41-4.1.81-1.52.69-3.3-.33-4.9-1.42-2.24-2.83-4.17-4.18-5.73-.49-.56-.88-1.27-1.16-2.09-1.08-3.11-3.84-5.19-6.87-5.19s-5.8,2.09-6.87,5.19c-.28.82-.68,1.53-1.16,2.09-1.35,1.56-2.76,3.49-4.18,5.73-1.01,1.6-1.13,3.38-.33,4.9,1.06,2,3.67,3.44,7.41,4.1-.34,1.11-.67,2.33-1.01,3.65-.23.92-.31,1.83-.25,2.69-3.89,1.36-6.31,3.51-6.31,6.02,0,4.32,7.16,7.58,16.67,7.58,4.22,0,8.22-.69,11.27-1.93,4.21-1.72,8.95-2.59,14.09-2.59h295.62c1.02,0,2.02.14,2.99.42.62.18,1.23.42,1.8.71,3.21,1.62,5.21,4.71,5.21,8.07v670.13c0,3.04-1.64,5.89-4.38,7.61-.81.51-1.69.9-2.62,1.17-.96.28-1.97.42-2.99.42l-115.55.08c-4.02,0-13.36,1.31-13.36,13.35v23.69h-6.45c-1.79,0-3.24-1.45-3.24-3.24v-2.63c0-4.64-3.77-8.41-8.41-8.41h-134.36c-4.64,0-8.41,3.77-8.41,8.41v39.2c0,4.64,3.77,8.41,8.41,8.41h133.99c4.58,0,8.36-3.73,8.41-8.27l.28-5.01c.02-1.77,1.47-3.2,3.24-3.2h7.85c2.69,0,4.88-2.19,4.88-4.88v-14.12h2.39v-.07h2.15c1.27,0,2.31,1.03,2.31,2.3v24.84c0,4.63,3.77,8.41,8.41,8.41l139.2.07c9.93,0,18.01-8.08,18.01-18V23.49c0-9.93-8.08-18-18.01-18ZM242.06,825.22h7.47c4.64,0,8.41-3.77,8.41-8.41v-2.78c0-1.71,1.39-3.09,3.1-3.09h132.61c1.71,0,3.1,1.39,3.1,3.09v37.45c0,1.71-1.39,3.1-3.1,3.1h-132.29c-1.69,0-3.08-1.37-3.1-3.1l-.28-5.06c-.05-4.58-3.83-8.31-8.37-8.31l-6.55-.25c-.56-.02-1-.48-1-1.03v-11.6ZM1122.85,836.76c0,.56-.44,1.01-1,1.03l-6.52.25c-4.59,0-8.36,3.73-8.41,8.27l-.28,5.15c-.02,1.69-1.41,3.06-3.1,3.06h-132.29c-1.71,0-3.1-1.39-3.1-3.09v-37.45c0-1.71,1.39-3.09,3.1-3.09h132.61c1.71,0,3.1,1.39,3.1,3.09v2.78c0,4.64,3.77,8.41,8.41,8.41h5.08v.07h2.39v11.53Z"/>
        <g>
          <rect class="cls-11" x="230.32" y="823.2" width="9.07" height="4.32"/>
          <rect class="cls-11" x="1126.15" y="823.2" width="9.07" height="4.32"/>
          <g>
            <path class="cls-15" d="M1289.81,1H18.2C8.7,1,1,8.7,1,18.2v828.05c0,9.5,7.7,17.2,17.2,17.2l198.13-.07c4.14,0,7.49-3.36,7.49-7.5v-25.11c0-1.84,1.49-3.33,3.33-3.33h3.18v-4.25h-4.91c-3.23,0-5.85,2.62-5.85,5.85v25.54c0,2.51-2.04,4.54-4.55,4.54l-196.82-.17c-7.02,0-12.7-5.69-12.7-12.7V18.2h0c0-7.02,5.69-12.7,12.7-12.7h1271.61c7.02,0,12.7,5.69,12.7,12.7h0v828.05c0,7.02-5.69,12.7-12.7,12.7l-139.28.17c-2.51,0-4.55-2.03-4.55-4.54v-25.54c0-3.23-2.62-5.85-5.85-5.85h-4.91v4.25h3.18c1.84,0,3.33,1.49,3.33,3.33v25.11c0,4.14,3.35,7.49,7.49,7.5l140.58.07c9.5,0,17.2-7.7,17.2-17.2V18.2c0-9.5-7.7-17.2-17.2-17.2Z"/>
            <path class="cls-15" d="M1257.75,789.85c8.61,0,15.58-6.48,15.58-14.47V98.06c0-7.99-6.98-14.47-15.58-14.47h-298.54c-5,0-10-.81-14.62-2.7-2.85-1.17-6.74-1.89-11.03-1.89-8.74,0-15.83,2.98-15.83,6.66s7.09,6.66,15.83,6.66c4.28,0,8.16-.72,11.01-1.88,4.62-1.89,9.62-2.69,14.61-2.69h298.57c1.15,0,2.25.16,3.29.46.69.2,1.36.46,1.99.78,3.46,1.75,5.81,5.15,5.81,9.05v677.32c0,3.55-1.94,6.68-4.89,8.53-.89.56-1.86,1-2.9,1.3s-2.15.46-3.29.46l-116.7.08c-4.14,0-12.49,1.36-12.49,12.5v41.92c0,1.1-.87,2-1.97,2.04l-6.62.25c-4.11,0-7.45,3.3-7.5,7.41l-.28,5.16c-.03,2.26-1.87,4.08-4.13,4.08h-133.61c-2.28,0-4.13-1.85-4.13-4.13v-37.85c0-2.28,1.85-4.13,4.13-4.13h133.93c2.28,0,4.13,1.85,4.13,4.13v2.81c0,4.14,3.36,7.5,7.5,7.5h6.13v-4.25h-5.1c-2.36,0-4.28-1.91-4.28-4.28v-2.66c0-4.14-3.36-7.5-7.5-7.5h-135.7c-4.14,0-7.5,3.36-7.5,7.5v39.62c0,4.14,3.36,7.5,7.5,7.5h135.33c4.11,0,7.45-3.3,7.5-7.41l.28-5.01c.03-2.34,1.93-4.23,4.28-4.23h7.93c2.17,0,3.93-1.77,3.93-3.94v-43.24c0-9.51,7.03-9.54,9.53-9.54l115.41-.16Z"/>
            <path class="cls-15" d="M391.97,808.83h-135.7c-4.14,0-7.5,3.36-7.5,7.5v2.66c0,2.36-1.91,4.28-4.28,4.28h-5.1v4.25h6.13c4.14,0,7.5-3.36,7.5-7.5v-2.81c0-2.28,1.85-4.13,4.13-4.13h133.93c2.28,0,4.13,1.85,4.13,4.13v37.85c0,2.28-1.85,4.13-4.13,4.13h-133.61c-2.26,0-4.1-1.82-4.13-4.08l-.28-5.16c-.05-4.11-3.39-7.41-7.5-7.41l-6.62-.25c-1.1-.04-1.97-.95-1.97-2.04v-42.92c0-11.14-7.35-11.49-11.49-11.5l-175.25-.15c-.76,0-1.51-.07-2.23-.21-5.05-.96-8.86-5.12-8.86-10.09V98.06c0-4.97,3.81-9.12,8.86-10.09.72-.14,1.47-.21,2.23-.21h291.38c7.93,0,15.88.94,23.46,3.28,2.62.81,5.85,1.29,9.35,1.29,8.74,0,15.83-2.98,15.83-6.66s-7.09-6.66-15.83-6.66c-3.5,0-6.74.48-9.36,1.29-7.6,2.35-15.56,3.3-23.51,3.3H50.25c-8.61,0-15.58,6.48-15.58,14.47v677.32c0,7.99,6.98,14.47,15.58,14.47l173.95.23c2.51,0,8.53-.96,8.53,8.54v44.24c0,2.17,1.76,3.93,3.93,3.93h7.93c2.34,0,4.25,1.89,4.28,4.23l.28,5.01c.05,4.11,3.39,7.41,7.5,7.41h135.33c4.14,0,7.5-3.36,7.5-7.5v-39.62c0-4.14-3.36-7.5-7.5-7.5Z"/>
          </g>
          <path class="cls-15" d="M1289.8,858.95l-139.28.17c-2.51,0-4.55-2.03-4.55-4.54v-25.54c0-3.23-2.62-5.85-5.85-5.85h-4.91v4.25h3.18c1.84,0,3.33,1.49,3.33,3.33v25.11c0,4.14,3.35,7.49,7.49,7.5l140.58.07"/>
        </g>
        <g>
          <ellipse class="cls-11" cx="373.93" cy="84.82" rx="7.8" ry="3.28"/>
          <path class="cls-3" d="M373.71,85.81l-.78-.04v-.03c-1.72-.23-3.19-1.05-4.2-2.37-1.31-1.69-1.7-4.02-1.08-6.4.34-1.32.69-2.54,1.03-3.65-3.82-.67-6.49-2.1-7.58-4.1-.82-1.52-.7-3.3.33-4.9,1.45-2.24,2.89-4.17,4.27-5.73.5-.56.9-1.27,1.19-2.09,1.1-3.11,3.93-5.19,7.03-5.19s5.93,2.09,7.03,5.19c.29.82.69,1.53,1.19,2.09,1.38,1.56,2.82,3.49,4.27,5.73,1.04,1.6,1.16,3.38.33,4.9-1.09,2-3.76,3.44-7.58,4.1.34,1.11.69,2.33,1.03,3.65.62,2.37.23,4.71-1.08,6.4-1.17,1.51-2.94,2.38-5,2.43-.07,0-.13,0-.2,0s-.13,0-.22,0Z"/>
          <path class="cls-3" d="M373.93,84.82c-1.82,0-3.39-.73-4.41-2.05-1.12-1.44-1.45-3.46-.91-5.53.57-2.19,1.14-4.07,1.67-5.58.25-.69.44-1.55.59-2.55.42-2.95,1.56-4.72,3.06-4.72s2.64,1.76,3.06,4.72c.14,1,.34,1.86.59,2.55.54,1.51,1.1,3.39,1.67,5.58.54,2.07.21,4.09-.91,5.53-1.02,1.32-2.59,2.05-4.41,2.05Z"/>
          <path class="cls-8" d="M377.38,74.28c-.11-.35-.44-.58-.81-.55-.87.06-1.75.09-2.64.09s-1.77-.03-2.64-.09c-.37-.02-.7.2-.81.55-.35,1.16-.66,2.28-.9,3.21-.91,3.5,1.03,6.33,4.35,6.33s5.26-2.84,4.35-6.33c-.24-.93-.55-2.05-.9-3.21Z"/>
          <path class="cls-12" d="M373.93,72.75c-6.12,0-10.58-1.5-11.94-4-.65-1.2-.55-2.58.29-3.88,1.43-2.2,2.83-4.09,4.18-5.61.58-.66,1.05-1.47,1.38-2.42.96-2.71,3.4-4.53,6.09-4.53s5.13,1.82,6.09,4.53c.33.95.8,1.76,1.38,2.42,1.35,1.52,2.75,3.41,4.18,5.61.84,1.3.95,2.67.29,3.88-1.36,2.5-5.83,4-11.94,4Z"/>
          <path class="cls-7" d="M384.75,65.42c-1-1.54-2.45-3.63-4.09-5.5-.71-.8-1.22-1.74-1.58-2.75-.8-2.26-2.8-3.86-5.14-3.86s-4.35,1.6-5.14,3.86c-.36,1.01-.87,1.95-1.58,2.75-1.65,1.86-3.09,3.95-4.09,5.5-2.27,3.5,2.57,6.33,10.81,6.33s13.08-2.84,10.81-6.33Z"/>
          <path class="cls-11" d="M373.93,69.78c-5.84,0-8.84-1.5-9.35-2.44-.06-.1-.16-.3.17-.82,1.35-2.09,2.68-3.86,3.93-5.28.84-.95,1.51-2.1,1.97-3.42.55-1.54,1.83-2.54,3.27-2.54s2.73,1,3.27,2.54c.47,1.32,1.13,2.47,1.97,3.42,1.25,1.42,2.57,3.19,3.93,5.28.34.52.23.71.17.82-.51.94-3.51,2.44-9.35,2.44Z"/>
          <path class="cls-14" d="M367.38,64.96c.7-1.21,1.71-2.86,2.86-4.32.49-.63.85-1.37,1.1-2.16.56-1.78,1.95-3.04,3.59-3.04.33,0,.65.06.95.16-.57-.42-1.23-.67-1.95-.67-1.64,0-3.03,1.26-3.59,3.04-.25.79-.61,1.53-1.1,2.16-1.15,1.46-2.16,3.11-2.86,4.32-.93,1.62-.14,3.05,1.84,3.96.03.02.07,0,.1,0-1.29-.89-1.72-2.1-.95-3.45Z"/>
          <path class="cls-6" d="M378.19,60.98c.16-.43.2-.54.35-.96-.45-.61-.78-1.31-1.02-2.05-.31-1-.9-1.83-1.64-2.37-.31-.1-.62-.16-.95-.16-1.64,0-3.03,1.26-3.59,3.04-.25.79-.61,1.53-1.1,2.16-1.15,1.46-2.16,3.11-2.86,4.32-.77,1.34-.34,2.55.95,3.45.02-.01.04-.02.05-.05,1.74-3.8,5.39-6.62,9.81-7.37Z"/>
          <path class="cls-12" d="M372.99,60.8c-.34-.61-.99-1.02-1.73-1.02-1.1,0-2,.9-2,2,0,.21.04.4.1.59.89-.92,2.17-1.52,3.63-1.57Z"/>
          <path class="cls-3" d="M378.26,63.18c-.19,0-.38.04-.55.1.34.6.55,1.28.55,2,0,.38-.07.73-.16,1.08.05,0,.11.02.16.02.88,0,1.6-.72,1.6-1.6s-.72-1.6-1.6-1.6Z"/>
          <path class="cls-3" d="M371.26,63.78c1.1,0,2-.9,2-2,0-.36-.1-.69-.27-.98-1.46.05-2.75.65-3.63,1.57.25.81,1,1.41,1.9,1.41Z"/>
          <path class="cls-12" d="M377.71,63.29c-.61.22-1.05.81-1.05,1.5,0,.83.63,1.5,1.44,1.58.1-.35.16-.71.16-1.08,0-.72-.21-1.39-.55-2Z"/>
          <path d="M372.5,84.61c.14.05.21.08.35.12-.99-1.33-1.39-2.17-1.46-3.31-.27-.03-.53-.07-.79-.11.03,1.15.52,1.95,1.91,3.3Z"/>
          <path d="M373.18,84.82c.14.03.21.04.35.06-.39-1.31-.56-2.2-.61-3.33-.26-.01-.52-.03-.78-.05.07,1.13.37,2,1.05,3.32Z"/>
          <path d="M373.64,81.57c.02,1.14.08,2.03.21,3.34.14,0,.21,0,.35,0,.13-1.31.19-2.2.21-3.34-.13,0-.26.01-.39.01s-.26-.01-.39-.01Z"/>
          <path d="M374.44,84.78c.14-.02.21-.03.35-.06.68-1.32.97-2.19,1.05-3.32-.26.02-.52.04-.78.05-.05,1.13-.22,2.02-.61,3.33Z"/>
          <path d="M375.11,84.64c.14-.04.21-.07.35-.12,1.38-1.35,1.87-2.14,1.91-3.3-.26.04-.52.08-.79.11-.07,1.14-.48,1.98-1.46,3.31Z"/>
          <path class="cls-12" d="M383.99,69.93c0,.06-.02.12-.03.18.02-.06.03-.12.03-.18Z"/>
          <path class="cls-12" d="M363.9,70.11c-.01-.06-.02-.12-.03-.18,0,.06.01.12.03.18Z"/>
          <path class="cls-12" d="M364.43,68.99s-.05.04-.07.06c-.35.31-.49.6-.48.88,0,.06.02.12.03.18.19.66,1.33,1.22,3.21,1.61-.61-.64-.9-1.26-.95-1.99-.76-.21-1.35-.46-1.74-.74Z"/>
          <path class="cls-12" d="M368.4,70.18c.12.66.39,1.25.86,1.87.62.07,1.28.12,1.98.16-.28-.6-.45-1.17-.54-1.79-.83-.06-1.6-.14-2.3-.24Z"/>
          <path class="cls-12" d="M373.93,70.53c-.38,0-.75,0-1.11-.01.03.61.09,1.17.19,1.76.31,0,.61.01.93.01s.62,0,.93-.01c.09-.59.15-1.15.19-1.76-.36,0-.73.01-1.11.01Z"/>
          <path class="cls-12" d="M377.17,70.42c-.09.62-.26,1.2-.54,1.79.7-.04,1.37-.09,1.98-.16.47-.62.74-1.21.86-1.87-.7.1-1.47.18-2.3.24Z"/>
          <path class="cls-12" d="M383.51,69.05s-.05-.04-.07-.06c-.39.28-.98.53-1.74.74-.05.73-.34,1.35-.95,1.99,1.88-.39,3.02-.95,3.21-1.61.01-.06.02-.12.03-.18,0-.28-.14-.58-.48-.88Z"/>
          <path class="cls-6" d="M381.65,64.38s1.61,2.05,1.69,2.7-2.59,1.91-2.59,1.91c0,0,1.62-1.41,1.62-2.11s-.72-2.5-.72-2.5Z"/>
          <path class="cls-13" d="M372.13,76.84c-.1.35-.2.74-.31,1.14-.27,1.02-.15,1.96.33,2.57.12.16.28.29.44.4-.17-.43-.25-.83-.26-1.31.13.03.25.06.38.08.02.51.11.95.26,1.43.1.04.2.07.3.09-.11-.49-.18-.95-.2-1.47.13.02.25.03.38.04.01.52.05.98.12,1.48.09.01.18.02.28.03-.02-.5-.04-.96-.04-1.49.06,0,.12,0,.19,0s.12,0,.19,0c0,.52-.02.98-.04,1.47.07,0,.15,0,.22-.02.07-.52.11-1,.13-1.54.13,0,.25-.02.38-.04-.02.54-.09,1.01-.21,1.52.1-.03.21-.05.3-.09.16-.5.25-.95.28-1.48.13-.02.26-.05.38-.08,0,.49-.09.9-.27,1.34.13-.1.26-.22.36-.35.48-.61.6-1.55.33-2.57-.1-.4-.21-.79-.31-1.14-.53.19-1.15.32-1.8.32s-1.27-.13-1.8-.32Z"/>
          <path class="cls-13" d="M375.18,75.14c-.22-.35-.56-.6-.87-.58h-.75c-.31-.02-.66.23-.87.58.24.03.64.07,1.25.07s1.01-.04,1.25-.07Z"/>
          <path class="cls-2" d="M372.68,75.14c-.18-.02-.29-.04-.29-.04-.62-.28-1.32-.23-1.55-.04l-.13.18c-.37.54.33,1.21,1.42,1.59.22-.78.4-1.37.4-1.37.04-.12.09-.23.15-.33Z"/>
          <path class="cls-2" d="M377.15,75.25l-.13-.18c-.23-.2-.93-.25-1.55.04,0,0-.11.02-.29.04.06.1.12.21.15.33,0,0,.18.58.39,1.37,1.09-.39,1.78-1.06,1.42-1.59Z"/>
          <path class="cls-5" d="M375.18,75.14c-.24.03-.64.07-1.25.07s-1.01-.04-1.25-.07c-.06.1-.12.21-.15.33,0,0-.18.58-.4,1.37.53.19,1.15.32,1.8.32s1.27-.13,1.8-.32c-.22-.78-.39-1.37-.39-1.37-.04-.12-.09-.23-.15-.33Z"/>
          <ellipse class="cls-11" cx="933.06" cy="84.82" rx="7.8" ry="3.28"/>
          <path class="cls-3" d="M932.84,85.81l-.78-.04v-.03c-1.72-.23-3.19-1.05-4.2-2.37-1.31-1.69-1.7-4.02-1.08-6.4.34-1.32.69-2.54,1.03-3.65-3.82-.67-6.49-2.1-7.58-4.1-.82-1.52-.7-3.3.33-4.9,1.45-2.24,2.89-4.17,4.27-5.73.5-.56.9-1.27,1.19-2.09,1.1-3.11,3.93-5.19,7.03-5.19s5.93,2.09,7.03,5.19c.29.82.69,1.53,1.19,2.09,1.38,1.56,2.82,3.49,4.27,5.73,1.04,1.6,1.16,3.38.33,4.9-1.09,2-3.76,3.44-7.58,4.1.34,1.11.69,2.33,1.03,3.65.62,2.37.23,4.71-1.08,6.4-1.17,1.51-2.94,2.38-5,2.43-.07,0-.13,0-.2,0s-.13,0-.22,0Z"/>
          <path class="cls-3" d="M933.06,84.82c-1.82,0-3.39-.73-4.41-2.05-1.12-1.44-1.45-3.46-.91-5.53.57-2.19,1.14-4.07,1.67-5.58.25-.69.44-1.55.59-2.55.42-2.95,1.56-4.72,3.06-4.72s2.64,1.76,3.06,4.72c.14,1,.34,1.86.59,2.55.54,1.51,1.1,3.39,1.67,5.58.54,2.07.21,4.09-.91,5.53-1.02,1.32-2.59,2.05-4.41,2.05Z"/>
          <path class="cls-8" d="M936.51,74.28c-.11-.35-.44-.58-.81-.55-.87.06-1.75.09-2.64.09s-1.77-.03-2.64-.09c-.37-.02-.7.2-.81.55-.35,1.16-.66,2.28-.9,3.21-.91,3.5,1.03,6.33,4.35,6.33s5.26-2.84,4.35-6.33c-.24-.93-.55-2.05-.9-3.21Z"/>
          <path class="cls-12" d="M933.06,72.75c-6.12,0-10.58-1.5-11.94-4-.65-1.2-.55-2.58.29-3.88,1.43-2.2,2.83-4.09,4.18-5.61.58-.66,1.05-1.47,1.38-2.42.96-2.71,3.4-4.53,6.09-4.53s5.13,1.82,6.09,4.53c.33.95.8,1.76,1.38,2.42,1.35,1.52,2.75,3.41,4.18,5.61.84,1.3.95,2.67.29,3.88-1.36,2.5-5.83,4-11.94,4Z"/>
          <path class="cls-7" d="M943.87,65.42c-1-1.54-2.45-3.63-4.09-5.5-.71-.8-1.22-1.74-1.58-2.75-.8-2.26-2.8-3.86-5.14-3.86s-4.35,1.6-5.14,3.86c-.36,1.01-.87,1.95-1.58,2.75-1.65,1.86-3.09,3.95-4.09,5.5-2.27,3.5,2.57,6.33,10.81,6.33s13.08-2.84,10.81-6.33Z"/>
          <path class="cls-11" d="M933.06,69.78c-5.84,0-8.84-1.5-9.35-2.44-.06-.1-.16-.3.17-.82,1.35-2.09,2.68-3.86,3.93-5.28.84-.95,1.51-2.1,1.97-3.42.55-1.54,1.83-2.54,3.27-2.54s2.73,1,3.27,2.54c.47,1.32,1.13,2.47,1.97,3.42,1.25,1.42,2.57,3.19,3.93,5.28.34.52.23.71.17.82-.51.94-3.51,2.44-9.35,2.44Z"/>
          <path class="cls-14" d="M926.51,64.96c.7-1.21,1.71-2.86,2.86-4.32.49-.63.85-1.37,1.1-2.16.56-1.78,1.95-3.04,3.59-3.04.33,0,.65.06.95.16-.57-.42-1.23-.67-1.95-.67-1.64,0-3.03,1.26-3.59,3.04-.25.79-.61,1.53-1.1,2.16-1.15,1.46-2.16,3.11-2.86,4.32-.93,1.62-.14,3.05,1.84,3.96.03.02.07,0,.1,0-1.29-.89-1.72-2.1-.95-3.45Z"/>
          <path class="cls-6" d="M937.32,60.98c.16-.43.2-.54.35-.96-.45-.61-.78-1.31-1.02-2.05-.31-1-.9-1.83-1.64-2.37-.31-.1-.62-.16-.95-.16-1.64,0-3.03,1.26-3.59,3.04-.25.79-.61,1.53-1.1,2.16-1.15,1.46-2.16,3.11-2.86,4.32-.77,1.34-.34,2.55.95,3.45.02-.01.04-.02.05-.05,1.74-3.8,5.39-6.62,9.81-7.37Z"/>
          <path class="cls-12" d="M932.12,60.8c-.34-.61-.99-1.02-1.73-1.02-1.1,0-2,.9-2,2,0,.21.04.4.1.59.89-.92,2.17-1.52,3.63-1.57Z"/>
          <path class="cls-3" d="M937.39,63.18c-.19,0-.38.04-.55.1.34.6.55,1.28.55,2,0,.38-.07.73-.16,1.08.05,0,.11.02.16.02.88,0,1.6-.72,1.6-1.6s-.72-1.6-1.6-1.6Z"/>
          <path class="cls-3" d="M930.39,63.78c1.1,0,2-.9,2-2,0-.36-.1-.69-.27-.98-1.46.05-2.75.65-3.63,1.57.25.81,1,1.41,1.9,1.41Z"/>
          <path class="cls-12" d="M936.84,63.29c-.61.22-1.05.81-1.05,1.5,0,.83.63,1.5,1.44,1.58.1-.35.16-.71.16-1.08,0-.72-.21-1.39-.55-2Z"/>
          <path d="M931.63,84.61c.14.05.21.08.35.12-.99-1.33-1.39-2.17-1.46-3.31-.27-.03-.53-.07-.79-.11.03,1.15.52,1.95,1.91,3.3Z"/>
          <path d="M932.3,84.82c.14.03.21.04.35.06-.39-1.31-.56-2.2-.61-3.33-.26-.01-.52-.03-.78-.05.07,1.13.37,2,1.05,3.32Z"/>
          <path d="M932.77,81.57c.02,1.14.08,2.03.21,3.34.14,0,.21,0,.35,0,.13-1.31.19-2.2.21-3.34-.13,0-.26.01-.39.01s-.26-.01-.39-.01Z"/>
          <path d="M933.56,84.78c.14-.02.21-.03.35-.06.68-1.32.97-2.19,1.05-3.32-.26.02-.52.04-.78.05-.05,1.13-.22,2.02-.61,3.33Z"/>
          <path d="M934.24,84.64c.14-.04.21-.07.35-.12,1.38-1.35,1.87-2.14,1.91-3.3-.26.04-.52.08-.79.11-.07,1.14-.48,1.98-1.46,3.31Z"/>
          <path class="cls-12" d="M943.12,69.93c0,.06-.02.12-.03.18.02-.06.03-.12.03-.18Z"/>
          <path class="cls-12" d="M923.03,70.11c-.01-.06-.02-.12-.03-.18,0,.06.01.12.03.18Z"/>
          <path class="cls-12" d="M923.55,68.99s-.05.04-.07.06c-.35.31-.49.6-.48.88,0,.06.02.12.03.18.19.66,1.33,1.22,3.21,1.61-.61-.64-.9-1.26-.95-1.99-.76-.21-1.35-.46-1.74-.74Z"/>
          <path class="cls-12" d="M927.52,70.18c.12.66.39,1.25.86,1.87.62.07,1.28.12,1.98.16-.28-.6-.45-1.17-.54-1.79-.83-.06-1.6-.14-2.3-.24Z"/>
          <path class="cls-12" d="M933.06,70.53c-.38,0-.75,0-1.11-.01.03.61.09,1.17.19,1.76.31,0,.61.01.93.01s.62,0,.93-.01c.09-.59.15-1.15.19-1.76-.36,0-.73.01-1.11.01Z"/>
          <path class="cls-12" d="M936.29,70.42c-.09.62-.26,1.2-.54,1.79.7-.04,1.37-.09,1.98-.16.47-.62.74-1.21.86-1.87-.7.1-1.47.18-2.3.24Z"/>
          <path class="cls-12" d="M942.64,69.05s-.05-.04-.07-.06c-.39.28-.98.53-1.74.74-.05.73-.34,1.35-.95,1.99,1.88-.39,3.02-.95,3.21-1.61.01-.06.02-.12.03-.18,0-.28-.14-.58-.48-.88Z"/>
          <path class="cls-6" d="M940.78,64.38s1.61,2.05,1.69,2.7-2.59,1.91-2.59,1.91c0,0,1.62-1.41,1.62-2.11s-.72-2.5-.72-2.5Z"/>
          <path class="cls-13" d="M931.26,76.84c-.1.35-.2.74-.31,1.14-.27,1.02-.15,1.96.33,2.57.12.16.28.29.44.4-.17-.43-.25-.83-.26-1.31.13.03.25.06.38.08.02.51.11.95.26,1.43.1.04.2.07.3.09-.11-.49-.18-.95-.2-1.47.13.02.25.03.38.04.01.52.05.98.12,1.48.09.01.18.02.28.03-.02-.5-.04-.96-.04-1.49.06,0,.12,0,.19,0s.12,0,.19,0c0,.52-.02.98-.04,1.47.07,0,.15,0,.22-.02.07-.52.11-1,.13-1.54.13,0,.25-.02.38-.04-.02.54-.09,1.01-.21,1.52.1-.03.21-.05.3-.09.16-.5.25-.95.28-1.48.13-.02.26-.05.38-.08,0,.49-.09.9-.27,1.34.13-.1.26-.22.36-.35.48-.61.6-1.55.33-2.57-.1-.4-.21-.79-.31-1.14-.53.19-1.15.32-1.8.32s-1.27-.13-1.8-.32Z"/>
          <path class="cls-13" d="M934.31,75.14c-.22-.35-.56-.6-.87-.58h-.75c-.31-.02-.66.23-.87.58.24.03.64.07,1.25.07s1.01-.04,1.25-.07Z"/>
          <path class="cls-2" d="M931.81,75.14c-.18-.02-.29-.04-.29-.04-.62-.28-1.32-.23-1.55-.04l-.13.18c-.37.54.33,1.21,1.42,1.59.22-.78.4-1.37.4-1.37.04-.12.09-.23.15-.33Z"/>
          <path class="cls-2" d="M936.28,75.25l-.13-.18c-.23-.2-.93-.25-1.55.04,0,0-.11.02-.29.04.06.1.12.21.15.33,0,0,.18.58.39,1.37,1.09-.39,1.78-1.06,1.42-1.59Z"/>
          <path class="cls-5" d="M934.31,75.14c-.24.03-.64.07-1.25.07s-1.01-.04-1.25-.07c-.06.1-.12.21-.15.33,0,0-.18.58-.4,1.37.53.19,1.15.32,1.8.32s1.27-.13,1.8-.32c-.22-.78-.39-1.37-.39-1.37-.04-.12-.09-.23-.15-.33Z"/>
        </g>
      </g>
    </g>
  </g>
</svg>