<?xml version="1.0" encoding="UTF-8"?>
<svg id="Layer_2" data-name="Layer 2" xmlns="http://www.w3.org/2000/svg" viewBox="0 0 31.66 41.03">
  <defs>
    <style>
      .cls-1 {
        fill: #668987;
      }

      .cls-2 {
        fill: #231f20;
      }

      .cls-3 {
        fill: #61a466;
      }

      .cls-4 {
        fill: #6c4a05;
        opacity: .7;
      }

      .cls-5 {
        fill: #e2e41c;
      }

      .cls-6 {
        fill: #b0d237;
      }

      .cls-7 {
        fill: #7a5220;
      }

      .cls-8 {
        opacity: .3;
      }

      .cls-8, .cls-9 {
        fill: #47bda1;
      }

      .cls-10 {
        fill: #93ad29;
      }

      .cls-11 {
        fill: #ab7721;
      }

      .cls-12 {
        fill: #fff200;
      }
    </style>
  </defs>
  <g id="Layer_1-2" data-name="Layer 1">
    <g>
      <ellipse class="cls-8" cx="15.83" cy="34.36" rx="15.83" ry="6.66"/>
      <ellipse class="cls-4" cx="15.33" cy="33.5" rx="7.8" ry="3.28"/>
      <path class="cls-2" d="M15.11,34.5l-.78-.04v-.03c-1.72-.23-3.19-1.05-4.2-2.37-1.31-1.69-1.7-4.02-1.08-6.4.34-1.32.69-2.54,1.03-3.65-3.82-.67-6.49-2.1-7.58-4.1-.82-1.52-.7-3.3.33-4.9,1.45-2.24,2.89-4.17,4.27-5.73.5-.56.9-1.27,1.19-2.09,1.1-3.11,3.93-5.19,7.03-5.19s5.93,2.09,7.03,5.19c.29.82.69,1.53,1.19,2.09,1.38,1.56,2.82,3.49,4.27,5.73,1.04,1.6,1.16,3.38.33,4.9-1.09,2-3.76,3.44-7.58,4.1.34,1.11.69,2.33,1.03,3.65.62,2.37.23,4.71-1.08,6.4-1.17,1.51-2.94,2.38-5,2.43-.07,0-.13,0-.2,0s-.13,0-.22,0Z"/>
      <path class="cls-2" d="M15.33,33.5c-1.82,0-3.39-.73-4.41-2.05-1.12-1.44-1.45-3.46-.91-5.53.57-2.19,1.14-4.07,1.67-5.58.25-.69.44-1.55.59-2.55.42-2.95,1.56-4.72,3.06-4.72s2.64,1.76,3.06,4.72c.14,1,.34,1.86.59,2.55.54,1.51,1.1,3.39,1.67,5.58.54,2.07.21,4.09-.91,5.53-1.02,1.32-2.59,2.05-4.41,2.05Z"/>
      <path class="cls-7" d="M18.77,22.96c-.11-.35-.44-.58-.81-.55-.87.06-1.75.09-2.64.09s-1.77-.03-2.64-.09c-.37-.02-.7.2-.81.55-.35,1.16-.66,2.28-.9,3.21-.91,3.5,1.03,6.33,4.35,6.33s5.26-2.84,4.35-6.33c-.24-.93-.55-2.05-.9-3.21Z"/>
      <path class="cls-9" d="M15.33,21.44c-6.12,0-10.58-1.5-11.94-4-.65-1.2-.55-2.58.29-3.88,1.43-2.2,2.83-4.09,4.18-5.61.58-.66,1.05-1.47,1.38-2.42.96-2.71,3.4-4.53,6.09-4.53s5.13,1.82,6.09,4.53c.33.95.8,1.76,1.38,2.42,1.35,1.52,2.75,3.41,4.18,5.61.84,1.3.95,2.67.29,3.88-1.36,2.5-5.83,4-11.94,4Z"/>
      <path class="cls-6" d="M26.14,14.1c-1-1.54-2.45-3.63-4.09-5.5-.71-.8-1.22-1.74-1.58-2.75-.8-2.26-2.8-3.86-5.14-3.86s-4.35,1.6-5.14,3.86c-.36,1.01-.87,1.95-1.58,2.75-1.65,1.86-3.09,3.95-4.09,5.5-2.27,3.5,2.57,6.33,10.81,6.33s13.08-2.84,10.81-6.33Z"/>
      <path class="cls-10" d="M15.33,18.47c-5.84,0-8.84-1.5-9.35-2.44-.06-.1-.16-.3.17-.82,1.35-2.09,2.68-3.86,3.93-5.28.84-.95,1.51-2.1,1.97-3.42.55-1.54,1.83-2.54,3.27-2.54s2.73,1,3.27,2.54c.47,1.32,1.13,2.47,1.97,3.42,1.25,1.42,2.57,3.19,3.93,5.28.34.52.23.71.17.82-.51.94-3.51,2.44-9.35,2.44Z"/>
      <path class="cls-12" d="M8.78,13.64c.7-1.21,1.71-2.86,2.86-4.32.49-.63.85-1.37,1.1-2.16.56-1.78,1.95-3.04,3.59-3.04.33,0,.65.06.95.16-.57-.42-1.23-.67-1.95-.67-1.64,0-3.03,1.26-3.59,3.04-.25.79-.61,1.53-1.1,2.16-1.15,1.46-2.16,3.11-2.86,4.32-.93,1.62-.14,3.05,1.84,3.96.03.02.07,0,.1,0-1.29-.89-1.72-2.1-.95-3.45Z"/>
      <path class="cls-5" d="M19.58,9.67c.16-.43.2-.54.35-.96-.45-.61-.78-1.31-1.02-2.05-.31-1-.9-1.83-1.64-2.37-.31-.1-.62-.16-.95-.16-1.64,0-3.03,1.26-3.59,3.04-.25.79-.61,1.53-1.1,2.16-1.15,1.46-2.16,3.11-2.86,4.32-.77,1.34-.34,2.55.95,3.45.02-.01.04-.02.05-.05,1.74-3.8,5.39-6.62,9.81-7.37Z"/>
      <path class="cls-9" d="M14.39,9.49c-.34-.61-.99-1.02-1.73-1.02-1.1,0-2,.9-2,2,0,.21.04.4.1.59.89-.92,2.17-1.52,3.63-1.57Z"/>
      <path class="cls-2" d="M19.66,11.87c-.19,0-.38.04-.55.1.34.6.55,1.28.55,2,0,.38-.07.73-.16,1.08.05,0,.11.02.16.02.88,0,1.6-.72,1.6-1.6s-.72-1.6-1.6-1.6Z"/>
      <path class="cls-2" d="M12.66,12.47c1.1,0,2-.9,2-2,0-.36-.1-.69-.27-.98-1.46.05-2.75.65-3.63,1.57.25.81,1,1.41,1.9,1.41Z"/>
      <path class="cls-9" d="M19.11,11.97c-.61.22-1.05.81-1.05,1.5,0,.83.63,1.5,1.44,1.58.1-.35.16-.71.16-1.08,0-.72-.21-1.39-.55-2Z"/>
      <path d="M13.89,33.3c.14.05.21.08.35.12-.99-1.33-1.39-2.17-1.46-3.31-.27-.03-.53-.07-.79-.11.03,1.15.52,1.95,1.91,3.3Z"/>
      <path d="M14.57,33.51c.14.03.21.04.35.06-.39-1.31-.56-2.2-.61-3.33-.26-.01-.52-.03-.78-.05.07,1.13.37,2,1.05,3.32Z"/>
      <path d="M15.04,30.26c.02,1.14.08,2.03.21,3.34.14,0,.21,0,.35,0,.13-1.31.19-2.2.21-3.34-.13,0-.26.01-.39.01s-.26-.01-.39-.01Z"/>
      <path d="M15.83,33.47c.14-.02.21-.03.35-.06.68-1.32.97-2.19,1.05-3.32-.26.02-.52.04-.78.05-.05,1.13-.22,2.02-.61,3.33Z"/>
      <path d="M16.51,33.32c.14-.04.21-.07.35-.12,1.38-1.35,1.87-2.14,1.91-3.3-.26.04-.52.08-.79.11-.07,1.14-.48,1.98-1.46,3.31Z"/>
      <path class="cls-9" d="M25.39,18.62c0,.06-.02.12-.03.18.02-.06.03-.12.03-.18Z"/>
      <path class="cls-9" d="M5.3,18.79c-.01-.06-.02-.12-.03-.18,0,.06.01.12.03.18Z"/>
      <path class="cls-9" d="M5.82,17.67s-.05.04-.07.06c-.35.31-.49.6-.48.88,0,.06.02.12.03.18.19.66,1.33,1.22,3.21,1.61-.61-.64-.9-1.26-.95-1.99-.76-.21-1.35-.46-1.74-.74Z"/>
      <path class="cls-9" d="M9.79,18.86c.12.66.39,1.25.86,1.87.62.07,1.28.12,1.98.16-.28-.6-.45-1.17-.54-1.79-.83-.06-1.6-.14-2.3-.24Z"/>
      <path class="cls-9" d="M15.33,19.21c-.38,0-.75,0-1.11-.01.03.61.09,1.17.19,1.76.31,0,.61.01.93.01s.62,0,.93-.01c.09-.59.15-1.15.19-1.76-.36,0-.73.01-1.11.01Z"/>
      <path class="cls-9" d="M18.56,19.1c-.09.62-.26,1.2-.54,1.79.7-.04,1.37-.09,1.98-.16.47-.62.74-1.21.86-1.87-.7.1-1.47.18-2.3.24Z"/>
      <path class="cls-9" d="M24.91,17.73s-.05-.04-.07-.06c-.39.28-.98.53-1.74.74-.05.73-.34,1.35-.95,1.99,1.88-.39,3.02-.95,3.21-1.61.01-.06.02-.12.03-.18,0-.28-.14-.58-.48-.88Z"/>
      <path class="cls-5" d="M23.05,13.07s1.61,2.05,1.69,2.7-2.59,1.91-2.59,1.91c0,0,1.62-1.41,1.62-2.11s-.72-2.5-.72-2.5Z"/>
      <g>
        <path class="cls-11" d="M13.53,25.53c-.1.35-.2.74-.31,1.14-.27,1.02-.15,1.96.33,2.57.12.16.28.29.44.4-.17-.43-.25-.83-.26-1.31.13.03.25.06.38.08.02.51.11.95.26,1.43.1.04.2.07.3.09-.11-.49-.18-.95-.2-1.47.13.02.25.03.38.04.01.52.05.98.12,1.48.09.01.18.02.28.03-.02-.5-.04-.96-.04-1.49.06,0,.12,0,.19,0s.12,0,.19,0c0,.52-.02.98-.04,1.47.07,0,.15,0,.22-.02.07-.52.11-1,.13-1.54.13,0,.25-.02.38-.04-.02.54-.09,1.01-.21,1.52.1-.03.21-.05.3-.09.16-.5.25-.95.28-1.48.13-.02.26-.05.38-.08,0,.49-.09.9-.27,1.34.13-.1.26-.22.36-.35.48-.61.6-1.55.33-2.57-.1-.4-.21-.79-.31-1.14-.53.19-1.15.32-1.8.32s-1.27-.13-1.8-.32Z"/>
        <path class="cls-11" d="M16.58,23.83c-.22-.35-.56-.6-.87-.58h-.75c-.31-.02-.66.23-.87.58.24.03.64.07,1.25.07s1.01-.04,1.25-.07Z"/>
        <path class="cls-1" d="M14.08,23.83c-.18-.02-.29-.04-.29-.04-.62-.28-1.32-.23-1.55-.04l-.13.18c-.37.54.33,1.21,1.42,1.59.22-.78.4-1.37.4-1.37.04-.12.09-.23.15-.33Z"/>
        <path class="cls-1" d="M18.55,23.93l-.13-.18c-.23-.2-.93-.25-1.55.04,0,0-.11.02-.29.04.06.1.12.21.15.33,0,0,.18.58.39,1.37,1.09-.39,1.78-1.06,1.42-1.59Z"/>
        <path class="cls-3" d="M16.58,23.83c-.24.03-.64.07-1.25.07s-1.01-.04-1.25-.07c-.06.1-.12.21-.15.33,0,0-.18.58-.4,1.37.53.19,1.15.32,1.8.32s1.27-.13,1.8-.32c-.22-.78-.39-1.37-.39-1.37-.04-.12-.09-.23-.15-.33Z"/>
      </g>
    </g>
  </g>
</svg>