<?xml version="1.0" encoding="UTF-8"?>
<svg id="Layer_2" data-name="Layer 2" xmlns="http://www.w3.org/2000/svg" viewBox="0 0 34.88 40.14">
  <defs>
    <style>
      .cls-1 {
        fill: #e9773a;
      }

      .cls-2 {
        fill: #231f20;
      }

      .cls-3 {
        fill: #79cdd2;
        isolation: isolate;
      }

      .cls-4 {
        fill: #24425b;
      }

      .cls-5 {
        fill: #b0d237;
      }

      .cls-6 {
        opacity: .3;
      }

      .cls-6, .cls-7 {
        fill: #47bda1;
      }

      .cls-8 {
        fill: #ed66a4;
      }

      .cls-9 {
        fill: #e9008a;
      }

      .cls-10 {
        fill: #0c0c0c;
      }

      .cls-11 {
        fill: #8bd7f8;
      }

      .cls-12 {
        fill: #eb3993;
      }

      .cls-13 {
        fill: #83004c;
      }
    </style>
  </defs>
  <g id="Layer_1-2" data-name="Layer 1">
    <g>
      <circle class="cls-6" cx="7.39" cy="35.41" r="4.34"/>
      <circle class="cls-6" cx="17.46" cy="35.8" r="4.34"/>
      <circle class="cls-6" cx="27.53" cy="34.63" r="4.34"/>
      <g>
        <path class="cls-2" d="M34.17,25.64c-1.92-1.75-3.02-2.9-4.49-4.76l-2.31-.65.58-1.61c-.88-1.21-1.48-2.05-2.36-3.49l-2.14.23,1.1-1.97c-.68-1.19-1.13-2.07-1.78-3.44l-2.14-.13,1.18-2c-.96-2.12-1.48-3.5-2.21-6-.18-1.03-1.02-1.79-2.07-1.82h-.14c-.93.03-1.76.66-2.08,1.61-.83,2.59-1.37,4.01-2.36,6.31l1.26,1.83h-2.14c-.65,1.36-1.09,2.25-1.71,3.35l.5,2.23-1.96.07c-.79,1.3-1.31,2.09-2.19,3.25l.81,1.66-2.28.24-1.61,2.07h.12c-.9,1.01-1.81,1.86-3.08,3.02l-.65.59v.88c0,1.09.58,1.82,1.29,2.13,2.38,1.09,3.77,1.54,6.11,2.09l-.17.27c-1.41.34-2.43,1.58-2.43,3.11,0,1.79,1.41,3.2,3.2,3.2,1.69,0,3.04-1.25,3.19-2.9l1.65-2.59c.71.1,1.4.18,2.07.24v.94c-.45.56-.7,1.26-.7,2,0,1.51,1.31,3.2,3.2,3.2s3.2-1.41,3.2-3.2c0-.96-.32-1.62-.7-2.06v-.87c.81-.07,1.64-.17,2.52-.31l1.49,2.35c.15,1.65,1.49,2.9,3.19,2.9,1.79,0,3.2-1.41,3.2-3.2,0-1.59-1.11-2.88-2.61-3.15,2.13-.53,3.47-1.04,5.62-1.93.63-.17,1.16-.62,1.41-1.24.34-.82.15-1.76-.55-2.45Z"/>
        <g>
          <g>
            <path class="cls-10" d="M11.32,14.61c.2.3.3.4.5.6-.3,0-.5,0-.9-.1-1.2,2-1.8,2.9-3.2,4.7.13,0,.23.01.33.03.26.26.45.45.7.7-.04,0-.08-.02-.13-.03-.4,0-.6-.1-1.1-.2-2,2.7-3.2,3.9-5.5,6,0,0,0,.3.1.3,2.4,1.1,3.7,1.5,6.3,2.1,7.1,1.7,11,1.7,18,0,2.6-.6,3.9-1.1,6.3-2.1.2,0,.2-.2.1-.3-2.29-2.09-3.49-3.39-5.48-5.98-.31.08-.53.16-.91.17l.69-.69h-.1s-.09,0-.13,0c.01,0,.02,0,.03,0-1.3-1.8-2-2.7-3.2-4.7-.35,0-.48,0-.78.07.19-.28.29-.38.48-.57-1.2-2-1.7-3-2.7-5.1h-.35c.08-.17.17-.33.25-.5h-.1c-1.4-3-2-4.5-2.9-7.6,0-.3-.3-.3-.4,0-1,3.1-1.6,4.6-2.9,7.6.08.17.17.33.25.5h-.55c-1,2.1-1.5,3.1-2.7,5.1M10.14,26.13s.02,0,.03,0c-.01,0-.02,0-.03,0Z"/>
            <path class="cls-10" d="M27.32,20.31s.01.01.02.02c.03,0,.05-.01.08-.02h-.1Z"/>
          </g>
          <g>
            <path class="cls-1" d="M17.9,33.71v-3.9h-1v3.9c-.4.2-.7.6-.7,1.1s.5,1.2,1.2,1.2,1.2-.5,1.2-1.2-.3-.9-.7-1.1Z"/>
            <path class="cls-1" d="M26.9,32.61h-.4l-2.6-4.2-.8.5,2.8,4.4v.3c0,.7.5,1.2,1.2,1.2s1.2-.5,1.2-1.2-.5-1.2-1.2-1.2l-.2.2Z"/>
            <path class="cls-1" d="M11,28.51l-2.6,4.2h-.4c-.7,0-1.2.5-1.2,1.2s.5,1.2,1.2,1.2,1.2-.5,1.2-1.2,0-.2,0-.3l2.8-4.4-.8-.5-.2-.2Z"/>
          </g>
          <g>
            <path class="cls-10" d="M17.1,9.61h3.2c.1-.2.2-.4.3-.6h-6.3c.1.2.2.4.3.6h2.6-.1Z"/>
            <path class="cls-10" d="M15,15.51c2,.1,2.9.1,4.9,0,1.2,0,1.8-.1,3-.3h0c.2-.3.3-.4.5-.6-.4,0-.6,0-.9.1-1.2.1-1.8.2-2.9.2h-4.4c-1.2,0-1.8,0-2.9-.2-.4,0-.6,0-1-.1.2.3.3.4.5.6h.1c1.2.1,1.8.2,3,.3h.1Z"/>
            <path class="cls-10" d="M27,19.81c-.4,0-.6.1-1,.2-1.5.3-2.2.4-3.7.6-3.8.4-5.8.4-9.6,0-1.5-.2-2.3-.3-3.7-.6-.4,0-.6-.1-1-.2.3.3.5.5.8.8,6.8,1.5,10.6,1.5,17.5,0l.8-.8h-.1Z"/>
            <path class="cls-12" d="M17.3,3.21c-.8,2.3-1.2,3.5-2.2,5.8h4.6c-1-2.3-1.4-3.4-2.2-5.8,0,0-.1,0-.2,0Z"/>
            <path class="cls-12" d="M17.7,9.61c.2.6.3,1,.5,1.6h2.2c.4.8.6,1.3,1,2.1-1,0-1.5.1-2.4.1.2.6.4,1,.6,1.6,1.2,0,1.8,0,2.9-.2-1.1-2-1.6-3-2.6-5.1h-2.3l.1-.1Z"/>
            <path class="cls-12" d="M13.4,13.21c.4-.8.6-1.2,1-2.1h2.2c.2-.6.3-1,.5-1.6h-2.3c-.9,2.1-1.5,3.1-2.6,5.1,1.2.1,1.8.2,2.9.2.3-.6.4-.9.6-1.6-1,0-1.5,0-2.4-.1l.1.1Z"/>
            <path class="cls-13" d="M17.3,3.21h.2c.8,2.3,1.2,3.5,2.2,5.8h.8c-1.4-3-2-4.5-2.9-7.6,0-.3-.3-.3-.4,0-1,3.1-1.6,4.6-2.9,7.6h.9c1-2.3,1.4-3.4,2.2-5.8h-.1Z"/>
            <path class="cls-13" d="M22.5,14.71c.4,0,.6,0,.9-.1h0c-1.2-2-1.7-3-2.7-5.1h-.9c.9,2.1,1.5,3.1,2.6,5.1l.1.1Z"/>
            <path class="cls-13" d="M25.9,20.01c.4,0,.6-.1,1-.2h0c-1.3-1.8-2-2.7-3.2-4.7-.4,0-.5,0-.9.1h0c1.1,2,1.8,3,3.1,4.8Z"/>
            <path class="cls-13" d="M27.4,20.31c-.4.1-.6.2-1.1.2,1.8,2.5,2.9,3.7,5,5.8-7.9,3.4-19.8,3.4-27.7,0,2.1-2.1,3.1-3.3,5-5.8-.4,0-.6-.1-1.1-.2-2,2.7-3.2,3.9-5.5,6,0,0,0,.3.1.3,2.4,1.1,3.7,1.5,6.3,2.1,7.1,1.7,11,1.7,18,0,2.6-.6,3.9-1.1,6.3-2.1.2,0,.2-.2.1-.3-2.3-2.1-3.5-3.4-5.5-6h.1Z"/>
            <path class="cls-13" d="M14.8,9.51h-.8c-1,2.1-1.5,3.1-2.7,5.1.4,0,.6,0,1,.1,1.1-2,1.6-3,2.6-5.1l-.1-.1Z"/>
            <path class="cls-13" d="M11.9,15.21h-.1c-.3,0-.5,0-.9-.1-1.2,2-1.8,2.9-3.2,4.7.4,0,.6.1,1,.2,1.3-1.8,1.9-2.8,3.1-4.8h.1Z"/>
            <path class="cls-9" d="M31.3,26.31c-2.1-2.1-3.1-3.3-5-5.8h-.2c-6.8,1.5-10.6,1.5-17.5,0h-.2c-1.8,2.5-2.9,3.7-5,5.8,7.9,3.4,19.8,3.4,27.7,0h.2ZM24.3,22.41c1.4-.2,2.6.4,2.8,1.6.2,1.1-.8,2.4-2.3,2.7-1.5.3-2.7-.5-2.8-1.7,0-1.2,1-2.3,2.3-2.5v-.1ZM17.4,23.01c1.4,0,2.6.9,2.6,2.1s-1.1,2.3-2.6,2.3-2.7-1.1-2.6-2.3c0-1.2,1.2-2.1,2.6-2.1ZM10.5,22.41c1.4.2,2.4,1.3,2.3,2.5,0,1.2-1.4,2-2.8,1.7-1.5-.3-2.5-1.5-2.3-2.7.2-1.1,1.4-1.8,2.8-1.6v.1Z"/>
            <path class="cls-8" d="M19.8,15.51c-2,.1-2.9.1-4.9,0-1.2,0-1.8-.1-3-.3-1.1,2-1.8,3-3.1,4.8,1.5.3,2.2.4,3.7.6,3.8.4,5.8.4,9.6,0,1.5-.2,2.3-.3,3.7-.6-1.3-1.8-1.9-2.8-3.1-4.8-1.2.1-1.8.2-3,.3h.1Z"/>
            <path class="cls-8" d="M17.3,11.21h.9c-.2-.6-.3-1-.5-1.6h-.6c-.2.6-.3,1-.5,1.6h.7Z"/>
            <path class="cls-8" d="M17.7,13.31c-.1-.6-.2-.9-.3-1.6-.1.6-.2.9-.3,1.6h-1.3c-.2.6-.4,1-.6,1.6h4.4c-.3-.6-.4-.9-.6-1.6h-1.3Z"/>
            <path class="cls-10" d="M17.4,27.41c1.5,0,2.7-1.1,2.6-2.3s-1.2-2.1-2.6-2.1-2.6.9-2.6,2.1,1.1,2.3,2.6,2.3ZM16,25.21c0-.7.7-1.2,1.4-1.2s1.4.5,1.4,1.2v.4c0,.7-.6,1.2-1.4,1.2s-1.4-.6-1.4-1.2v-.4Z"/>
            <path class="cls-10" d="M10,26.71c1.5.3,2.7-.5,2.8-1.7,0-1.2-1-2.3-2.3-2.5-1.4-.2-2.6.4-2.8,1.6-.2,1.1.8,2.4,2.3,2.7v-.1ZM9,23.91c.3-.4.8-.6,1.4-.5.8.1,1.3.7,1.3,1.4,0,.4-.3.6-.6.8-.3.4-.8.6-1.4.5-.8-.2-1.3-.8-1.3-1.4,0-.4.3-.6.6-.7v-.1Z"/>
            <path class="cls-10" d="M24.8,26.71c1.5-.3,2.5-1.5,2.3-2.7-.2-1.1-1.4-1.8-2.8-1.6-1.4.2-2.4,1.3-2.3,2.5,0,1.2,1.4,2,2.8,1.7v.1ZM24.4,23.41c.6-.1,1.1,0,1.4.5.3.1.6.4.6.7,0,.6-.5,1.3-1.3,1.4-.6.1-1.1,0-1.4-.5-.3-.2-.6-.4-.6-.8,0-.6.5-1.2,1.3-1.4v.1Z"/>
            <path class="cls-3" d="M17.4,24.51c.7,0,1.2.4,1.4.9v-.2c0-.7-.7-1.2-1.4-1.2s-1.4.5-1.4,1.2v.2c.1-.5.7-.9,1.4-.9Z"/>
            <path class="cls-3" d="M11.2,25.21c0,.2,0,.3-.2.4.3-.2.6-.4.6-.8,0-.6-.5-1.2-1.3-1.4-.6-.1-1.1,0-1.4.5.3-.1.6-.2.9,0,.8.1,1.3.8,1.3,1.4l.1-.1Z"/>
            <path class="cls-3" d="M23.8,25.61c0-.1-.1-.3-.2-.4,0-.6.5-1.3,1.3-1.4h.9c-.3-.4-.8-.6-1.4-.5-.8.1-1.3.7-1.3,1.4,0,.4.3.6.6.8l.1.1Z"/>
            <path class="cls-2" d="M21.1,13.01c-.3-.6-.5-1-.8-1.6h-2.7c.1.7.2,1,.3,1.7,1.3,0,1.9,0,3.2-.1ZM20.1,11.61c.2.5.3.7.5,1.1h-2.6v-.1c0-.4-.1-.6-.2-1.1h2.3v.1Z"/>
            <path class="cls-2" d="M13.7,13.01c1.3,0,1.9.1,3.2.1.1-.7.2-1,.3-1.7h-2.7c-.3.6-.5,1-.8,1.6ZM16.9,11.71c0,.5-.1.7-.2,1.2h-2.6v-.2l.5-1h2.3Z"/>
            <path class="cls-13" d="M17.3,11.21h-2.9c-.4.8-.6,1.3-1,2.1,1,0,1.5.1,2.4.1h1.3c.1-.6.2-.9.3-1.6.1.6.2.9.3,1.6h1.3c1,0,1.5,0,2.4-.1-.4-.8-.6-1.2-1-2.1h-3.1ZM17.2,11.41c-.1.7-.2,1-.3,1.7-1.3,0-1.9,0-3.2-.1l.8-1.6c1.1,0,1.6,0,2.7,0ZM17.6,11.41h2.7c.3.6.5,1,.8,1.6-1.3,0-1.9.1-3.2.1-.1-.7-.2-1-.3-1.7Z"/>
            <path class="cls-5" d="M18.2,12.71h2.3c-.2-.4-.3-.5-.4-.9h-2.1c0,.4.1.6.2.9h0Z"/>
            <path class="cls-5" d="M16.6,12.71c0-.4.1-.6.2-.9h-2.1c-.2.4-.2.5-.4.9h2.3Z"/>
            <path class="cls-4" d="M19,18.81c-.1-1.1-.2-1.7-.4-2.8h1c.3,1.1.4,1.7.6,2.8h-1.3.1Z"/>
            <path class="cls-5" d="M13.2,19.91c.3-1.1.4-1.6.8-2.7h-1.1c-.5,1.1-.7,1.6-1.1,2.7.5,0,.8.1,1.4.2v-.2Z"/>
            <path class="cls-5" d="M17.9,17.31h-1.1c0,1.1,0,1.7-.1,2.8h1.3c0-1.1,0-1.7-.1-2.8h0Z"/>
            <path class="cls-5" d="M20.8,17.21c.4,1.1.5,1.6.8,2.7.5,0,.8,0,1.4-.2-.4-1.1-.6-1.6-1.1-2.7h-1.1v.2Z"/>
            <path class="cls-5" d="M15.8,18.81c.1-1.1.2-1.7.4-2.8h-1c-.3,1.1-.4,1.7-.7,2.8h1.3Z"/>
            <path class="cls-5" d="M18.6,16.01c.2,1.1.2,1.7.4,2.8h1.3c-.2-1.1-.4-1.7-.6-2.8h-1.1Z"/>
          </g>
        </g>
        <circle class="cls-7" cx="27.48" cy="34.3" r="2.13"/>
        <circle class="cls-7" cx="17.43" cy="35.52" r="2.13"/>
        <circle class="cls-7" cx="7.7" cy="34.69" r="2.13"/>
      </g>
      <path class="cls-11" d="M8.43,33.74c.05,0,.1.01.15.02-.24-.34-.61-.57-1.05-.57-.72,0-1.31.58-1.31,1.31,0,.37.15.7.4.93.07-.94.85-1.68,1.81-1.68Z"/>
      <path class="cls-11" d="M18.22,34.55c.05,0,.1.01.15.02-.24-.34-.61-.57-1.05-.57-.72,0-1.31.58-1.31,1.31,0,.37.15.7.4.93.07-.94.85-1.68,1.81-1.68Z"/>
      <path class="cls-11" d="M28.15,33.43c.05,0,.1.01.15.02-.24-.34-.61-.57-1.05-.57-.72,0-1.31.58-1.31,1.31,0,.37.15.7.4.93.07-.94.85-1.68,1.81-1.68Z"/>
    </g>
  </g>
</svg>