<?xml version="1.0" encoding="UTF-8"?>
<svg id="Layer_2" data-name="Layer 2" xmlns="http://www.w3.org/2000/svg" viewBox="0 0 32.21 27.93">
  <defs>
    <style>
      .cls-1 {
        fill: #2c451e;
        opacity: .9;
      }

      .cls-1, .cls-2, .cls-3 {
        isolation: isolate;
      }

      .cls-4 {
        fill: #5f4011;
      }

      .cls-5 {
        fill: #696865;
      }

      .cls-2 {
        fill: #6bc9ca;
        opacity: .5;
      }

      .cls-6 {
        fill: #fbaa32;
      }

      .cls-7 {
        fill: #b0d237;
      }

      .cls-8 {
        fill: #845b24;
      }

      .cls-9 {
        fill: #edef9f;
      }

      .cls-10 {
        fill: #242424;
      }

      .cls-11 {
        fill: #47bda1;
        opacity: .3;
      }

      .cls-12 {
        fill: #787673;
      }

      .cls-13 {
        fill: #cc8d2a;
      }

      .cls-3 {
        fill: #231f20;
      }

      .cls-14 {
        fill: #29abe2;
      }

      .cls-15 {
        fill: #0c0c0c;
      }

      .cls-16 {
        fill: #febd30;
      }

      .cls-17 {
        fill: #b27c23;
      }

      .cls-18 {
        fill: #81b9e5;
      }

      .cls-19 {
        fill: #333;
      }

      .cls-20 {
        fill: #e0e323;
      }

      .cls-21 {
        fill: #ffdc89;
      }
    </style>
  </defs>
  <g id="Layer_1-2" data-name="Layer 1">
    <g>
      <path class="cls-3" d="M.91,15.49c-.56-.52-.91-1.27-.91-2.14v-.96c0-1.64,1.23-2.88,2.86-2.88h.86v-.48c0-.75.38-1.42.95-1.82v-1.06c0-.54.17-1.07.48-1.52v-.68c0-1.64,1.23-2.88,2.86-2.88.91,0,1.69.38,2.2,1,.33-1.22,1.41-2.06,2.75-2.06h6.67c1.23,0,2.24.71,2.65,1.77.5-.45,1.17-.71,1.92-.71,1.63,0,2.86,1.24,2.86,2.88v.61c.3.45.48,1,.48,1.6v1.06c.58.4.95,1.07.95,1.82v.38h.86c1.63,0,2.86,1.24,2.86,2.88v.96c0,.86-.33,1.6-.88,2.12,1.18.88-10.84,3.74-10.84,3.74h-8.96S-.48,16.63.91,15.49Z"/>
      <ellipse class="cls-11" cx="16.13" cy="23.44" rx="11.8" ry="4.49"/>
      <path class="cls-16" d="M21.43,9.29v1.8h5.7v-2.5c0-.1-.1-.3-.3-.3h-.7v1.3c0,.6-.4,1-1,1h-1c-.6,0-1-.4-1-1v-1.3h-2.5c.4.2.8.5.8,1Z"/>
      <path class="cls-16" d="M8.03,11.09h2.8v-1.8c0-.5.3-.8.8-1h-2.5v1.3c0,.6-.4,1-1,1h-1c-.6,0-1-.4-1-1v-1.3h-.7c-.1,0-.3.1-.3.3v2.5h2.9Z"/>
      <path class="cls-4" d="M24.63,17.49v-5c0-.1,0-.2.2-.2v-1c0-.1.1-.2.2-.2h-.9v2.5h0v2.2h-3.7c-.1.4-.5.7-.9.7h-7c-.4,0-.8-.3-.9-.7h-3.7v-2.1h0v-2.6h-.8s.2,0,.2.2v1.1c.1,0,.2.1.2.2v5c.4.5.7,1.1.9,1.7h.9v-2.2h13.4v2.2h1c.2-.6.5-1.2.9-1.7v-.1Z"/>
      <rect class="cls-13" x="10.83" y="13.29" width=".8" height=".3"/>
      <rect class="cls-13" x="20.63" y="13.29" width=".8" height=".3"/>
      <path class="cls-10" d="M2.73,20.29c0,.8.7,1.5,1.5,1.5s1.5-.7,1.5-1.5-.1-.7-.4-1h-2.1c-.3.3-.5.7-.5,1.1v-.1Z"/>
      <path class="cls-10" d="M28.03,21.79c.8,0,1.5-.7,1.5-1.5s-.1-.7-.4-1h-2.2c-.2.3-.4.6-.4,1,0,.8.7,1.5,1.5,1.5Z"/>
      <rect class="cls-6" x="8.03" y="11.09" width="2.8" height=".4"/>
      <rect class="cls-6" x="21.43" y="11.09" width="2.8" height=".4"/>
      <polygon class="cls-21" points="10.83 13.29 10.83 12.59 10.83 11.49 8.03 11.49 8.03 13.29 8.03 13.59 10.83 13.59 10.83 13.29"/>
      <polygon class="cls-21" points="21.43 12.59 21.43 13.29 21.43 13.59 24.23 13.59 24.23 13.29 24.23 11.49 21.43 11.49 21.43 12.59"/>
      <path class="cls-8" d="M20.63,14.39c0,.6-.4,1-1,1h-7c-.6,0-1-.4-1-1v1.4c.1.4.5.7.9.7h7c.4,0,.8-.3.9-.7v-1.4h.2Z"/>
      <path class="cls-17" d="M21.43,11.09v-1.8c0-.5-.3-.8-.8-1v4.2h.8v-1.5.1Z"/>
      <path class="cls-17" d="M10.83,12.59h.8v-4.2c-.4.1-.8.5-.8,1v3.3-.1Z"/>
      <path class="cls-6" d="M11.63,12.59h-.8v.7h.8v.3h-3.6v2.2h3.7v-1.4c0,.6.4,1,1,1h7c.6,0,1-.4,1-1v1.4h3.7v-2.1h0c0-.1-2.8-.1-2.8-.1h-.8v-.3h.8v-.7h-.8v-4.2h0V2.19c0-.6-.4-1-1-1h-.6c.6,0,1,.4,1,1v11.7c0,.6-.4,1-1,1h-5.8c-.6,0-1-.4-1-1V2.19c0-.6.4-1,1-1h-.6c-.6,0-1,.4-1,1v6.1h0v4.3h-.2Z"/>
      <path class="cls-21" d="M12.23,2.19v11.7c0,.6.4,1,1,1h5.8c.6,0,1-.4,1-1V2.19c0-.6-.4-1-1-1h-5.8c-.6,0-1,.4-1,1ZM19.13,12.29v1c0,.6-.4,1-1,1h-4c-.6,0-1-.4-1-1v-3.3c0-.6.4-1,1-1h4c.6,0,1,.4,1,1v2.3ZM13.13,4.09v-.8c0-.6.4-1,1-1h4c.6,0,1,.4,1,1v3.5c0,.6-.4,1-1,1h-4c-.6,0-1-.4-1-1v-2.7Z"/>
      <path class="cls-16" d="M14.13,3.09h4c.6,0,1,.4,1,1v-.8c0-.6-.4-1-1-1h-4c-.6,0-1,.4-1,1v.8c0-.6.4-1,1-1Z"/>
      <path class="cls-1" d="M14.13,3.09h4c.6,0,1,.4,1,1v-.8c0-.6-.4-1-1-1h-4c-.6,0-1,.4-1,1v.8c0-.6.4-1,1-1Z"/>
      <rect class="cls-16" x="13.13" y="3.09" width="6" height="4.7" rx="1" ry="1"/>
      <rect class="cls-1" x="13.13" y="3.09" width="6" height="4.7" rx="1" ry="1"/>
      <rect class="cls-1" x="13.13" y="3.09" width="6" height="4.7" rx="1" ry="1"/>
      <path class="cls-16" d="M18.13,13.29h-4c-.6,0-1-.4-1-1v1c0,.6.4,1,1,1h4c.6,0,1-.4,1-1v-1c0,.6-.4,1-1,1Z"/>
      <path class="cls-1" d="M18.13,13.29h-4c-.6,0-1-.4-1-1v1c0,.6.4,1,1,1h4c.6,0,1-.4,1-1v-1c0,.6-.4,1-1,1Z"/>
      <path class="cls-16" d="M14.13,9.39h4c.6,0,1,.4,1,1v-.4c0-.6-.4-1-1-1h-4c-.6,0-1,.4-1,1v.4c0-.6.4-1,1-1Z"/>
      <path class="cls-1" d="M14.13,9.39h4c.6,0,1,.4,1,1v-.4c0-.6-.4-1-1-1h-4c-.6,0-1,.4-1,1v.4c0-.6.4-1,1-1Z"/>
      <rect class="cls-16" x="13.13" y="9.39" width="6" height="3.9" rx="1" ry="1"/>
      <rect class="cls-1" x="13.13" y="9.39" width="6" height="3.9" rx="1" ry="1"/>
      <rect class="cls-1" x="13.13" y="9.39" width="6" height="3.9" rx="1" ry="1"/>
      <path class="cls-15" d="M6.63,12.29v-.5H2.23c-.1,0-.2.1-.2.2v1c0,.1.1.2.2.2h.4c0-.6.4-1,1-1h3v.1Z"/>
      <path class="cls-19" d="M2.23,13.29c-.1,0-.2-.1-.2-.2v-1c0-.1.1-.2.2-.2h4.4v.5h.7v-1.1s0-.2-.2-.2H2.23c-.6,0-1,.4-1,1v1c0,.6.4,1,1,1h.4v-.8h-.4Z"/>
      <path class="cls-15" d="M28.13,12.29h.5c.6,0,1,.4,1,1h.4c.1,0,.2-.1.2-.2v-1c0-.1-.1-.2-.2-.2h-4.4v.5h2.5v-.1Z"/>
      <path class="cls-19" d="M25.13,11.09c-.1,0-.2.1-.2.2v1h.7v-.5h4.4c.1,0,.2.1.2.2v1c0,.1-.1.2-.2.2h-.4v.8h.4c.6,0,1-.4,1-1v-1c0-.6-.4-1-1-1h-4.9v.1Z"/>
      <path class="cls-8" d="M2.63,17.49v.8c0,.4.2.7.6.9h4.1c.1,0,.3-.1.3-.3v-.2H3.43c-.2,0-.3-.1-.3-.3s.1-.3.3-.3h4.2v-2.6c0,.1-.1.3-.3.3h-3.3c-.6,0-1-.4-1-1v-1.8c0-.6.4-1,1-1h-.4c-.6,0-1,.4-1,1h0v4.5Z"/>
      <path class="cls-8" d="M29.63,13.29c0-.6-.4-1-1-1h-.5c.6,0,1,.4,1,1v2.5c0,.1-.1.3-.3.3h-4.3v2.4s0-.1.1-.1h3.9c.2,0,.5.2.5.5s0,.1-.1.1h-4.4v.3h4.7c.1,0,.3-.1.3-.3v-5.7h.1Z"/>
      <path class="cls-16" d="M6.63,12.29h-2.6c-.6,0-1,.4-1,1v1.8c0,.6.4,1,1,1h3.3c.1,0,.3-.1.3-.3v-3.3c0-.1,0-.2-.2-.2h-.8Z"/>
      <path class="cls-16" d="M28.93,16.09c.1,0,.3-.1.3-.3v-2.5c0-.6-.4-1-1-1h-3.3c-.1,0-.2.1-.2.2v3.5h4.3l-.1.1Z"/>
      <path class="cls-13" d="M3.33,18.39c-.2,0-.3.1-.3.3s.1.3.3.3h4.2v-.4H3.33v-.2Z"/>
      <path class="cls-13" d="M29.03,18.99s.1,0,.1-.1c0-.2-.2-.5-1.68-.5h-3.9s1.08,0,1.08.1v.5h4.4Z"/>
      <path class="cls-12" d="M24.13,10.59h1c.6,0,1-.4,1-1v-4c0-.4-.2-.7-.5-.8v.5c0,.6-.4,1-1,1h0c-.6,0-1-.4-1-1v-.5c-.3.2-.5.5-.5.8v4c0,.6.4,1,1,1ZM23.53,6.19c.2.3.5.5.9.5h.4c.4,0,.7-.2.9-.5,0,.1.1.3.1.5v2.8c0,.6-.4,1-1,1h-.4c-.6,0-1-.4-1-1v-2.8c0-.2,0-.3.1-.5Z"/>
      <path class="cls-12" d="M7.13,10.59h1c.6,0,1-.4,1-1v-4c0-.4-.2-.7-.5-.8v.5c0,.6-.4,1-1,1h0c-.6,0-1-.4-1-1v-.5c-.3.2-.5.5-.5.8v4c0,.6.4,1,1,1ZM6.53,6.19c.2.3.5.5.9.5h.4c.4,0,.7-.2.9-.5,0,.1.1.3.1.5v2.8c0,.6-.4,1-1,1h-.4c-.6,0-1-.4-1-1v-2.8c0-.2,0-.3.1-.5Z"/>
      <path class="cls-5" d="M6.43,9.39c0,.6.4,1,1,1h.4c.6,0,1-.4,1-1v-2.8c0-.2,0-.3-.1-.5-.2.3-.5.5-.9.5h-.4c-.4,0-.7-.2-.9-.5,0,.1-.1.3-.1.5v2.8Z"/>
      <path class="cls-5" d="M23.43,9.39c0,.6.4,1,1,1h.4c.6,0,1-.4,1-1v-2.8c0-.2,0-.3-.1-.5-.2.3-.5.5-.9.5h-.4c-.4,0-.7-.2-.9-.5,0,.1-.1.3-.1.5v2.8Z"/>
      <path class="cls-14" d="M7.63,6.29h0c.6,0,1-.4,1-1v-2c0-.6-.4-1-1-1h0c-.6,0-1,.4-1,1v2c0,.6.4,1,1,1ZM7.63,3.89h0c.3,0,.6.3.6.6v.7c0,.3-.3.6-.6.6h0c-.3,0-.6-.3-.6-.6v-.7c0-.3.3-.6.6-.6Z"/>
      <path class="cls-14" d="M24.63,6.29h0c.6,0,1-.4,1-1v-2c0-.6-.4-1-1-1h0c-.6,0-1,.4-1,1v2c0,.6.4,1,1,1ZM24.63,3.89h0c.3,0,.6.3.6.6v.7c0,.3-.3.6-.6.6h0c-.3,0-.6-.3-.6-.6v-.7c0-.3.3-.6.6-.6Z"/>
      <rect class="cls-18" x="7.03" y="3.89" width="1.3" height="1.9" rx=".6" ry=".6"/>
      <rect class="cls-18" x="24.03" y="3.89" width="1.3" height="1.9" rx=".6" ry=".6"/>
      <path class="cls-2" d="M9.43,19.29v5c0,.2.2.4.4.4h.6c.2,0,.4-.2.4-.4v-7.3h-1.4v2.3h0ZM9.53,19.99c0-.2.2-.3.4-.3h.3c.2,0,.4.2.4.3v4.3c0,.2-.2.3-.4.3h-.3c-.2,0-.4-.2-.4-.3v-4.3Z"/>
      <path class="cls-7" d="M9.93,24.69h.3c.2,0,.4-.2.4-.3v-4.3c0-.2-.2-.3-.4-.3h-.3c-.2,0-.4.2-.4.3v4.3c0,.2.2.3.4.3ZM9.83,20.99c0-.1.1-.2.2-.2h.2c.1,0,.2.1.2.2v2.9c0,.1-.1.2-.2.2h-.2c-.1,0-.2-.1-.2-.2v-2.9Z"/>
      <path class="cls-20" d="M10.03,24.09h.2c.1,0,.2-.1.2-.2v-2.9c0-.1-.1-.2-.2-.2h-.2c-.1,0-.2.1-.2.2v2.9c0,.1.1.2.2.2ZM9.93,22.19s0-.1.1-.1h0s.1,0,.1.1v1.6s0,.1-.1.1h0s-.1,0-.1-.1v-1.6Z"/>
      <rect class="cls-9" x="9.93" y="21.99" width=".3" height="1.8" rx=".1" ry=".1"/>
      <path class="cls-2" d="M21.33,16.99v7.3c0,.2.2.4.4.4h.6c.2,0,.4-.2.4-.4v-7.3h-1.4ZM22.63,24.29c0,.2-.2.3-.4.3h-.3c-.2,0-.4-.2-.4-.3v-4.3c0-.2.2-.3.4-.3h.3c.2,0,.4.2.4.3v4.3Z"/>
      <path class="cls-7" d="M22.23,19.69h-.3c-.2,0-.4.2-.4.3v4.3c0,.2.2.3.4.3h.3c.2,0,.4-.2.4-.3v-4.3c0-.2-.2-.3-.4-.3ZM22.33,23.89c0,.1-.1.2-.2.2h-.2c-.1,0-.2-.1-.2-.2v-2.9c0-.1.1-.2.2-.2h.2c.1,0,.2.1.2.2v2.9Z"/>
      <path class="cls-20" d="M22.13,20.79h-.2c-.1,0-.2.1-.2.2v2.9c0,.1.1.2.2.2h.2c.1,0,.2-.1.2-.2v-2.9c0-.1-.1-.2-.2-.2ZM22.23,23.69s0,.1-.1.1h0s-.1,0-.1-.1v-1.6s0-.1.1-.1h0s.1,0,.1.1v1.6Z"/>
      <rect class="cls-9" x="21.93" y="21.99" width=".3" height="1.8" rx=".1" ry=".1"/>
      <path class="cls-2" d="M16.23,24.29c0,.2.2.4.4.4h.6c.2,0,.4-.2.4-.4v-7.3h-1.4v7.3ZM16.43,19.39c0-.2.2-.4.4-.4h.3c.2,0,.4.2.4.4v4.9c0,.2-.2.4-.4.4h-.3c-.2,0-.4-.2-.4-.4v-4.9Z"/>
      <path class="cls-7" d="M16.83,24.69h.3c.2,0,.4-.2.4-.4v-4.9c0-.2-.2-.4-.4-.4h-.3c-.2,0-.4.2-.4.4v4.9c0,.2.2.4.4.4ZM16.63,20.99c0-.1.1-.2.2-.2h.2c.1,0,.2.1.2.2v2.9c0,.1-.1.2-.2.2h-.2c-.1,0-.2-.1-.2-.2v-2.9Z"/>
      <path class="cls-20" d="M16.93,24.09h.2c.1,0,.2-.1.2-.2v-2.9c0-.1-.1-.2-.2-.2h-.2c-.1,0-.2.1-.2.2v2.9c0,.1.1.2.2.2ZM16.83,22.19s0-.1.1-.1h0s.1,0,.1.1v1.6s0,.1-.1.1h0s-.1,0-.1-.1v-1.6Z"/>
      <rect class="cls-9" x="16.83" y="21.99" width=".3" height="1.8" rx=".1" ry=".1"/>
      <path class="cls-2" d="M14.43,24.29c0,.2.2.4.4.4h.6c.2,0,.4-.2.4-.4v-7.3h-1.4v7.3ZM14.63,19.39c0-.2.2-.4.4-.4h.3c.2,0,.4.2.4.4v4.9c0,.2-.2.4-.4.4h-.3c-.2,0-.4-.2-.4-.4v-4.9Z"/>
      <path class="cls-7" d="M15.03,24.69h.3c.2,0,.4-.2.4-.4v-4.9c0-.2-.2-.4-.4-.4h-.3c-.2,0-.4.2-.4.4v4.9c0,.2.2.4.4.4ZM14.93,20.99c0-.1.1-.2.2-.2h.2c.1,0,.2.1.2.2v2.9c0,.1-.1.2-.2.2h-.2c-.1,0-.2-.1-.2-.2v-2.9Z"/>
      <path class="cls-20" d="M15.13,24.09h.2c.1,0,.2-.1.2-.2v-2.9c0-.1-.1-.2-.2-.2h-.2c-.1,0-.2.1-.2.2v2.9c0,.1.1.2.2.2ZM15.03,22.19s0-.1.1-.1h0s.1,0,.1.1v1.6s0,.1-.1.1h0s-.1,0-.1-.1v-1.6Z"/>
      <rect class="cls-9" x="15.03" y="21.99" width=".3" height="1.8" rx=".1" ry=".1"/>
      <path class="cls-2" d="M11.63,24.29c0,.2.2.4.4.4h.6c.2,0,.4-.2.4-.4v-7.3h-1.4v7.3ZM11.83,18.79c0-.2.2-.4.4-.4h.3c.2,0,.4.2.4.4v5.4c0,.2-.2.4-.4.4h-.3c-.2,0-.4-.2-.4-.4v-5.4Z"/>
      <path class="cls-7" d="M12.23,24.69h.3c.2,0,.4-.2.4-.4v-5.4c0-.2-.2-.4-.4-.4h-.3c-.2,0-.4.2-.4.4v5.4c0,.2.2.4.4.4ZM12.03,20.99c0-.1.1-.2.2-.2h.2c.1,0,.2.1.2.2v2.9c0,.1-.1.2-.2.2h-.2c-.1,0-.2-.1-.2-.2v-2.9Z"/>
      <path class="cls-20" d="M12.33,24.09h.2c.1,0,.2-.1.2-.2v-2.9c0-.1-.1-.2-.2-.2h-.2c-.1,0-.2.1-.2.2v2.9c0,.1.1.2.2.2ZM12.23,22.19s0-.1.1-.1h0s.1,0,.1.1v1.6s0,.1-.1.1h0s-.1,0-.1-.1v-1.6Z"/>
      <rect class="cls-9" x="12.23" y="21.99" width=".3" height="1.8" rx=".1" ry=".1"/>
      <path class="cls-2" d="M19.13,24.29c0,.2.2.4.4.4h.6c.2,0,.4-.2.4-.4v-7.3h-1.4v7.3ZM19.23,18.79c0-.2.2-.4.4-.4h.3c.2,0,.4.2.4.4v5.4c0,.2-.2.4-.4.4h-.3c-.2,0-.4-.2-.4-.4v-5.4Z"/>
      <path class="cls-7" d="M19.63,24.69h.3c.2,0,.4-.2.4-.4v-5.4c0-.2-.2-.4-.4-.4h-.3c-.2,0-.4.2-.4.4v5.4c0,.2.2.4.4.4ZM19.53,20.99c0-.1.1-.2.2-.2h.2c.1,0,.2.1.2.2v2.9c0,.1-.1.2-.2.2h-.2c-.1,0-.2-.1-.2-.2v-2.9Z"/>
      <path class="cls-20" d="M19.73,24.09h.2c.1,0,.2-.1.2-.2v-2.9c0-.1-.1-.2-.2-.2h-.2c-.1,0-.2.1-.2.2v2.9c0,.1.1.2.2.2ZM19.63,22.19s0-.1.1-.1h0s.1,0,.1.1v1.6s0,.1-.1.1h0s-.1,0-.1-.1v-1.6Z"/>
      <rect class="cls-9" x="19.63" y="21.99" width=".3" height="1.8" rx=".1" ry=".1"/>
    </g>
  </g>
</svg>